{"glyphs":{"0":{"ha":1058,"x_min":0,"x_max":1058,"o":"m 496 -26 l 496 -26 q 299 29 386 -26 q 161 202 211 85 q 111 501 111 319 l 111 501 q 128 699 111 606 q 176 875 144 793 q 253 1024 208 957 q 356 1138 299 1090 q 484 1210 414 1185 q 633 1236 554 1236 l 633 1236 q 827 1181 742 1236 q 963 1008 913 1125 q 1013 710 1013 892 l 1013 710 q 997 512 1013 606 q 949 335 981 418 q 872 186 917 253 q 770 72 828 119 q 644 -1 713 25 q 496 -26 575 -26 z m 503 49 l 503 49 q 624 72 568 49 q 727 138 679 96 q 813 240 775 181 q 877 373 851 300 q 917 529 903 446 q 931 701 931 613 l 931 701 q 892 965 931 864 q 783 1115 853 1067 q 624 1163 714 1163 l 624 1163 q 503 1140 560 1163 q 398 1074 446 1117 q 312 971 350 1031 q 248 838 274 911 q 208 682 222 765 q 193 510 193 599 l 193 510 q 233 245 193 347 q 342 96 272 143 q 503 49 413 49 z m 0 -521 l 0 -507 l 1058 -507 l 1058 -521 l 0 -521 z m 0 0 l 0 28 l 1058 28 l 1058 0 l 0 0 z m 0 694 l 0 701 l 1058 701 l 1058 694 l 0 694 z m 0 1215 l 0 1229 l 1058 1229 l 1058 1215 l 0 1215 z "},"1":{"ha":625,"x_min":0,"x_max":625,"o":"m 294 -19 l 294 -19 q 266 -12 274 -19 q 260 10 258 -4 l 260 10 l 399 1124 q 321 1063 361 1093 q 243 1008 281 1033 q 174 965 206 983 l 174 965 q 144 957 157 957 q 121 974 131 957 l 121 974 q 115 1003 110 992 q 138 1024 119 1014 l 138 1024 q 221 1076 178 1047 q 308 1140 264 1106 q 393 1213 351 1174 l 393 1213 q 412 1228 404 1224 q 428 1234 419 1232 q 451 1236 438 1236 l 451 1236 q 478 1229 471 1236 q 485 1208 486 1222 l 485 1208 l 335 7 q 324 -13 333 -7 q 294 -19 315 -19 z m 0 -521 l 0 -507 l 625 -507 l 625 -521 l 0 -521 z m 0 0 l 0 28 l 625 28 l 625 0 l 0 0 z m 0 694 l 0 701 l 625 701 l 625 694 l 0 694 z m 0 1215 l 0 1229 l 625 1229 l 625 1215 l 0 1215 z "},"2":{"ha":921,"x_min":0,"x_max":921,"o":"m 751 0 l 63 0 q 41 10 49 0 q 34 32 33 19 q 44 54 35 44 l 44 54 l 304 297 q 467 455 394 383 q 594 585 539 526 q 688 694 649 644 q 751 788 726 744 q 788 870 776 831 q 799 949 799 910 l 799 949 q 768 1068 799 1021 q 681 1140 738 1115 q 544 1164 625 1164 l 544 1164 q 382 1131 451 1164 q 250 1042 313 1097 l 250 1042 q 222 1027 235 1028 q 196 1039 210 1026 l 196 1039 q 183 1067 181 1054 q 199 1090 186 1079 l 199 1090 q 290 1164 236 1131 q 411 1217 344 1197 q 553 1236 478 1236 l 553 1236 q 682 1217 622 1236 q 785 1163 742 1199 q 852 1074 828 1126 q 876 954 876 1022 l 876 954 q 863 864 876 910 q 824 769 850 818 q 755 667 797 721 q 654 549 713 613 q 520 411 596 486 q 350 246 444 336 l 350 246 l 163 69 l 758 69 q 775 63 769 69 q 781 39 781 56 l 781 39 q 772 10 779 19 q 751 0 764 0 l 751 0 z m 0 -521 l 0 -507 l 921 -507 l 921 -521 l 0 -521 z m 0 0 l 0 28 l 921 28 l 921 0 l 0 0 z m 0 694 l 0 701 l 921 701 l 921 694 l 0 694 z m 0 1215 l 0 1229 l 921 1229 l 921 1215 l 0 1215 z "},"3":{"ha":921,"x_min":0,"x_max":921,"o":"m 418 -26 l 418 -26 q 269 2 338 -26 q 146 83 200 31 q 56 211 92 136 l 56 211 q 47 243 46 231 q 65 264 47 256 l 65 264 q 94 271 83 274 q 113 253 104 268 l 113 253 q 191 141 147 188 q 292 70 235 94 q 422 46 350 46 l 422 46 q 555 69 496 46 q 656 134 614 92 q 721 235 699 176 q 743 364 743 293 l 743 364 q 708 497 743 440 q 608 587 674 554 q 453 619 543 619 l 453 619 l 367 619 q 351 628 356 619 q 347 656 346 638 l 347 656 q 358 681 350 674 q 375 689 365 689 l 375 689 l 463 689 q 591 710 535 689 q 685 767 647 731 q 744 851 724 803 q 764 957 764 900 l 764 957 q 745 1049 764 1010 q 694 1115 726 1089 q 619 1153 661 1140 q 529 1165 578 1165 l 529 1165 q 424 1150 474 1165 q 332 1107 375 1135 q 249 1042 289 1079 l 249 1042 q 222 1027 233 1028 q 196 1039 210 1026 l 196 1039 q 183 1066 179 1054 q 199 1090 186 1078 l 199 1090 q 287 1164 235 1131 q 403 1217 339 1197 q 535 1236 467 1236 l 535 1236 q 654 1219 599 1236 q 752 1167 710 1201 q 819 1080 794 1132 q 843 958 843 1028 l 843 958 q 828 859 843 907 q 783 771 813 811 q 706 700 753 731 q 596 653 658 669 l 596 653 q 722 592 671 635 q 798 491 772 549 q 824 367 824 433 l 824 367 q 796 209 824 281 q 715 85 768 138 q 588 3 663 32 q 418 -26 513 -26 z m 0 -521 l 0 -507 l 921 -507 l 921 -521 l 0 -521 z m 0 0 l 0 28 l 921 28 l 921 0 l 0 0 z m 0 694 l 0 701 l 921 701 l 921 694 l 0 694 z m 0 1215 l 0 1229 l 921 1229 l 921 1215 l 0 1215 z "},"4":{"ha":938,"x_min":0,"x_max":938,"o":"m 651 -19 l 651 -19 q 623 -12 632 -19 q 617 8 614 -6 l 617 8 l 657 331 l 92 331 q 65 343 74 331 q 68 376 56 356 l 68 376 l 578 1208 q 599 1232 588 1225 q 631 1236 610 1239 l 631 1236 q 653 1230 644 1235 q 663 1217 661 1225 q 656 1194 664 1208 l 656 1194 l 163 400 l 667 400 l 722 835 q 764 861 726 861 l 764 861 q 792 855 783 861 q 799 835 801 849 l 799 835 l 743 400 l 876 400 q 894 393 889 400 q 900 369 900 386 l 900 369 q 891 340 899 350 q 869 331 883 331 l 869 331 l 733 331 l 693 7 q 651 -19 689 -19 z m 0 -521 l 0 -507 l 938 -507 l 938 -521 l 0 -521 z m 0 0 l 0 28 l 938 28 l 938 0 l 0 0 z m 0 694 l 0 701 l 938 701 l 938 694 l 0 694 z m 0 1215 l 0 1229 l 938 1229 l 938 1215 l 0 1215 z "},"5":{"ha":921,"x_min":0,"x_max":921,"o":"m 438 -26 l 438 -26 q 328 -12 381 -26 q 231 31 276 3 q 148 101 186 60 q 81 194 110 142 l 81 194 q 69 224 69 211 q 86 247 69 236 l 86 247 q 113 258 101 260 q 135 240 125 257 l 135 240 q 216 137 172 181 q 316 69 260 93 q 444 46 372 46 l 444 46 q 577 71 518 46 q 678 144 636 96 q 742 260 719 193 q 765 410 765 326 l 765 410 q 749 522 765 471 q 701 612 733 574 q 620 671 668 650 q 508 692 572 692 l 508 692 q 410 677 458 692 q 318 635 361 663 q 239 568 275 607 l 239 568 q 211 556 226 556 q 185 564 196 556 q 176 588 175 572 l 176 588 l 272 1192 q 282 1209 274 1203 q 304 1215 290 1215 l 304 1215 l 863 1215 q 878 1208 872 1215 q 882 1185 883 1201 l 882 1185 q 874 1156 882 1165 q 854 1146 867 1146 l 854 1146 l 336 1146 l 261 667 q 334 716 293 694 q 421 749 375 738 q 514 761 467 761 l 514 761 q 695 716 621 761 q 807 593 769 671 q 844 415 844 515 l 844 415 q 814 228 844 311 q 728 89 783 146 q 599 3 674 32 q 438 -26 525 -26 z m 0 -521 l 0 -507 l 921 -507 l 921 -521 l 0 -521 z m 0 0 l 0 28 l 921 28 l 921 0 l 0 0 z m 0 694 l 0 701 l 921 701 l 921 694 l 0 694 z m 0 1215 l 0 1229 l 921 1229 l 921 1215 l 0 1215 z "},"6":{"ha":990,"x_min":0,"x_max":990,"o":"m 511 -26 l 511 -26 q 312 31 394 -26 q 186 191 229 88 q 143 433 143 294 l 143 433 q 172 672 143 560 q 256 879 200 785 q 392 1046 311 974 q 579 1166 474 1118 q 813 1232 685 1214 l 813 1232 q 853 1232 842 1236 q 865 1206 864 1228 l 865 1206 q 861 1179 867 1188 q 836 1167 856 1171 l 836 1167 q 614 1104 713 1149 q 442 992 515 1060 q 320 838 369 925 q 247 648 271 751 q 224 428 224 544 l 224 428 q 245 262 224 333 q 307 142 267 190 q 400 69 347 93 q 514 46 453 46 l 514 46 q 647 72 588 46 q 747 147 706 99 q 810 261 788 196 q 832 404 832 326 l 832 404 q 801 547 832 488 q 715 640 771 607 q 582 674 658 674 l 582 674 q 490 658 535 674 q 402 613 444 643 q 324 540 360 583 q 260 439 288 496 q 217 313 232 382 l 217 313 l 189 394 q 258 551 215 485 q 353 660 300 617 q 467 724 407 703 q 588 744 526 744 l 588 744 q 721 721 661 744 q 824 653 781 697 q 890 549 867 610 q 913 413 913 488 l 913 413 q 884 235 913 315 q 802 96 856 154 q 676 6 749 38 q 511 -26 603 -26 z m 0 -521 l 0 -507 l 990 -507 l 990 -521 l 0 -521 z m 0 0 l 0 28 l 990 28 l 990 0 l 0 0 z m 0 694 l 0 701 l 990 701 l 990 694 l 0 694 z m 0 1215 l 0 1229 l 990 1229 l 990 1215 l 0 1215 z "},"7":{"ha":747,"x_min":0,"x_max":821,"o":"m 156 -17 l 156 -17 q 128 -1 132 -12 q 135 29 124 10 l 135 29 l 714 1146 l 131 1146 q 115 1153 121 1146 q 111 1178 110 1161 l 111 1178 q 119 1206 111 1197 q 139 1215 128 1215 l 139 1215 l 789 1215 q 812 1204 803 1215 q 811 1174 821 1193 l 811 1174 l 210 15 q 189 -14 200 -6 q 156 -17 178 -22 z m 0 -521 l 0 -507 l 747 -507 l 747 -521 l 0 -521 z m 0 0 l 0 28 l 747 28 l 747 0 l 0 0 z m 0 694 l 0 701 l 747 701 l 747 694 l 0 694 z m 0 1215 l 0 1229 l 747 1229 l 747 1215 l 0 1215 z "},"8":{"ha":921,"x_min":0,"x_max":921,"o":"m 428 -26 l 428 -26 q 276 -5 343 -26 q 162 57 208 17 q 91 153 115 97 q 67 279 67 210 l 67 279 q 91 395 67 340 q 160 499 115 450 q 269 587 206 547 q 410 656 332 626 l 410 656 q 292 739 339 693 q 221 837 244 785 q 197 944 197 889 l 197 944 q 224 1073 197 1018 q 300 1165 251 1128 q 413 1220 349 1201 q 551 1239 478 1239 l 551 1239 q 672 1223 615 1239 q 773 1175 729 1207 q 841 1095 817 1143 q 865 983 865 1047 l 865 983 q 846 883 865 931 q 790 794 826 836 q 702 719 753 753 q 588 657 651 685 l 588 657 q 723 569 667 619 q 809 460 779 519 q 839 329 839 400 l 839 329 q 810 182 839 247 q 726 70 781 117 q 595 -1 671 24 q 428 -26 519 -26 z m 438 46 l 438 46 q 568 65 510 46 q 669 122 626 85 q 735 210 713 158 q 758 326 758 263 l 758 326 q 726 449 758 396 q 633 544 693 501 q 490 619 574 586 l 490 619 q 353 559 415 593 q 244 483 290 525 q 172 390 197 440 q 147 279 147 339 l 147 279 q 167 181 147 224 q 226 108 188 138 q 317 62 264 78 q 438 46 371 46 z m 508 690 l 508 690 q 656 764 594 721 q 752 861 718 807 q 786 976 786 915 l 786 976 q 767 1063 786 1026 q 715 1122 749 1099 q 637 1156 681 1146 q 544 1167 593 1167 l 544 1167 q 443 1154 492 1167 q 357 1115 394 1142 q 298 1046 319 1088 q 276 949 276 1004 l 276 949 q 304 846 276 893 q 384 760 332 799 q 508 690 436 721 z m 0 -521 l 0 -507 l 921 -507 l 921 -521 l 0 -521 z m 0 0 l 0 28 l 921 28 l 921 0 l 0 0 z m 0 694 l 0 701 l 921 701 l 921 694 l 0 694 z m 0 1215 l 0 1229 l 921 1229 l 921 1215 l 0 1215 z "},"9":{"ha":990,"x_min":0,"x_max":990,"o":"m 546 1242 l 546 1242 q 744 1185 663 1242 q 870 1024 826 1128 q 914 782 914 921 l 914 782 q 885 543 914 656 q 801 336 857 431 q 663 169 744 242 q 476 49 582 97 q 243 -17 371 1 l 243 -17 q 203 -17 214 -21 q 190 10 193 -12 l 190 10 q 195 36 189 28 q 221 49 201 44 l 221 49 q 442 111 343 67 q 614 223 540 156 q 736 377 688 290 q 809 567 785 464 q 833 788 833 671 l 833 788 q 811 953 833 882 q 749 1074 789 1025 q 656 1146 710 1122 q 542 1169 603 1169 l 542 1169 q 409 1143 468 1169 q 309 1068 350 1117 q 247 954 268 1019 q 225 811 225 889 l 225 811 q 256 669 225 729 q 342 575 286 608 q 475 542 399 542 l 475 542 q 567 557 521 542 q 654 602 613 572 q 732 676 696 632 q 796 776 768 719 q 840 903 824 833 l 840 903 l 868 821 q 799 665 842 732 q 703 556 757 599 q 590 492 650 513 q 468 471 529 471 l 468 471 q 335 494 394 471 q 233 562 275 518 q 167 667 190 606 q 144 803 144 728 l 144 803 q 173 981 144 900 q 254 1119 201 1061 q 381 1210 307 1178 q 546 1242 454 1242 z m 0 -521 l 0 -507 l 990 -507 l 990 -521 l 0 -521 z m 0 0 l 0 28 l 990 28 l 990 0 l 0 0 z m 0 694 l 0 701 l 990 701 l 990 694 l 0 694 z m 0 1215 l 0 1229 l 990 1229 l 990 1215 l 0 1215 z "},"\r":{"ha":417,"x_min":null,"x_max":null,"o":""}," ":{"ha":417,"x_min":null,"x_max":null,"o":""}," ":{"ha":139,"x_min":null,"x_max":null,"o":""}," ":{"ha":417,"x_min":null,"x_max":null,"o":""},"A":{"ha":1043,"x_min":-7,"x_max":1043,"o":"m 28 -18 l 28 -18 q -1 -6 6 -17 q 1 25 -7 6 l 1 25 l 572 1204 q 590 1229 579 1222 q 621 1236 600 1236 l 621 1236 q 649 1228 640 1236 q 663 1201 658 1221 l 663 1201 l 958 21 q 955 -6 963 4 q 926 -18 947 -17 l 926 -18 q 899 -14 907 -21 q 885 14 890 -7 l 885 14 l 800 358 l 243 358 l 76 14 q 57 -14 67 -7 q 28 -18 47 -21 z m 610 1121 l 276 428 l 782 428 l 610 1121 z m 0 -521 l 0 -507 l 1043 -507 l 1043 -521 l 0 -521 z m 0 0 l 0 28 l 1043 28 l 1043 0 l 0 0 z m 0 694 l 0 701 l 1043 701 l 1043 694 l 0 694 z m 0 1215 l 0 1229 l 1043 1229 l 1043 1215 l 0 1215 z "},"B":{"ha":1007,"x_min":0,"x_max":1007,"o":"m 449 0 l 190 0 q 157 26 153 0 l 157 26 l 303 1189 q 346 1215 307 1215 l 346 1215 l 624 1215 q 810 1190 733 1215 q 926 1112 886 1165 q 965 974 965 1058 l 965 974 q 937 845 965 903 q 860 747 908 788 q 756 681 813 706 q 642 649 699 657 l 642 649 l 640 644 q 756 626 701 642 q 853 581 810 611 q 920 506 896 551 q 944 394 944 460 l 944 394 q 920 258 944 319 q 851 148 896 196 q 744 67 806 100 q 608 17 682 33 q 449 0 533 0 l 449 0 z m 306 608 l 238 69 l 446 69 q 617 92 540 69 q 748 158 693 115 q 833 259 803 200 q 863 392 863 318 l 863 392 q 840 489 863 449 q 774 556 817 529 q 673 595 732 582 q 542 608 614 608 l 542 608 l 306 608 z m 374 1146 l 314 678 l 525 678 q 659 697 594 678 q 775 755 724 717 q 856 847 826 793 q 886 968 886 901 l 886 968 q 855 1071 886 1032 q 764 1128 824 1110 q 617 1146 704 1146 l 617 1146 l 374 1146 z m 0 -521 l 0 -507 l 1007 -507 l 1007 -521 l 0 -521 z m 0 0 l 0 28 l 1007 28 l 1007 0 l 0 0 z m 0 694 l 0 701 l 1007 701 l 1007 694 l 0 694 z m 0 1215 l 0 1229 l 1007 1229 l 1007 1215 l 0 1215 z "},"C":{"ha":1076,"x_min":0,"x_max":1076,"o":"m 583 -26 l 583 -26 q 406 11 486 -26 q 267 120 325 49 q 178 293 210 192 q 146 521 146 394 l 146 521 q 165 702 146 614 q 219 870 183 790 q 306 1017 254 950 q 424 1133 357 1083 q 569 1209 490 1182 q 740 1236 649 1236 l 740 1236 q 867 1221 807 1236 q 977 1174 926 1206 q 1064 1092 1028 1143 l 1064 1092 q 1072 1069 1075 1079 q 1053 1049 1068 1060 l 1053 1049 q 1031 1041 1040 1040 q 1007 1054 1021 1042 l 1007 1054 q 932 1115 974 1092 q 841 1151 890 1139 q 735 1163 792 1163 l 735 1163 q 592 1139 660 1163 q 469 1072 525 1115 q 367 970 413 1029 q 291 840 322 911 q 244 688 260 768 q 228 524 228 608 l 228 524 q 253 322 228 410 q 327 172 279 233 q 441 80 375 111 q 588 49 507 49 l 588 49 q 699 67 647 49 q 797 117 751 85 q 881 190 842 149 q 956 276 921 231 l 956 276 q 977 290 967 289 q 1001 279 988 290 l 1001 279 q 1017 258 1017 268 q 1008 233 1018 249 l 1008 233 q 886 96 953 154 q 744 6 819 38 q 583 -26 668 -26 z m 0 -521 l 0 -507 l 1076 -507 l 1076 -521 l 0 -521 z m 0 0 l 0 28 l 1076 28 l 1076 0 l 0 0 z m 0 694 l 0 701 l 1076 701 l 1076 694 l 0 694 z m 0 1215 l 0 1229 l 1076 1229 l 1076 1215 l 0 1215 z "},"D":{"ha":1207,"x_min":0,"x_max":1207,"o":"m 403 0 l 192 0 q 157 26 154 0 l 157 26 l 303 1189 q 315 1209 306 1203 q 344 1215 325 1215 l 344 1215 l 594 1215 q 812 1184 714 1215 q 981 1092 910 1153 q 1090 940 1051 1031 q 1128 732 1128 850 l 1128 732 q 1097 497 1128 608 q 1005 295 1065 386 q 856 138 944 204 q 654 36 768 72 q 403 0 540 0 l 403 0 z m 374 1143 l 239 72 l 403 72 q 624 104 524 72 q 803 194 725 136 q 936 335 882 253 q 1018 517 990 417 q 1046 732 1046 618 l 1046 732 q 1012 917 1046 839 q 917 1044 978 994 q 773 1119 856 1094 q 593 1143 690 1143 l 593 1143 l 374 1143 z m 0 -521 l 0 -507 l 1207 -507 l 1207 -521 l 0 -521 z m 0 0 l 0 28 l 1207 28 l 1207 0 l 0 0 z m 0 694 l 0 701 l 1207 701 l 1207 694 l 0 694 z m 0 1215 l 0 1229 l 1207 1229 l 1207 1215 l 0 1215 z "},"E":{"ha":921,"x_min":0,"x_max":963,"o":"m 789 0 l 193 0 q 165 8 174 0 q 158 32 156 15 l 158 32 l 303 1189 q 314 1209 304 1203 q 344 1215 324 1215 l 344 1215 l 940 1215 q 958 1207 954 1215 q 961 1181 963 1199 l 961 1181 q 953 1154 960 1163 q 933 1146 946 1146 l 933 1146 l 374 1146 l 314 678 l 786 678 q 803 669 799 678 q 807 643 808 661 l 807 643 q 797 616 804 624 q 778 608 790 608 l 778 608 l 306 608 l 239 69 l 796 69 q 815 61 810 69 q 817 35 819 53 l 817 35 q 808 8 815 17 q 789 0 801 0 l 789 0 z m 0 -521 l 0 -507 l 921 -507 l 921 -521 l 0 -521 z m 0 0 l 0 28 l 921 28 l 921 0 l 0 0 z m 0 694 l 0 701 l 921 701 l 921 694 l 0 694 z m 0 1215 l 0 1229 l 921 1229 l 921 1215 l 0 1215 z "},"F":{"ha":868,"x_min":0,"x_max":947,"o":"m 190 -19 l 190 -19 q 156 7 151 -19 l 156 7 l 303 1189 q 315 1209 306 1203 q 344 1215 325 1215 l 344 1215 l 925 1215 q 942 1207 938 1215 q 946 1181 947 1199 l 946 1181 q 938 1154 944 1163 q 918 1146 931 1146 l 918 1146 l 374 1146 l 311 643 l 768 643 q 785 635 781 643 q 789 608 790 626 l 789 608 q 779 581 786 589 q 760 574 772 574 l 760 574 l 301 574 l 232 7 q 219 -13 229 -7 q 190 -19 210 -19 z m 0 -521 l 0 -507 l 868 -507 l 868 -521 l 0 -521 z m 0 0 l 0 28 l 868 28 l 868 0 l 0 0 z m 0 694 l 0 701 l 868 701 l 868 694 l 0 694 z m 0 1215 l 0 1229 l 868 1229 l 868 1215 l 0 1215 z "},"H":{"ha":1233,"x_min":0,"x_max":1233,"o":"m 189 -19 l 189 -19 q 154 7 151 -19 l 154 7 l 306 1210 q 317 1230 307 1224 q 347 1236 326 1236 l 347 1236 q 382 1210 385 1236 l 382 1210 l 314 672 l 1000 672 l 1068 1210 q 1081 1230 1071 1224 q 1110 1236 1090 1236 l 1110 1236 q 1144 1210 1147 1236 l 1144 1210 l 993 7 q 983 -12 992 -6 q 953 -19 974 -19 l 953 -19 q 918 7 914 -19 l 918 7 l 992 603 l 306 603 l 231 7 q 219 -12 229 -6 q 189 -19 210 -19 z m 0 -521 l 0 -507 l 1233 -507 l 1233 -521 l 0 -521 z m 0 0 l 0 28 l 1233 28 l 1233 0 l 0 0 z m 0 694 l 0 701 l 1233 701 l 1233 694 l 0 694 z m 0 1215 l 0 1229 l 1233 1229 l 1233 1215 l 0 1215 z "},"I":{"ha":469,"x_min":0,"x_max":469,"o":"m 190 -19 l 190 -19 q 161 -12 169 -19 q 154 8 153 -6 l 154 8 l 304 1210 q 317 1230 307 1224 q 346 1236 326 1236 l 346 1236 q 374 1230 365 1236 q 381 1210 383 1224 l 381 1210 l 231 7 q 220 -12 229 -6 q 190 -19 211 -19 z m 0 -521 l 0 -507 l 469 -507 l 469 -521 l 0 -521 z m 0 0 l 0 28 l 469 28 l 469 0 l 0 0 z m 0 694 l 0 701 l 469 701 l 469 694 l 0 694 z m 0 1215 l 0 1229 l 469 1229 l 469 1215 l 0 1215 z "},"J":{"ha":903,"x_min":0,"x_max":903,"o":"m 389 -26 l 389 -26 q 247 2 313 -26 q 134 85 182 31 q 65 215 86 139 l 65 215 q 67 242 60 233 q 88 254 74 250 l 88 254 q 116 255 106 260 q 133 232 126 250 l 133 232 q 188 133 154 174 q 272 70 222 92 q 390 49 322 49 l 390 49 q 474 60 436 49 q 542 95 511 71 q 594 158 572 119 q 633 250 617 196 q 658 375 649 304 l 658 375 l 764 1210 q 776 1230 765 1224 q 806 1236 786 1236 l 806 1236 q 834 1230 826 1236 q 840 1210 842 1224 l 840 1210 l 736 378 q 704 227 725 293 q 653 113 683 161 q 585 34 624 65 q 497 -12 546 3 q 389 -26 447 -26 z m 0 -521 l 0 -507 l 903 -507 l 903 -521 l 0 -521 z m 0 0 l 0 28 l 903 28 l 903 0 l 0 0 z m 0 694 l 0 701 l 903 701 l 903 694 l 0 694 z m 0 1215 l 0 1229 l 903 1229 l 903 1215 l 0 1215 z "},"K":{"ha":956,"x_min":0,"x_max":1006,"o":"m 189 -19 l 189 -19 q 160 -13 169 -19 q 154 7 151 -7 l 154 7 l 306 1210 q 347 1236 308 1236 l 347 1236 q 382 1210 385 1236 l 382 1210 l 314 671 l 944 1222 q 969 1235 958 1236 q 993 1221 981 1235 l 993 1221 q 1006 1196 1006 1206 q 993 1175 1006 1186 l 993 1175 l 378 639 q 537 421 454 526 q 708 219 619 315 q 886 38 796 124 l 886 38 q 898 14 899 25 q 881 -12 897 3 l 881 -12 q 855 -22 867 -24 q 831 -8 843 -19 l 831 -8 q 688 135 758 60 q 551 290 618 210 q 423 453 485 371 q 307 618 361 536 l 307 618 l 231 7 q 218 -13 228 -7 q 189 -19 208 -19 z m 0 -521 l 0 -507 l 956 -507 l 956 -521 l 0 -521 z m 0 0 l 0 28 l 956 28 l 956 0 l 0 0 z m 0 694 l 0 701 l 956 701 l 956 694 l 0 694 z m 0 1215 l 0 1229 l 956 1229 l 956 1215 l 0 1215 z "},"L":{"ha":868,"x_min":0,"x_max":868,"o":"m 765 0 l 192 0 q 157 32 153 0 l 157 32 l 306 1210 q 316 1230 307 1224 q 346 1236 325 1236 l 346 1236 q 374 1230 365 1236 q 382 1210 383 1224 l 382 1210 l 238 69 l 772 69 q 790 61 786 69 q 793 35 794 53 l 793 35 q 785 8 792 17 q 765 0 778 0 l 765 0 z m 0 -521 l 0 -507 l 868 -507 l 868 -521 l 0 -521 z m 0 0 l 0 28 l 868 28 l 868 0 l 0 0 z m 0 694 l 0 701 l 868 701 l 868 694 l 0 694 z m 0 1215 l 0 1229 l 868 1229 l 868 1215 l 0 1215 z "},"N":{"ha":1233,"x_min":0,"x_max":1233,"o":"m 189 -19 l 189 -19 q 154 7 151 -19 l 154 7 l 306 1210 q 317 1230 307 1224 q 344 1236 326 1236 l 344 1236 q 370 1231 361 1236 q 386 1214 379 1226 l 386 1214 l 932 133 l 1068 1210 q 1081 1230 1071 1224 q 1110 1236 1090 1236 l 1110 1236 q 1144 1210 1147 1236 l 1144 1210 l 993 7 q 982 -13 992 -7 q 954 -19 972 -19 l 954 -19 q 931 -15 939 -19 q 917 3 924 -10 l 917 3 l 368 1089 l 231 7 q 219 -13 229 -7 q 189 -19 210 -19 z m 0 -521 l 0 -507 l 1233 -507 l 1233 -521 l 0 -521 z m 0 0 l 0 28 l 1233 28 l 1233 0 l 0 0 z m 0 694 l 0 701 l 1233 701 l 1233 694 l 0 694 z m 0 1215 l 0 1229 l 1233 1229 l 1233 1215 l 0 1215 z "},"O":{"ha":1285,"x_min":0,"x_max":1285,"o":"m 621 -26 l 621 -26 q 428 13 515 -26 q 278 126 340 53 q 181 301 215 199 q 147 532 147 404 l 147 532 q 165 711 147 624 q 219 877 183 799 q 305 1021 254 956 q 421 1135 356 1086 q 565 1210 486 1183 q 735 1236 644 1236 l 735 1236 q 926 1197 840 1236 q 1075 1086 1013 1158 q 1171 913 1138 1014 q 1204 686 1204 811 l 1204 686 q 1186 505 1204 593 q 1133 337 1168 417 q 1047 191 1097 257 q 931 76 996 125 q 788 1 865 28 q 621 -26 710 -26 z m 625 49 l 625 49 q 766 72 700 49 q 888 139 832 96 q 988 241 944 182 q 1061 371 1031 300 q 1108 521 1092 442 q 1124 683 1124 600 l 1124 683 q 1096 885 1124 796 q 1015 1035 1068 974 q 890 1130 963 1097 q 731 1163 818 1163 l 731 1163 q 589 1140 656 1163 q 466 1074 522 1117 q 366 974 410 1032 q 291 845 322 915 q 244 697 260 775 q 228 535 228 618 l 228 535 q 257 331 228 421 q 338 177 286 240 q 463 81 390 114 q 625 49 536 49 z m 0 -521 l 0 -507 l 1285 -507 l 1285 -521 l 0 -521 z m 0 0 l 0 28 l 1285 28 l 1285 0 l 0 0 z m 0 694 l 0 701 l 1285 701 l 1285 694 l 0 694 z m 0 1215 l 0 1229 l 1285 1229 l 1285 1215 l 0 1215 z "},"P":{"ha":972,"x_min":0,"x_max":982,"o":"m 190 -19 l 190 -19 q 154 8 150 -19 l 154 8 l 303 1189 q 315 1209 306 1203 q 344 1215 325 1215 l 344 1215 l 596 1215 q 809 1187 724 1215 q 938 1096 894 1158 q 982 931 982 1033 l 982 931 q 947 763 982 835 q 847 640 911 690 q 695 560 782 590 q 507 517 608 529 l 507 517 q 398 506 453 510 q 293 501 343 503 l 293 501 l 231 7 q 219 -13 228 -7 q 190 -19 210 -19 z m 374 1146 l 301 569 q 369 573 335 571 q 440 578 404 575 q 511 586 476 582 l 511 586 q 716 642 628 601 q 853 754 804 683 q 903 928 903 825 l 903 928 q 869 1055 903 1007 q 766 1124 835 1103 q 593 1146 697 1146 l 593 1146 l 374 1146 z m 0 -521 l 0 -507 l 972 -507 l 972 -521 l 0 -521 z m 0 0 l 0 28 l 972 28 l 972 0 l 0 0 z m 0 694 l 0 701 l 972 701 l 972 694 l 0 694 z m 0 1215 l 0 1229 l 972 1229 l 972 1215 l 0 1215 z "},"Q":{"ha":1285,"x_min":0,"x_max":1285,"o":"m 910 -233 l 910 -233 q 883 -237 894 -240 q 864 -221 872 -235 l 864 -221 l 632 193 q 628 219 624 208 q 650 239 633 231 l 650 239 q 675 244 664 247 q 694 226 686 242 l 694 226 l 925 -187 q 929 -214 933 -203 q 910 -233 925 -225 z m 621 -26 l 621 -26 q 428 13 515 -26 q 278 126 340 53 q 181 301 215 199 q 147 532 147 404 l 147 532 q 165 711 147 624 q 219 877 183 799 q 305 1021 254 956 q 421 1135 356 1086 q 565 1210 486 1183 q 735 1236 644 1236 l 735 1236 q 926 1197 840 1236 q 1075 1086 1013 1158 q 1171 913 1138 1014 q 1204 686 1204 811 l 1204 686 q 1186 505 1204 593 q 1133 337 1168 417 q 1047 191 1097 257 q 931 76 996 125 q 788 1 865 28 q 621 -26 710 -26 z m 625 49 l 625 49 q 766 72 700 49 q 888 139 832 96 q 988 241 944 182 q 1061 371 1031 300 q 1108 521 1092 442 q 1124 683 1124 600 l 1124 683 q 1096 885 1124 796 q 1015 1035 1068 974 q 890 1130 963 1097 q 731 1163 818 1163 l 731 1163 q 589 1140 656 1163 q 466 1074 522 1117 q 366 974 410 1032 q 291 845 322 915 q 244 697 260 775 q 228 535 228 618 l 228 535 q 257 331 228 421 q 338 177 286 240 q 463 81 390 114 q 625 49 536 49 z m 0 -521 l 0 -507 l 1285 -507 l 1285 -521 l 0 -521 z m 0 0 l 0 28 l 1285 28 l 1285 0 l 0 0 z m 0 694 l 0 701 l 1285 701 l 1285 694 l 0 694 z m 0 1215 l 0 1229 l 1285 1229 l 1285 1215 l 0 1215 z "},"R":{"ha":964,"x_min":0,"x_max":964,"o":"m 190 -19 l 190 -19 q 162 -13 171 -19 q 154 8 153 -7 l 154 8 l 303 1189 q 315 1209 306 1203 q 344 1215 325 1215 l 344 1215 l 563 1215 q 776 1189 692 1215 q 903 1105 861 1163 q 944 951 944 1047 l 944 951 q 924 831 944 885 q 863 735 903 778 q 772 662 824 693 q 657 610 719 631 q 525 577 594 589 q 383 560 456 565 l 383 560 q 528 382 451 471 q 688 207 604 293 q 861 38 772 121 l 861 38 q 873 16 872 28 q 857 -11 874 4 l 857 -11 q 831 -22 843 -24 q 806 -7 818 -19 l 806 -7 q 622 172 711 79 q 452 362 533 265 q 299 553 371 458 l 299 553 l 231 7 q 219 -13 228 -7 q 190 -19 211 -19 z m 374 1146 l 308 621 q 420 627 364 622 q 531 643 476 632 q 635 672 586 654 q 727 715 685 690 q 801 774 769 740 q 849 852 832 808 q 867 950 867 896 l 867 950 q 834 1065 867 1022 q 735 1127 801 1108 q 564 1146 668 1146 l 564 1146 l 374 1146 z m 0 -521 l 0 -507 l 964 -507 l 964 -521 l 0 -521 z m 0 0 l 0 28 l 964 28 l 964 0 l 0 0 z m 0 694 l 0 701 l 964 701 l 964 694 l 0 694 z m 0 1215 l 0 1229 l 964 1229 l 964 1215 l 0 1215 z "},"S":{"ha":956,"x_min":0,"x_max":956,"o":"m 456 -26 l 456 -26 q 340 -13 394 -26 q 239 22 285 0 q 156 74 193 44 q 94 136 119 103 l 94 136 q 85 160 83 150 q 100 182 86 169 l 100 182 q 124 193 114 194 q 147 178 133 192 l 147 178 q 225 113 179 143 q 328 66 271 83 q 456 49 386 49 l 456 49 q 585 67 528 49 q 685 120 643 85 q 749 206 726 156 q 771 319 771 256 l 771 319 q 751 417 771 376 q 694 488 731 457 q 610 542 658 518 q 507 592 563 567 l 507 592 q 418 634 461 613 q 338 683 375 656 q 272 745 300 710 q 227 826 243 781 q 211 932 211 872 l 211 932 q 238 1059 211 1003 q 312 1155 264 1115 q 424 1215 360 1194 q 563 1236 488 1236 l 563 1236 q 694 1217 635 1236 q 803 1166 754 1199 q 888 1092 851 1133 l 888 1092 q 898 1070 899 1081 q 885 1047 897 1060 l 885 1047 q 861 1037 872 1038 q 838 1046 850 1036 l 838 1046 q 763 1107 803 1081 q 674 1148 722 1133 q 563 1163 625 1163 l 563 1163 q 450 1147 500 1163 q 365 1100 400 1131 q 310 1027 329 1069 q 290 932 290 985 l 290 932 q 309 835 290 875 q 361 765 328 794 q 440 710 394 735 q 539 663 486 686 l 539 663 q 653 608 597 636 q 753 542 708 579 q 825 451 799 504 q 851 321 851 397 l 851 321 q 823 180 851 243 q 742 70 794 117 q 616 -1 689 24 q 456 -26 543 -26 z m 0 -521 l 0 -507 l 956 -507 l 956 -521 l 0 -521 z m 0 0 l 0 28 l 956 28 l 956 0 l 0 0 z m 0 694 l 0 701 l 956 701 l 956 694 l 0 694 z m 0 1215 l 0 1229 l 956 1229 l 956 1215 l 0 1215 z "},"T":{"ha":958,"x_min":0,"x_max":1035,"o":"m 436 -19 l 436 -19 q 401 7 399 -19 l 401 7 l 544 1146 l 158 1146 q 140 1154 146 1146 q 138 1182 135 1163 l 138 1182 q 147 1208 140 1200 q 167 1215 154 1215 l 167 1215 l 1011 1215 q 1030 1208 1025 1215 q 1032 1182 1035 1200 l 1032 1182 q 1024 1154 1031 1163 q 1003 1146 1017 1146 l 1003 1146 l 621 1146 l 476 7 q 466 -13 475 -7 q 436 -19 457 -19 z m 0 -521 l 0 -507 l 958 -507 l 958 -521 l 0 -521 z m 0 0 l 0 28 l 958 28 l 958 0 l 0 0 z m 0 694 l 0 701 l 958 701 l 958 694 l 0 694 z m 0 1215 l 0 1229 l 958 1229 l 958 1215 l 0 1215 z "},"V":{"ha":1007,"x_min":0,"x_max":1083,"o":"m 468 -19 l 468 -19 q 440 -12 449 -19 q 426 15 431 -4 l 426 15 l 147 1196 q 150 1222 143 1213 q 176 1235 157 1231 l 176 1235 q 205 1233 196 1239 q 218 1210 214 1228 l 218 1210 l 481 97 l 1003 1210 q 1022 1234 1011 1229 q 1051 1235 1032 1239 l 1051 1235 q 1078 1219 1072 1231 q 1075 1193 1083 1208 l 1075 1193 l 517 13 q 499 -12 508 -6 q 468 -19 489 -19 z m 0 -521 l 0 -507 l 1007 -507 l 1007 -521 l 0 -521 z m 0 0 l 0 28 l 1007 28 l 1007 0 l 0 0 z m 0 694 l 0 701 l 1007 701 l 1007 694 l 0 694 z m 0 1215 l 0 1229 l 1007 1229 l 1007 1215 l 0 1215 z "},"W":{"ha":1667,"x_min":0,"x_max":1743,"o":"m 414 -19 l 414 -19 q 385 -12 394 -19 q 372 15 375 -4 l 372 15 l 146 1196 q 150 1222 143 1213 q 176 1235 157 1231 l 176 1235 q 206 1233 196 1238 q 218 1210 215 1228 l 218 1210 l 426 104 l 894 1204 q 913 1229 903 1222 q 942 1236 922 1236 l 942 1236 q 972 1229 964 1236 q 985 1204 981 1222 l 985 1204 l 1204 104 l 1664 1210 q 1683 1233 1672 1228 q 1711 1235 1694 1238 l 1711 1235 q 1738 1220 1732 1231 q 1735 1193 1743 1210 l 1735 1193 l 1240 13 q 1223 -12 1233 -6 q 1192 -19 1213 -19 l 1192 -19 q 1163 -12 1172 -19 q 1150 15 1154 -4 l 1150 15 l 931 1110 l 463 13 q 445 -12 456 -6 q 414 -19 435 -19 z m 0 -521 l 0 -507 l 1667 -507 l 1667 -521 l 0 -521 z m 0 0 l 0 28 l 1667 28 l 1667 0 l 0 0 z m 0 694 l 0 701 l 1667 701 l 1667 694 l 0 694 z m 0 1215 l 0 1229 l 1667 1229 l 1667 1215 l 0 1215 z "},"X":{"ha":956,"x_min":0,"x_max":982,"o":"m 826 -14 l 826 -14 q 797 -17 808 -21 q 778 1 786 -14 l 778 1 l 503 556 l 92 -3 q 69 -18 81 -17 q 42 -11 58 -19 l 42 -11 q 27 1 32 -6 q 24 16 22 8 q 32 33 25 24 l 32 33 l 469 625 l 192 1186 q 190 1213 185 1203 q 213 1232 194 1224 l 213 1232 q 240 1236 229 1239 q 258 1217 250 1233 l 258 1217 l 522 685 l 915 1219 q 937 1235 926 1233 q 963 1229 947 1238 l 963 1229 q 978 1217 974 1224 q 981 1201 982 1210 q 972 1183 981 1193 l 972 1183 l 556 617 l 843 32 q 847 4 851 15 q 826 -14 842 -7 z m 0 -521 l 0 -507 l 956 -507 l 956 -521 l 0 -521 z m 0 0 l 0 28 l 956 28 l 956 0 l 0 0 z m 0 694 l 0 701 l 956 701 l 956 694 l 0 694 z m 0 1215 l 0 1229 l 956 1229 l 956 1215 l 0 1215 z "},"Y":{"ha":851,"x_min":0,"x_max":947,"o":"m 376 -19 l 376 -19 q 343 7 339 -19 l 343 7 l 410 529 l 128 1192 q 128 1218 122 1208 q 153 1233 135 1228 l 153 1233 q 181 1233 172 1238 q 197 1211 189 1229 l 197 1211 l 454 604 l 867 1211 q 892 1235 882 1231 q 921 1232 903 1239 l 921 1232 q 943 1215 939 1225 q 938 1189 947 1204 l 938 1189 l 485 529 l 419 7 q 376 -19 415 -19 z m 0 -521 l 0 -507 l 851 -507 l 851 -521 l 0 -521 z m 0 0 l 0 28 l 851 28 l 851 0 l 0 0 z m 0 694 l 0 701 l 851 701 l 851 694 l 0 694 z m 0 1215 l 0 1229 l 851 1229 l 851 1215 l 0 1215 z "},"Z":{"ha":851,"x_min":-14,"x_max":908,"o":"m 754 0 l 13 0 q -6 8 1 0 q -13 26 -12 15 q -7 47 -14 38 l -7 47 l 790 1146 l 189 1146 q 172 1154 176 1146 q 168 1182 167 1163 l 168 1182 q 178 1208 171 1200 q 197 1215 185 1215 l 197 1215 l 876 1215 q 901 1199 894 1215 q 896 1168 908 1183 l 896 1168 l 100 69 l 763 69 q 780 62 775 69 q 783 36 785 54 l 783 36 q 774 8 782 17 q 754 0 767 0 l 754 0 z m 0 -521 l 0 -507 l 851 -507 l 851 -521 l 0 -521 z m 0 0 l 0 28 l 851 28 l 851 0 l 0 0 z m 0 694 l 0 701 l 851 701 l 851 694 l 0 694 z m 0 1215 l 0 1229 l 851 1229 l 851 1215 l 0 1215 z "},"Æ":{"ha":1339,"x_min":-14,"x_max":1382,"o":"m 1208 0 l 1208 0 l 682 0 q 653 8 663 0 q 646 32 644 15 l 646 32 l 714 574 l 424 574 l 61 1 q 39 -18 51 -15 q 8 -15 26 -21 l 8 -15 q -10 4 -7 -7 q -4 31 -14 15 l -4 31 l 732 1188 q 751 1210 742 1204 q 782 1215 761 1215 l 782 1215 l 1360 1215 q 1377 1207 1372 1215 q 1381 1181 1382 1199 l 1381 1181 q 1371 1154 1378 1163 q 1351 1146 1364 1146 l 1351 1146 l 861 1146 l 799 643 l 1203 643 q 1218 635 1213 643 q 1221 608 1224 626 l 1221 608 q 1211 581 1218 589 q 1194 574 1204 574 l 1194 574 l 790 574 l 728 69 l 1215 69 q 1233 61 1229 69 q 1236 35 1238 53 l 1236 35 q 1226 8 1233 17 q 1208 0 1219 0 z m 786 1146 l 467 643 l 722 643 l 786 1146 z m 0 -521 l 0 -507 l 1339 -507 l 1339 -521 l 0 -521 z m 0 0 l 0 28 l 1339 28 l 1339 0 l 0 0 z m 0 694 l 0 701 l 1339 701 l 1339 694 l 0 694 z m 0 1215 l 0 1229 l 1339 1229 l 1339 1215 l 0 1215 z "},"Ð":{"ha":1207,"x_min":0,"x_max":1207,"o":"m 403 0 l 192 0 q 157 26 154 0 l 157 26 l 303 1189 q 315 1209 306 1203 q 344 1215 325 1215 l 344 1215 l 594 1215 q 812 1184 714 1215 q 981 1092 910 1153 q 1090 940 1051 1031 q 1128 732 1128 850 l 1128 732 q 1097 497 1128 608 q 1005 295 1065 386 q 856 138 944 204 q 654 36 768 72 q 403 0 540 0 l 403 0 z m 374 1143 l 239 72 l 403 72 q 624 104 524 72 q 803 194 725 136 q 936 335 882 253 q 1018 517 990 417 q 1046 732 1046 618 l 1046 732 q 1012 917 1046 839 q 917 1044 978 994 q 773 1119 856 1094 q 593 1143 690 1143 l 593 1143 l 374 1143 z m 603 578 l 103 578 q 82 587 86 578 q 79 610 78 596 l 79 610 q 87 634 81 625 q 110 643 93 643 l 110 643 l 608 643 q 630 633 626 643 q 633 610 633 624 l 633 610 q 624 586 631 594 q 603 578 618 578 l 603 578 z m 0 -521 l 0 -507 l 1207 -507 l 1207 -521 l 0 -521 z m 0 0 l 0 28 l 1207 28 l 1207 0 l 0 0 z m 0 694 l 0 701 l 1207 701 l 1207 694 l 0 694 z m 0 1215 l 0 1229 l 1207 1229 l 1207 1215 l 0 1215 z "},"Ĳ":{"ha":1372,"x_min":0,"x_max":1372,"o":"m 189 -19 l 189 -19 q 161 -13 169 -19 q 154 8 153 -7 l 154 8 l 304 1210 q 316 1230 307 1224 q 346 1236 325 1236 l 346 1236 q 374 1230 365 1236 q 381 1210 383 1224 l 381 1210 l 231 7 q 220 -13 229 -7 q 189 -19 211 -19 z m 858 -26 l 858 -26 q 717 2 782 -26 q 603 85 651 31 q 535 215 556 139 l 535 215 q 536 242 529 233 q 557 254 543 250 l 557 254 q 585 255 575 260 q 603 232 596 250 l 603 232 q 658 133 624 174 q 742 70 692 92 q 860 49 792 49 l 860 49 q 943 60 906 49 q 1011 95 981 71 q 1064 158 1042 119 q 1102 250 1086 196 q 1128 375 1118 304 l 1128 375 l 1233 1210 q 1245 1230 1235 1224 q 1275 1236 1256 1236 l 1275 1236 q 1303 1230 1296 1236 q 1310 1210 1311 1224 l 1310 1210 l 1206 378 q 1174 227 1194 293 q 1123 113 1153 161 q 1054 34 1093 65 q 966 -12 1015 3 q 858 -26 917 -26 z m 0 -521 l 0 -507 l 1372 -507 l 1372 -521 l 0 -521 z m 0 0 l 0 28 l 1372 28 l 1372 0 l 0 0 z m 0 694 l 0 701 l 1372 701 l 1372 694 l 0 694 z m 0 1215 l 0 1229 l 1372 1229 l 1372 1215 l 0 1215 z "},"Ŋ":{"ha":1232,"x_min":0,"x_max":1232,"o":"m 1144 1210 l 969 -168 q 941 -276 961 -235 q 888 -336 921 -318 q 808 -354 856 -354 l 808 -354 q 716 -330 758 -354 q 644 -268 674 -306 l 644 -268 q 638 -244 636 -256 q 654 -221 639 -232 l 654 -221 q 680 -210 668 -208 q 701 -224 692 -212 l 701 -224 q 734 -256 717 -242 q 771 -278 751 -271 q 811 -286 790 -286 l 811 -286 q 856 -274 839 -286 q 881 -234 872 -261 q 896 -162 890 -207 l 896 -162 l 917 1 l 368 1089 l 231 7 q 219 -13 229 -7 q 189 -19 210 -19 l 189 -19 q 154 7 151 -19 l 154 7 l 306 1210 q 317 1230 307 1224 q 344 1236 326 1236 l 344 1236 q 370 1231 361 1236 q 386 1214 379 1226 l 386 1214 l 932 133 l 1068 1210 q 1081 1230 1071 1224 q 1110 1236 1090 1236 l 1110 1236 q 1144 1210 1147 1236 l 1144 1210 z m 0 -521 l 0 -507 l 1232 -507 l 1232 -521 l 0 -521 z m 0 0 l 0 28 l 1232 28 l 1232 0 l 0 0 z m 0 694 l 0 701 l 1232 701 l 1232 694 l 0 694 z m 0 1215 l 0 1229 l 1232 1229 l 1232 1215 l 0 1215 z "},"Œ":{"ha":1775,"x_min":0,"x_max":1818,"o":"m 596 -26 l 596 -26 q 411 13 494 -26 q 269 124 328 51 q 178 299 210 196 q 146 528 146 401 l 146 528 q 164 707 146 619 q 216 874 182 794 q 299 1019 250 954 q 412 1134 349 1085 q 551 1210 475 1183 q 715 1236 626 1236 l 715 1236 q 902 1197 819 1236 q 1042 1085 985 1157 q 1130 911 1100 1013 q 1160 686 1160 810 l 1160 686 q 1143 507 1160 594 q 1093 339 1126 419 q 1011 192 1060 258 q 900 77 963 126 q 761 1 838 28 q 596 -26 685 -26 z m 601 49 l 601 49 q 742 72 676 49 q 862 139 807 96 q 960 241 917 182 q 1033 371 1003 300 q 1078 521 1063 442 q 1094 683 1094 600 l 1094 683 q 1067 885 1094 796 q 990 1035 1040 974 q 869 1130 940 1097 q 711 1163 799 1163 l 711 1163 q 574 1139 639 1163 q 456 1072 510 1115 q 360 971 403 1029 q 288 842 318 913 q 243 693 258 772 q 228 531 228 614 l 228 531 q 253 327 228 417 q 328 175 279 238 q 447 81 378 113 q 601 49 515 49 z m 1644 0 l 1049 0 q 1020 8 1029 0 q 1013 32 1011 15 l 1013 32 l 1158 1189 q 1169 1209 1160 1203 q 1199 1215 1179 1215 l 1199 1215 l 1796 1215 q 1813 1207 1808 1215 q 1817 1181 1818 1199 l 1817 1181 q 1808 1154 1815 1163 q 1788 1146 1800 1146 l 1788 1146 l 1228 1146 l 1169 678 l 1640 678 q 1658 669 1654 678 q 1661 643 1663 661 l 1661 643 q 1653 616 1660 624 q 1633 608 1646 608 l 1633 608 l 1161 608 l 1093 69 l 1651 69 q 1669 61 1664 69 q 1672 35 1674 53 l 1672 35 q 1663 8 1671 17 q 1644 0 1656 0 l 1644 0 z m 0 -521 l 0 -507 l 1775 -507 l 1775 -521 l 0 -521 z m 0 0 l 0 28 l 1775 28 l 1775 0 l 0 0 z m 0 694 l 0 701 l 1775 701 l 1775 694 l 0 694 z m 0 1215 l 0 1229 l 1775 1229 l 1775 1215 l 0 1215 z "},"Þ":{"ha":1007,"x_min":0,"x_max":1007,"o":"m 190 -19 l 190 -19 q 162 -13 171 -19 q 154 8 153 -7 l 154 8 l 307 1210 q 318 1230 308 1224 q 347 1236 328 1236 l 347 1236 q 376 1230 367 1236 q 382 1210 385 1224 l 382 1210 l 361 1047 l 575 1047 q 788 1019 701 1047 q 917 928 874 990 q 961 763 961 865 l 961 763 q 925 594 961 667 q 825 472 889 522 q 674 392 761 422 q 485 349 588 361 l 485 349 q 376 338 432 342 q 271 333 321 335 l 271 333 l 231 7 q 219 -13 228 -7 q 190 -19 211 -19 z m 353 978 l 281 403 q 349 405 314 403 q 419 410 383 407 q 490 418 456 414 l 490 418 q 694 474 606 433 q 833 586 783 515 q 882 760 882 657 l 882 760 q 847 887 882 839 q 744 956 813 935 q 572 978 675 978 l 572 978 l 353 978 z m 0 -521 l 0 -507 l 1007 -507 l 1007 -521 l 0 -521 z m 0 0 l 0 28 l 1007 28 l 1007 0 l 0 0 z m 0 694 l 0 701 l 1007 701 l 1007 694 l 0 694 z m 0 1215 l 0 1229 l 1007 1229 l 1007 1215 l 0 1215 z "},"ẞ":{"ha":1233,"x_min":0,"x_max":1233,"o":"m 703 -26 l 703 -26 q 604 -18 651 -26 q 515 6 557 -10 q 433 44 474 22 l 433 44 q 412 65 415 54 q 418 93 408 76 l 418 93 q 438 114 428 110 q 468 108 449 118 l 468 108 q 542 75 506 89 q 619 55 578 61 q 707 49 660 49 l 707 49 q 814 66 761 49 q 908 119 867 83 q 976 206 950 154 q 1001 329 1001 258 l 1001 329 q 985 432 1001 386 q 940 515 968 478 q 878 585 913 553 q 806 649 843 618 q 735 710 769 679 q 672 774 700 740 q 628 849 644 808 q 611 939 611 889 l 611 939 q 630 1030 611 988 q 682 1105 649 1072 q 758 1160 715 1138 l 758 1160 q 553 1100 635 1143 q 423 995 472 1057 q 349 858 374 933 q 313 697 324 782 l 313 697 l 224 10 q 213 -12 222 -6 q 182 -18 203 -18 l 182 -18 q 154 -12 163 -18 q 147 10 146 -6 l 147 10 l 236 694 q 274 869 249 788 q 349 1019 300 951 q 474 1135 397 1086 q 663 1209 550 1183 q 933 1235 776 1235 l 933 1235 l 971 1235 q 993 1227 988 1235 q 996 1200 999 1219 l 996 1200 q 987 1173 994 1181 q 963 1165 979 1165 l 963 1165 q 851 1149 901 1165 q 765 1104 801 1133 q 710 1035 729 1075 q 690 949 690 996 l 690 949 q 707 870 690 906 q 751 803 724 835 q 814 743 779 772 q 885 683 849 714 q 957 618 922 653 q 1019 542 992 583 q 1064 448 1047 500 q 1081 331 1081 396 l 1081 331 q 1049 179 1081 246 q 965 67 1018 113 q 844 -3 913 21 q 703 -26 776 -26 z m 0 -521 l 0 -507 l 1233 -507 l 1233 -521 l 0 -521 z m 0 0 l 0 28 l 1233 28 l 1233 0 l 0 0 z m 0 694 l 0 701 l 1233 701 l 1233 694 l 0 694 z m 0 1215 l 0 1229 l 1233 1229 l 1233 1215 l 0 1215 z "},"ŋ":{"ha":851,"x_min":0,"x_max":851,"o":"m 724 481 l 640 -172 q 612 -278 632 -237 q 560 -336 592 -318 q 481 -354 528 -354 l 481 -354 q 388 -330 431 -354 q 315 -268 344 -306 l 315 -268 q 308 -244 307 -256 q 325 -221 310 -232 l 325 -221 q 351 -210 339 -208 q 372 -224 363 -212 l 372 -224 q 423 -269 396 -251 q 482 -286 450 -286 l 482 -286 q 541 -258 524 -286 q 568 -167 558 -229 l 568 -167 l 650 478 q 651 574 658 535 q 619 632 643 613 q 549 651 594 651 l 549 651 q 458 626 506 651 q 363 545 410 601 q 274 397 315 489 q 199 172 232 306 l 199 172 l 181 6 q 169 -15 179 -8 q 140 -21 160 -21 l 140 -21 q 113 -15 122 -21 q 106 7 103 -8 l 106 7 l 190 689 q 202 709 193 703 q 229 715 211 715 l 229 715 q 259 708 250 715 q 265 686 268 701 l 265 686 l 232 411 q 307 558 265 499 q 392 653 349 618 q 479 705 436 689 q 561 721 522 721 l 561 721 q 658 697 617 721 q 717 621 699 674 q 724 481 736 568 l 724 481 z m 0 -521 l 0 -507 l 851 -507 l 851 -521 l 0 -521 z m 0 0 l 0 28 l 851 28 l 851 0 l 0 0 z m 0 694 l 0 701 l 851 701 l 851 694 l 0 694 z m 0 1215 l 0 1229 l 851 1229 l 851 1215 l 0 1215 z "},"$":{"ha":928,"x_min":0,"x_max":928,"o":"m 425 -26 l 425 -26 q 310 -13 364 -26 q 209 22 256 0 q 126 74 163 44 q 64 136 90 103 l 64 136 q 56 160 54 150 q 69 182 57 169 l 69 182 q 94 193 85 194 q 117 178 104 192 l 117 178 q 195 113 150 143 q 299 66 240 83 q 426 49 357 49 l 426 49 q 556 67 497 49 q 656 120 614 85 q 719 206 697 156 q 742 319 742 256 l 742 319 q 722 417 742 376 q 665 488 701 457 q 580 542 628 518 q 476 592 532 567 l 476 592 q 389 634 432 613 q 308 683 346 656 q 242 745 271 710 q 197 826 214 781 q 181 932 181 872 l 181 932 q 207 1059 181 1003 q 281 1155 233 1115 q 394 1215 329 1194 q 533 1236 458 1236 l 533 1236 q 665 1217 606 1236 q 773 1166 725 1199 q 858 1092 821 1133 l 858 1092 q 868 1070 869 1081 q 854 1047 867 1060 l 854 1047 q 831 1037 843 1038 q 808 1046 819 1036 l 808 1046 q 733 1107 772 1081 q 644 1148 693 1133 q 532 1163 594 1163 l 532 1163 q 421 1147 471 1163 q 335 1100 371 1131 q 280 1027 299 1069 q 261 932 261 985 l 261 932 q 279 835 261 875 q 331 765 297 794 q 410 710 365 735 q 508 663 456 686 l 508 663 q 622 608 567 636 q 723 542 678 579 q 794 451 768 504 q 821 321 821 397 l 821 321 q 792 180 821 243 q 711 70 764 117 q 586 -1 658 24 q 425 -26 514 -26 z m 386 -186 l 386 -186 q 354 -160 351 -186 l 354 -160 l 550 1389 q 589 1415 553 1415 l 589 1415 q 622 1389 625 1415 l 622 1389 l 426 -160 q 386 -186 422 -186 z m 0 -521 l 0 -507 l 928 -507 l 928 -521 l 0 -521 z m 0 0 l 0 28 l 928 28 l 928 0 l 0 0 z m 0 694 l 0 701 l 928 701 l 928 694 l 0 694 z m 0 1215 l 0 1229 l 928 1229 l 928 1215 l 0 1215 z "},"€":{"ha":1056,"x_min":0,"x_max":1056,"o":"m 599 -26 l 599 -26 q 431 13 503 -26 q 312 125 360 53 q 240 298 264 197 q 215 519 215 399 l 215 519 q 233 697 215 610 q 283 864 250 783 q 362 1012 315 944 q 468 1130 408 1079 q 598 1208 528 1181 q 747 1236 668 1236 l 747 1236 q 856 1222 804 1236 q 952 1180 907 1208 q 1033 1107 997 1151 l 1033 1107 q 1044 1085 1046 1096 q 1028 1064 1042 1075 l 1028 1064 q 1003 1051 1014 1051 q 979 1064 992 1051 l 979 1064 q 909 1118 946 1096 q 831 1151 872 1140 q 744 1163 790 1163 l 744 1163 q 619 1138 678 1163 q 511 1067 561 1113 q 422 961 461 1022 q 353 828 382 900 q 310 678 325 757 q 296 521 296 600 l 296 521 q 315 325 296 413 q 372 176 335 238 q 467 81 410 114 q 600 47 525 47 l 600 47 q 685 56 643 47 q 765 83 726 65 q 838 124 804 100 q 903 176 872 147 l 903 176 q 926 190 915 189 q 951 178 938 190 l 951 178 q 965 155 965 165 q 953 132 965 144 l 953 132 q 846 44 904 79 q 725 -9 788 8 q 599 -26 663 -26 z m 826 678 l 122 678 q 108 685 113 678 q 104 711 103 692 l 104 711 q 114 738 107 731 q 132 746 121 746 l 132 746 l 835 746 q 851 739 846 746 q 854 713 857 732 l 854 713 q 844 685 851 693 q 826 678 838 678 l 826 678 z m 803 488 l 99 488 q 83 495 89 488 q 81 522 78 503 l 81 522 q 90 548 83 540 q 108 556 97 556 l 108 556 l 811 556 q 827 549 822 556 q 829 522 832 542 l 829 522 q 821 495 828 503 q 803 488 814 488 l 803 488 z m 0 -521 l 0 -507 l 1056 -507 l 1056 -521 l 0 -521 z m 0 0 l 0 28 l 1056 28 l 1056 0 l 0 0 z m 0 694 l 0 701 l 1056 701 l 1056 694 l 0 694 z m 0 1215 l 0 1229 l 1056 1229 l 1056 1215 l 0 1215 z "},"¢":{"ha":736,"x_min":0,"x_max":736,"o":"m 353 -26 l 353 -26 q 211 12 271 -26 q 119 121 151 50 q 88 290 88 192 l 88 290 q 104 425 88 361 q 151 543 121 489 q 226 637 182 597 q 324 699 269 676 q 444 721 379 721 l 444 721 q 532 708 490 721 q 608 672 574 696 q 667 618 643 649 l 667 618 q 674 597 675 607 q 658 575 672 586 l 658 575 q 636 564 647 564 q 615 574 625 564 l 615 574 q 567 616 592 599 q 511 643 542 633 q 439 653 481 653 l 439 653 q 347 635 389 653 q 271 584 304 617 q 214 506 238 551 q 178 408 190 461 q 165 294 165 354 l 165 294 q 187 161 165 218 q 252 74 208 104 q 361 42 296 43 l 361 42 q 451 60 411 42 q 526 113 492 79 q 596 186 561 146 l 596 186 q 617 196 606 197 q 639 186 628 194 l 639 186 q 653 167 650 178 q 646 143 656 157 l 646 143 q 560 51 607 89 q 460 -7 513 13 q 353 -26 408 -26 z m 318 -186 l 318 -186 q 285 -160 282 -186 l 285 -160 l 417 874 q 456 900 419 900 l 456 900 q 488 874 492 900 l 488 874 l 357 -160 q 318 -186 354 -186 z m 0 -521 l 0 -507 l 736 -507 l 736 -521 l 0 -521 z m 0 0 l 0 28 l 736 28 l 736 0 l 0 0 z m 0 694 l 0 701 l 736 701 l 736 694 l 0 694 z m 0 1215 l 0 1229 l 736 1229 l 736 1215 l 0 1215 z "},"£":{"ha":938,"x_min":0,"x_max":958,"o":"m 832 0 l 40 0 q 24 9 28 0 q 22 38 19 18 l 22 38 q 31 63 24 56 q 49 69 39 69 l 49 69 l 242 69 l 294 490 l 136 490 q 121 498 126 490 q 118 525 115 506 l 118 525 q 128 551 121 544 q 144 558 135 558 l 144 558 l 303 558 l 354 942 q 403 1100 367 1035 q 503 1201 440 1165 q 650 1236 565 1236 l 650 1236 q 813 1206 738 1236 q 944 1124 889 1175 l 944 1124 q 956 1101 954 1114 q 944 1074 958 1088 l 944 1074 q 919 1061 931 1061 q 893 1071 907 1061 l 893 1071 q 776 1141 836 1118 q 647 1164 715 1164 l 647 1164 q 497 1106 551 1164 q 428 936 442 1047 l 428 936 l 378 558 l 686 558 q 702 551 697 558 q 706 526 707 544 l 706 526 q 696 499 703 507 q 678 490 689 490 l 678 490 l 369 490 l 315 69 l 842 69 q 858 63 853 69 q 861 38 863 56 l 861 38 q 851 9 858 18 q 832 0 844 0 l 832 0 z m 0 -521 l 0 -507 l 938 -507 l 938 -521 l 0 -521 z m 0 0 l 0 28 l 938 28 l 938 0 l 0 0 z m 0 694 l 0 701 l 938 701 l 938 694 l 0 694 z m 0 1215 l 0 1229 l 938 1229 l 938 1215 l 0 1215 z "},"¥":{"ha":928,"x_min":0,"x_max":983,"o":"m 417 -19 l 417 -19 q 382 7 378 -19 l 382 7 l 421 318 l 131 318 q 115 326 121 318 q 113 351 110 333 l 113 351 q 122 378 115 371 q 139 386 129 386 l 139 386 l 429 386 l 444 507 l 154 507 q 139 515 143 507 q 136 542 135 522 l 136 542 q 146 569 139 561 q 164 576 153 576 l 164 576 l 428 576 l 164 1192 q 165 1218 158 1208 q 189 1233 171 1228 l 189 1233 q 217 1233 208 1238 q 233 1211 225 1229 l 233 1211 l 493 604 l 903 1211 q 928 1235 918 1231 q 957 1232 939 1239 l 957 1232 q 979 1215 975 1225 q 974 1189 983 1204 l 974 1189 l 556 576 l 821 576 q 837 569 832 576 q 839 542 842 563 l 839 542 q 831 515 838 524 q 811 507 824 507 l 811 507 l 521 507 l 506 386 l 797 386 q 813 379 808 386 q 815 353 818 372 l 815 353 q 807 326 814 333 q 788 318 800 318 l 788 318 l 497 318 l 457 7 q 417 -19 454 -19 z m 0 -521 l 0 -507 l 928 -507 l 928 -521 l 0 -521 z m 0 0 l 0 28 l 928 28 l 928 0 l 0 0 z m 0 694 l 0 701 l 928 701 l 928 694 l 0 694 z m 0 1215 l 0 1229 l 928 1229 l 928 1215 l 0 1215 z "},"%":{"ha":1146,"x_min":0,"x_max":1146,"o":"m 343 708 l 343 708 q 233 738 279 708 q 162 822 188 768 q 136 943 136 875 l 136 943 q 148 1031 136 988 q 181 1110 160 1074 q 233 1176 203 1147 q 303 1220 264 1204 q 388 1236 342 1236 l 388 1236 q 495 1206 450 1236 q 566 1124 540 1176 q 592 1004 592 1072 l 592 1004 q 581 918 592 961 q 549 837 569 875 q 497 770 528 799 q 428 725 467 742 q 343 708 389 708 z m 346 775 l 346 775 q 405 787 378 775 q 453 821 432 799 q 488 872 474 843 q 510 934 503 900 q 517 1001 517 968 l 517 1001 q 482 1125 517 1081 q 385 1169 447 1169 l 385 1169 q 324 1158 351 1169 q 276 1124 297 1146 q 240 1073 254 1101 q 217 1012 225 1044 q 210 944 210 979 l 210 944 q 247 821 210 867 q 346 775 283 775 z m 1057 1188 l 190 -15 q 172 -27 182 -26 q 146 -18 161 -28 l 146 -18 q 128 1 131 -8 q 133 21 125 10 l 133 21 l 1001 1225 q 1019 1237 1010 1236 q 1046 1226 1029 1238 l 1046 1226 q 1062 1208 1058 1218 q 1057 1188 1065 1199 l 1057 1188 z m 817 -26 l 817 -26 q 709 3 756 -26 q 638 87 663 33 q 613 208 613 140 l 613 208 q 624 296 613 253 q 656 376 635 339 q 708 442 678 414 q 778 485 739 469 q 863 501 817 501 l 863 501 q 970 472 925 501 q 1041 391 1015 443 q 1067 271 1067 339 l 1067 271 q 1056 183 1067 226 q 1024 102 1044 140 q 972 35 1003 64 q 903 -10 942 7 q 817 -26 864 -26 z m 821 40 l 821 40 q 881 53 854 40 q 928 88 908 65 q 963 138 949 110 q 985 200 978 167 q 993 268 993 233 l 993 268 q 958 390 993 346 q 860 435 922 435 l 860 435 q 799 422 826 435 q 751 388 772 410 q 715 339 729 367 q 692 278 700 311 q 685 210 685 244 l 685 210 q 722 86 685 132 q 821 40 758 40 z m 0 -521 l 0 -507 l 1146 -507 l 1146 -521 l 0 -521 z m 0 0 l 0 28 l 1146 28 l 1146 0 l 0 0 z m 0 694 l 0 701 l 1146 701 l 1146 694 l 0 694 z m 0 1215 l 0 1229 l 1146 1229 l 1146 1215 l 0 1215 z "},".":{"ha":435,"x_min":0,"x_max":435,"o":"m 175 -29 l 175 -29 q 128 -12 144 -29 q 111 36 111 4 l 111 36 q 130 94 111 74 q 182 115 149 115 l 182 115 q 230 99 214 115 q 246 51 246 82 l 246 51 q 228 -8 246 14 q 175 -29 210 -29 z m 0 -521 l 0 -507 l 435 -507 l 435 -521 l 0 -521 z m 0 0 l 0 28 l 435 28 l 435 0 l 0 0 z m 0 694 l 0 701 l 435 701 l 435 694 l 0 694 z m 0 1215 l 0 1229 l 435 1229 l 435 1215 l 0 1215 z "},",":{"ha":435,"x_min":0,"x_max":435,"o":"m 88 -236 l 88 -236 q 61 -226 75 -236 q 47 -204 47 -217 l 47 -204 q 51 -194 47 -200 q 60 -179 54 -187 l 60 -179 q 99 -108 85 -140 q 119 -37 113 -76 q 131 64 126 1 l 131 64 q 143 94 131 83 q 181 106 156 106 l 181 106 q 219 94 207 106 q 231 64 231 83 l 231 64 q 219 -28 231 21 q 184 -126 208 -78 q 121 -215 160 -174 l 121 -215 q 106 -230 114 -224 q 88 -236 97 -236 z m 0 -521 l 0 -507 l 435 -507 l 435 -521 l 0 -521 z m 0 0 l 0 28 l 435 28 l 435 0 l 0 0 z m 0 694 l 0 701 l 435 701 l 435 694 l 0 694 z m 0 1215 l 0 1229 l 435 1229 l 435 1215 l 0 1215 z "},":":{"ha":435,"x_min":0,"x_max":435,"o":"m 175 -29 l 175 -29 q 128 -12 144 -29 q 111 36 111 4 l 111 36 q 130 94 111 74 q 182 115 149 115 l 182 115 q 230 99 214 115 q 246 51 246 82 l 246 51 q 228 -8 246 14 q 175 -29 210 -29 z m 247 576 l 247 576 q 200 593 217 576 q 183 642 183 610 l 183 642 q 202 700 183 679 q 254 721 221 721 l 254 721 q 302 704 286 721 q 318 657 318 688 l 318 657 q 300 598 318 619 q 247 576 282 576 z m 0 -521 l 0 -507 l 435 -507 l 435 -521 l 0 -521 z m 0 0 l 0 28 l 435 28 l 435 0 l 0 0 z m 0 694 l 0 701 l 435 701 l 435 694 l 0 694 z m 0 1215 l 0 1229 l 435 1229 l 435 1215 l 0 1215 z "},";":{"ha":435,"x_min":0,"x_max":435,"o":"m 247 576 l 247 576 q 200 593 217 576 q 183 642 183 610 l 183 642 q 202 700 183 679 q 254 721 221 721 l 254 721 q 302 704 286 721 q 318 657 318 688 l 318 657 q 300 598 318 619 q 247 576 282 576 z m 90 -236 l 90 -236 q 64 -226 78 -236 q 50 -204 50 -217 l 50 -204 q 53 -194 50 -200 q 61 -179 57 -187 l 61 -179 q 100 -108 86 -140 q 122 -37 114 -76 q 132 64 129 1 l 132 64 q 146 94 133 83 q 183 106 158 106 l 183 106 q 222 94 210 106 q 233 64 233 83 l 233 64 q 222 -28 233 21 q 186 -126 210 -78 q 124 -215 163 -174 l 124 -215 q 107 -230 115 -224 q 90 -236 99 -236 z m 0 -521 l 0 -507 l 435 -507 l 435 -521 l 0 -521 z m 0 0 l 0 28 l 435 28 l 435 0 l 0 0 z m 0 694 l 0 701 l 435 701 l 435 694 l 0 694 z m 0 1215 l 0 1229 l 435 1229 l 435 1215 l 0 1215 z "},"…":{"ha":1178,"x_min":0,"x_max":1178,"o":"m 547 -29 l 547 -29 q 500 -12 517 -29 q 483 36 483 4 l 483 36 q 502 94 483 74 q 554 115 521 115 l 554 115 q 602 99 586 115 q 618 51 618 82 l 618 51 q 600 -8 618 14 q 547 -29 582 -29 z m 918 -29 l 918 -29 q 871 -12 888 -29 q 854 36 854 4 l 854 36 q 873 94 854 74 q 925 115 892 115 l 925 115 q 973 99 957 115 q 989 51 989 82 l 989 51 q 971 -8 989 14 q 918 -29 953 -29 z m 175 -29 l 175 -29 q 128 -12 144 -29 q 111 36 111 4 l 111 36 q 130 94 111 74 q 182 115 149 115 l 182 115 q 230 99 214 115 q 246 51 246 82 l 246 51 q 228 -8 246 14 q 175 -29 210 -29 z m 0 -521 l 0 -507 l 1178 -507 l 1178 -521 l 0 -521 z m 0 0 l 0 28 l 1178 28 l 1178 0 l 0 0 z m 0 694 l 0 701 l 1178 701 l 1178 694 l 0 694 z m 0 1215 l 0 1229 l 1178 1229 l 1178 1215 l 0 1215 z "},"!":{"ha":472,"x_min":0,"x_max":472,"o":"m 231 300 l 231 300 q 196 326 193 300 l 196 326 l 306 1210 q 317 1230 307 1224 q 346 1236 326 1236 l 346 1236 q 381 1210 385 1236 l 381 1210 l 271 326 q 261 307 271 314 q 231 300 251 300 z m 194 -19 l 194 -19 q 151 -3 167 -19 q 135 44 135 14 l 135 44 q 153 101 135 81 q 204 122 171 122 l 204 122 q 249 106 233 122 q 265 58 265 90 l 265 58 q 247 2 265 24 q 194 -19 229 -19 z m 0 -521 l 0 -507 l 472 -507 l 472 -521 l 0 -521 z m 0 0 l 0 28 l 472 28 l 472 0 l 0 0 z m 0 694 l 0 701 l 472 701 l 472 694 l 0 694 z m 0 1215 l 0 1229 l 472 1229 l 472 1215 l 0 1215 z "},"¡":{"ha":472,"x_min":0,"x_max":472,"o":"m 128 -540 l 128 -540 q 93 -514 90 -540 l 93 -514 l 203 369 q 215 389 204 382 q 243 396 225 396 l 243 396 q 278 369 282 396 l 278 369 l 168 -514 q 157 -534 167 -528 q 128 -540 147 -540 z m 269 574 l 269 574 q 226 590 242 574 q 210 638 210 607 l 210 638 q 228 694 210 674 q 279 715 246 715 l 279 715 q 324 699 308 715 q 339 651 340 683 l 339 651 q 321 595 339 617 q 269 574 303 574 z m 0 -521 l 0 -507 l 472 -507 l 472 -521 l 0 -521 z m 0 0 l 0 28 l 472 28 l 472 0 l 0 0 z m 0 694 l 0 701 l 472 701 l 472 694 l 0 694 z m 0 1215 l 0 1229 l 472 1229 l 472 1215 l 0 1215 z "},"?":{"ha":688,"x_min":0,"x_max":733,"o":"m 256 300 l 256 300 q 228 306 238 300 q 221 328 219 313 l 221 328 l 253 576 q 263 597 254 590 q 285 606 271 603 l 285 606 q 429 642 363 617 q 547 709 496 668 q 626 809 597 750 q 654 944 654 868 l 654 944 q 624 1065 654 1017 q 544 1140 594 1114 q 431 1165 494 1165 l 431 1165 q 329 1150 376 1165 q 242 1108 282 1135 q 164 1047 201 1082 l 164 1047 q 140 1036 151 1035 q 117 1049 128 1038 l 117 1049 q 105 1072 103 1061 q 118 1096 107 1083 l 118 1096 q 209 1170 158 1139 q 317 1219 260 1201 q 433 1236 375 1236 l 433 1236 q 585 1202 517 1236 q 693 1103 653 1168 q 733 943 733 1038 l 733 943 q 701 787 733 854 q 611 671 668 719 q 481 590 554 622 q 324 542 407 558 l 324 542 l 297 326 q 286 306 296 313 q 256 300 276 300 z m 226 -19 l 226 -19 q 183 -3 199 -19 q 167 44 167 14 l 167 44 q 185 101 167 81 q 236 122 203 122 l 236 122 q 281 106 265 122 q 297 58 297 90 l 297 58 q 279 2 297 24 q 226 -19 261 -19 z m 0 -521 l 0 -507 l 688 -507 l 688 -521 l 0 -521 z m 0 0 l 0 28 l 688 28 l 688 0 l 0 0 z m 0 694 l 0 701 l 688 701 l 688 694 l 0 694 z m 0 1215 l 0 1229 l 688 1229 l 688 1215 l 0 1215 z "},"¿":{"ha":688,"x_min":-58,"x_max":688,"o":"m 418 396 l 418 396 q 447 390 439 396 q 454 368 456 383 l 454 368 l 422 119 q 413 99 421 106 q 390 90 404 93 l 390 90 q 246 53 313 79 q 128 -13 179 28 q 49 -112 78 -54 q 21 -249 21 -171 l 21 -249 q 51 -369 21 -321 q 131 -444 81 -418 q 244 -469 182 -469 l 244 -469 q 347 -454 300 -469 q 433 -412 393 -439 q 510 -351 474 -385 l 510 -351 q 535 -340 524 -339 q 558 -353 547 -340 l 558 -353 q 569 -376 571 -365 q 557 -400 568 -387 l 557 -400 q 466 -474 517 -442 q 358 -523 415 -506 q 242 -540 300 -540 l 242 -540 q 90 -506 158 -540 q -18 -406 22 -472 q -58 -247 -58 -340 l -58 -247 q -26 -91 -58 -158 q 64 25 7 -24 q 195 106 121 74 q 351 154 269 138 l 351 154 l 378 369 q 389 390 379 383 q 418 396 399 396 z m 449 715 l 449 715 q 493 699 478 715 q 508 651 508 683 l 508 651 q 490 595 508 617 q 439 574 472 574 l 439 574 q 394 590 411 574 q 378 638 378 606 l 378 638 q 397 694 378 674 q 449 715 415 715 z m 0 -521 l 0 -507 l 688 -507 l 688 -521 l 0 -521 z m 0 0 l 0 28 l 688 28 l 688 0 l 0 0 z m 0 694 l 0 701 l 688 701 l 688 694 l 0 694 z m 0 1215 l 0 1229 l 688 1229 l 688 1215 l 0 1215 z "},"'":{"ha":235,"x_min":0,"x_max":279,"o":"m 188 904 l 188 904 q 165 914 171 904 q 160 936 158 924 l 160 936 l 178 1213 q 192 1242 179 1229 q 231 1254 204 1254 l 231 1254 q 269 1242 258 1254 q 276 1211 279 1229 l 276 1211 l 225 938 q 214 914 222 924 q 188 904 206 904 z m 0 -521 l 0 -507 l 235 -507 l 235 -521 l 0 -521 z m 0 0 l 0 28 l 235 28 l 235 0 l 0 0 z m 0 694 l 0 701 l 235 701 l 235 694 l 0 694 z m 0 1215 l 0 1229 l 235 1229 l 235 1215 l 0 1215 z "},"\"":{"ha":432,"x_min":0,"x_max":478,"o":"m 188 904 l 188 904 q 165 914 171 904 q 160 936 158 924 l 160 936 l 178 1213 q 192 1242 179 1229 q 231 1254 204 1254 l 231 1254 q 269 1242 258 1254 q 276 1211 279 1229 l 276 1211 l 225 938 q 214 914 222 924 q 188 904 206 904 z m 386 904 l 386 904 q 363 914 368 904 q 357 936 357 924 l 357 936 l 376 1213 q 389 1242 376 1229 q 428 1254 401 1254 l 428 1254 q 467 1242 457 1254 q 474 1211 478 1229 l 474 1211 l 422 938 q 411 914 419 924 q 386 904 403 904 z m 0 -521 l 0 -507 l 432 -507 l 432 -521 l 0 -521 z m 0 0 l 0 28 l 432 28 l 432 0 l 0 0 z m 0 694 l 0 701 l 432 701 l 432 694 l 0 694 z m 0 1215 l 0 1229 l 432 1229 l 432 1215 l 0 1215 z "},"‘":{"ha":276,"x_min":0,"x_max":338,"o":"m 204 897 l 204 897 q 168 910 179 897 q 157 939 157 922 l 157 939 q 163 1013 157 975 q 183 1088 169 1050 q 218 1163 197 1126 q 267 1233 239 1200 l 267 1233 q 282 1248 274 1242 q 299 1254 290 1254 l 299 1254 q 325 1244 313 1254 q 338 1222 338 1235 l 338 1222 q 334 1212 338 1218 q 326 1197 331 1206 l 326 1197 q 287 1122 301 1156 q 265 1046 272 1088 q 253 939 257 1004 l 253 939 q 240 909 251 921 q 204 897 228 897 z m 0 -521 l 0 -507 l 276 -507 l 276 -521 l 0 -521 z m 0 0 l 0 28 l 276 28 l 276 0 l 0 0 z m 0 694 l 0 701 l 276 701 l 276 694 l 0 694 z m 0 1215 l 0 1229 l 276 1229 l 276 1215 l 0 1215 z "},"’":{"ha":278,"x_min":0,"x_max":304,"o":"m 257 1254 l 257 1254 q 293 1242 282 1254 q 304 1211 304 1231 l 304 1211 q 298 1139 304 1176 q 278 1064 292 1101 q 244 990 265 1026 q 194 918 222 953 l 194 918 q 179 903 188 910 q 161 897 171 897 l 161 897 q 136 907 149 897 q 124 928 124 917 l 124 928 q 127 940 124 933 q 135 954 131 946 l 135 954 q 176 1031 161 997 q 198 1106 190 1065 q 208 1213 206 1147 l 208 1213 q 222 1243 210 1232 q 257 1254 235 1254 z m 0 -521 l 0 -507 l 278 -507 l 278 -521 l 0 -521 z m 0 0 l 0 28 l 278 28 l 278 0 l 0 0 z m 0 694 l 0 701 l 278 701 l 278 694 l 0 694 z m 0 1215 l 0 1229 l 278 1229 l 278 1215 l 0 1215 z "},"‚":{"ha":286,"x_min":-14,"x_max":286,"o":"m 25 -236 l 25 -236 q -1 -226 13 -236 q -14 -204 -14 -217 l -14 -204 q -11 -194 -14 -200 q -3 -179 -8 -187 l -3 -179 q 36 -108 22 -140 q 57 -37 50 -76 q 68 64 64 1 l 68 64 q 81 94 69 83 q 119 106 93 106 l 119 106 q 156 94 144 106 q 168 64 168 83 l 168 64 q 157 -28 168 21 q 122 -126 146 -78 q 58 -215 97 -174 l 58 -215 q 43 -230 51 -224 q 25 -236 35 -236 z m 0 -521 l 0 -507 l 286 -507 l 286 -521 l 0 -521 z m 0 0 l 0 28 l 286 28 l 286 0 l 0 0 z m 0 694 l 0 701 l 286 701 l 286 694 l 0 694 z m 0 1215 l 0 1229 l 286 1229 l 286 1215 l 0 1215 z "},"“":{"ha":496,"x_min":0,"x_max":557,"o":"m 204 897 l 204 897 q 168 910 179 897 q 157 939 157 922 l 157 939 q 163 1013 157 975 q 183 1088 169 1050 q 218 1163 197 1126 q 267 1233 239 1200 l 267 1233 q 282 1248 274 1242 q 299 1254 290 1254 l 299 1254 q 325 1244 313 1254 q 338 1222 338 1235 l 338 1222 q 334 1212 338 1218 q 326 1197 331 1206 l 326 1197 q 287 1122 301 1156 q 265 1046 272 1088 q 253 939 257 1004 l 253 939 q 240 909 251 921 q 204 897 228 897 z m 424 897 l 424 897 q 388 910 400 897 q 376 939 376 922 l 376 939 q 383 1013 376 975 q 403 1088 389 1050 q 438 1163 417 1126 q 486 1233 458 1200 l 486 1233 q 503 1248 494 1242 q 519 1254 511 1254 l 519 1254 q 544 1244 532 1254 q 557 1222 557 1235 l 557 1222 q 553 1212 557 1218 q 546 1197 550 1206 l 546 1197 q 506 1122 521 1156 q 484 1046 492 1088 q 472 939 476 1004 l 472 939 q 460 909 472 921 q 424 897 447 897 z m 0 -521 l 0 -507 l 496 -507 l 496 -521 l 0 -521 z m 0 0 l 0 28 l 496 28 l 496 0 l 0 0 z m 0 694 l 0 701 l 496 701 l 496 694 l 0 694 z m 0 1215 l 0 1229 l 496 1229 l 496 1215 l 0 1215 z "},"”":{"ha":497,"x_min":0,"x_max":525,"o":"m 478 1254 l 478 1254 q 514 1242 503 1254 q 525 1211 525 1231 l 525 1211 q 518 1139 525 1176 q 498 1064 511 1101 q 464 990 485 1026 q 414 918 443 953 l 414 918 q 399 903 407 910 q 381 897 390 897 l 381 897 q 356 907 369 897 q 343 928 343 917 l 343 928 q 347 940 343 933 q 354 954 350 946 l 354 954 q 395 1031 381 997 q 417 1106 410 1065 q 428 1213 425 1147 l 428 1213 q 442 1243 429 1232 q 478 1254 454 1254 z m 257 1254 l 257 1254 q 293 1242 282 1254 q 304 1211 304 1231 l 304 1211 q 298 1139 304 1176 q 278 1064 292 1101 q 244 990 265 1026 q 194 918 222 953 l 194 918 q 179 903 188 910 q 161 897 171 897 l 161 897 q 136 907 149 897 q 124 928 124 917 l 124 928 q 127 940 124 933 q 135 954 131 946 l 135 954 q 176 1031 161 997 q 198 1106 190 1065 q 208 1213 206 1147 l 208 1213 q 222 1243 210 1232 q 257 1254 235 1254 z m 0 -521 l 0 -507 l 497 -507 l 497 -521 l 0 -521 z m 0 0 l 0 28 l 497 28 l 497 0 l 0 0 z m 0 694 l 0 701 l 497 701 l 497 694 l 0 694 z m 0 1215 l 0 1229 l 497 1229 l 497 1215 l 0 1215 z "},"„":{"ha":506,"x_min":-14,"x_max":506,"o":"m 246 -236 l 246 -236 q 219 -226 233 -236 q 206 -204 206 -217 l 206 -204 q 209 -194 206 -200 q 217 -179 213 -187 l 217 -179 q 256 -108 242 -140 q 277 -37 269 -76 q 288 64 285 1 l 288 64 q 301 94 289 83 q 339 106 314 106 l 339 106 q 376 94 365 106 q 388 64 388 83 l 388 64 q 376 -28 388 21 q 341 -126 365 -78 q 278 -215 317 -174 l 278 -215 q 263 -230 271 -224 q 246 -236 254 -236 z m 25 -236 l 25 -236 q -1 -226 13 -236 q -14 -204 -14 -217 l -14 -204 q -11 -194 -14 -200 q -3 -179 -8 -187 l -3 -179 q 36 -108 22 -140 q 57 -37 50 -76 q 68 64 64 1 l 68 64 q 81 94 69 83 q 119 106 93 106 l 119 106 q 156 94 144 106 q 168 64 168 83 l 168 64 q 157 -28 168 21 q 122 -126 146 -78 q 58 -215 97 -174 l 58 -215 q 43 -230 51 -224 q 25 -236 35 -236 z m 0 -521 l 0 -507 l 506 -507 l 506 -521 l 0 -521 z m 0 0 l 0 28 l 506 28 l 506 0 l 0 0 z m 0 694 l 0 701 l 506 701 l 506 694 l 0 694 z m 0 1215 l 0 1229 l 506 1229 l 506 1215 l 0 1215 z "},"«":{"ha":1007,"x_min":0,"x_max":1007,"o":"m 414 -19 l 414 -19 q 391 -13 400 -19 q 374 4 382 -7 l 374 4 l 176 303 q 158 329 164 319 q 153 346 153 339 l 153 346 q 160 366 153 356 q 186 394 168 376 l 186 394 l 460 693 q 483 711 471 706 q 507 713 494 717 l 507 713 q 530 704 521 711 q 540 688 539 697 q 531 664 542 678 l 531 664 l 236 343 l 444 32 q 448 -5 460 10 q 414 -19 436 -19 z m 761 -19 l 761 -19 q 738 -13 747 -19 q 721 4 729 -7 l 721 4 l 524 303 q 506 329 511 319 q 500 346 500 339 l 500 346 q 508 366 500 356 q 533 394 515 376 l 533 394 l 807 693 q 830 711 818 706 q 854 713 842 717 l 854 713 q 877 704 868 711 q 888 688 886 697 q 878 664 889 678 l 878 664 l 583 343 l 792 32 q 795 -5 807 10 q 761 -19 783 -19 z m 0 -521 l 0 -507 l 1007 -507 l 1007 -521 l 0 -521 z m 0 0 l 0 28 l 1007 28 l 1007 0 l 0 0 z m 0 694 l 0 701 l 1007 701 l 1007 694 l 0 694 z m 0 1215 l 0 1229 l 1007 1229 l 1007 1215 l 0 1215 z "},"»":{"ha":1007,"x_min":0,"x_max":1007,"o":"m 153 -18 l 153 -18 q 130 -9 139 -17 q 119 9 121 -1 q 129 32 118 19 l 129 32 l 424 353 l 215 664 q 212 701 200 686 q 246 715 224 715 l 246 715 q 268 709 258 715 q 285 692 278 703 l 285 692 l 485 394 q 502 368 497 378 q 507 350 507 358 l 507 350 q 499 331 507 342 q 475 303 492 321 l 475 303 l 201 4 q 178 -15 190 -8 q 153 -18 167 -21 z m 500 -18 l 500 -18 q 477 -9 486 -17 q 467 9 468 -1 q 476 32 465 19 l 476 32 l 771 353 l 563 664 q 559 701 547 686 q 593 715 571 715 l 593 715 q 615 709 606 715 q 632 692 625 703 l 632 692 l 832 394 q 849 368 844 378 q 854 350 854 358 l 854 350 q 847 331 854 342 q 822 303 839 321 l 822 303 l 549 4 q 526 -15 538 -8 q 500 -18 514 -21 z m 0 -521 l 0 -507 l 1007 -507 l 1007 -521 l 0 -521 z m 0 0 l 0 28 l 1007 28 l 1007 0 l 0 0 z m 0 694 l 0 701 l 1007 701 l 1007 694 l 0 694 z m 0 1215 l 0 1229 l 1007 1229 l 1007 1215 l 0 1215 z "},"‹":{"ha":660,"x_min":0,"x_max":660,"o":"m 414 -19 l 414 -19 q 391 -13 400 -19 q 374 4 382 -7 l 374 4 l 176 303 q 158 329 164 319 q 153 346 153 339 l 153 346 q 160 366 153 356 q 186 394 168 376 l 186 394 l 460 693 q 483 711 471 706 q 507 713 494 717 l 507 713 q 530 704 521 711 q 540 688 539 697 q 531 664 542 678 l 531 664 l 236 343 l 444 32 q 448 -5 460 10 q 414 -19 436 -19 z m 0 -521 l 0 -507 l 660 -507 l 660 -521 l 0 -521 z m 0 0 l 0 28 l 660 28 l 660 0 l 0 0 z m 0 694 l 0 701 l 660 701 l 660 694 l 0 694 z m 0 1215 l 0 1229 l 660 1229 l 660 1215 l 0 1215 z "},"›":{"ha":660,"x_min":0,"x_max":660,"o":"m 153 -18 l 153 -18 q 130 -9 139 -17 q 119 9 121 -1 q 129 32 118 19 l 129 32 l 424 353 l 215 664 q 212 701 200 686 q 246 715 224 715 l 246 715 q 268 709 258 715 q 285 692 278 703 l 285 692 l 485 394 q 502 368 497 378 q 507 350 507 358 l 507 350 q 499 331 507 342 q 475 303 492 321 l 475 303 l 201 4 q 178 -15 190 -8 q 153 -18 167 -21 z m 0 -521 l 0 -507 l 660 -507 l 660 -521 l 0 -521 z m 0 0 l 0 28 l 660 28 l 660 0 l 0 0 z m 0 694 l 0 701 l 660 701 l 660 694 l 0 694 z m 0 1215 l 0 1229 l 660 1229 l 660 1215 l 0 1215 z "},"Á":{"ha":1043,"x_min":-7,"x_max":1043,"o":"m 28 -18 l 28 -18 q -1 -6 6 -17 q 1 25 -7 6 l 1 25 l 572 1204 q 590 1229 579 1222 q 621 1236 600 1236 l 621 1236 q 649 1228 640 1236 q 663 1201 658 1221 l 663 1201 l 958 21 q 955 -6 963 4 q 926 -18 947 -17 l 926 -18 q 899 -14 907 -21 q 885 14 890 -7 l 885 14 l 800 358 l 243 358 l 76 14 q 57 -14 67 -7 q 28 -18 47 -21 z m 610 1121 l 276 428 l 782 428 l 610 1121 z m 554 1304 l 554 1304 q 532 1317 544 1304 q 519 1338 519 1329 l 519 1338 q 520 1346 519 1342 q 526 1356 521 1350 l 526 1356 l 740 1556 q 751 1565 747 1561 q 761 1568 756 1568 l 761 1568 q 781 1560 771 1568 q 799 1542 792 1553 q 807 1522 807 1532 l 807 1522 q 806 1513 807 1517 q 797 1501 804 1508 l 797 1501 l 572 1314 q 563 1307 567 1310 q 554 1304 558 1304 z m 0 -521 l 0 -507 l 1043 -507 l 1043 -521 l 0 -521 z m 0 0 l 0 28 l 1043 28 l 1043 0 l 0 0 z m 0 694 l 0 701 l 1043 701 l 1043 694 l 0 694 z m 0 1215 l 0 1229 l 1043 1229 l 1043 1215 l 0 1215 z "},"Ă":{"ha":1043,"x_min":-7,"x_max":1043,"o":"m 28 -18 l 28 -18 q -1 -6 6 -17 q 1 25 -7 6 l 1 25 l 572 1204 q 590 1229 579 1222 q 621 1236 600 1236 l 621 1236 q 649 1228 640 1236 q 663 1201 658 1221 l 663 1201 l 958 21 q 955 -6 963 4 q 926 -18 947 -17 l 926 -18 q 899 -14 907 -21 q 885 14 890 -7 l 885 14 l 800 358 l 243 358 l 76 14 q 57 -14 67 -7 q 28 -18 47 -21 z m 610 1121 l 276 428 l 782 428 l 610 1121 z m 628 1306 l 628 1306 q 472 1365 529 1306 q 417 1540 414 1424 l 417 1540 q 426 1562 418 1554 q 451 1569 435 1569 l 451 1569 q 474 1562 467 1569 q 482 1540 481 1554 l 482 1540 q 523 1422 483 1460 q 631 1383 563 1383 l 631 1383 q 754 1423 706 1383 q 817 1540 803 1463 l 817 1540 q 828 1563 821 1556 q 850 1569 835 1569 l 850 1569 q 876 1561 868 1569 q 883 1540 885 1553 l 883 1540 q 837 1409 872 1461 q 749 1331 801 1357 q 628 1306 696 1306 z m 0 -521 l 0 -507 l 1043 -507 l 1043 -521 l 0 -521 z m 0 0 l 0 28 l 1043 28 l 1043 0 l 0 0 z m 0 694 l 0 701 l 1043 701 l 1043 694 l 0 694 z m 0 1215 l 0 1229 l 1043 1229 l 1043 1215 l 0 1215 z "},"Ǎ":{"ha":1043,"x_min":-7,"x_max":1043,"o":"m 28 -18 l 28 -18 q -1 -6 6 -17 q 1 25 -7 6 l 1 25 l 572 1204 q 590 1229 579 1222 q 621 1236 600 1236 l 621 1236 q 649 1228 640 1236 q 663 1201 658 1221 l 663 1201 l 958 21 q 955 -6 963 4 q 926 -18 947 -17 l 926 -18 q 899 -14 907 -21 q 885 14 890 -7 l 885 14 l 800 358 l 243 358 l 76 14 q 57 -14 67 -7 q 28 -18 47 -21 z m 610 1121 l 276 428 l 782 428 l 610 1121 z m 860 1568 l 860 1568 q 882 1558 872 1568 q 892 1536 892 1547 l 892 1536 q 890 1526 892 1531 q 882 1517 888 1522 l 882 1517 l 661 1321 q 642 1309 650 1314 q 622 1304 635 1304 l 622 1304 q 603 1309 611 1304 q 588 1322 596 1314 l 588 1322 l 403 1518 q 397 1529 399 1524 q 396 1538 396 1535 l 396 1538 q 407 1559 396 1550 q 428 1568 418 1568 l 428 1568 q 441 1565 436 1568 q 453 1556 446 1561 l 453 1556 l 628 1394 l 835 1556 q 848 1565 843 1561 q 860 1568 853 1568 z m 0 -521 l 0 -507 l 1043 -507 l 1043 -521 l 0 -521 z m 0 0 l 0 28 l 1043 28 l 1043 0 l 0 0 z m 0 694 l 0 701 l 1043 701 l 1043 694 l 0 694 z m 0 1215 l 0 1229 l 1043 1229 l 1043 1215 l 0 1215 z "},"Â":{"ha":1043,"x_min":-7,"x_max":1043,"o":"m 28 -18 l 28 -18 q -1 -6 6 -17 q 1 25 -7 6 l 1 25 l 572 1204 q 590 1229 579 1222 q 621 1236 600 1236 l 621 1236 q 649 1228 640 1236 q 663 1201 658 1221 l 663 1201 l 958 21 q 955 -6 963 4 q 926 -18 947 -17 l 926 -18 q 899 -14 907 -21 q 885 14 890 -7 l 885 14 l 800 358 l 243 358 l 76 14 q 57 -14 67 -7 q 28 -18 47 -21 z m 610 1121 l 276 428 l 782 428 l 610 1121 z m 413 1304 l 413 1304 q 392 1315 403 1304 q 382 1336 382 1325 l 382 1336 q 384 1347 382 1342 q 392 1356 386 1351 l 392 1356 l 614 1550 q 632 1564 624 1560 q 651 1568 640 1568 l 651 1568 q 670 1563 663 1568 q 686 1550 678 1558 l 686 1550 l 871 1354 q 876 1344 875 1349 q 878 1335 878 1339 l 878 1335 q 867 1313 878 1322 q 846 1304 857 1304 l 846 1304 q 833 1308 839 1304 q 821 1317 828 1311 l 821 1317 l 646 1479 l 439 1315 q 426 1307 432 1310 q 413 1304 419 1304 z m 0 -521 l 0 -507 l 1043 -507 l 1043 -521 l 0 -521 z m 0 0 l 0 28 l 1043 28 l 1043 0 l 0 0 z m 0 694 l 0 701 l 1043 701 l 1043 694 l 0 694 z m 0 1215 l 0 1229 l 1043 1229 l 1043 1215 l 0 1215 z "},"Ä":{"ha":1043,"x_min":-7,"x_max":1043,"o":"m 28 -18 l 28 -18 q -1 -6 6 -17 q 1 25 -7 6 l 1 25 l 572 1204 q 590 1229 579 1222 q 621 1236 600 1236 l 621 1236 q 649 1228 640 1236 q 663 1201 658 1221 l 663 1201 l 958 21 q 955 -6 963 4 q 926 -18 947 -17 l 926 -18 q 899 -14 907 -21 q 885 14 890 -7 l 885 14 l 800 358 l 243 358 l 76 14 q 57 -14 67 -7 q 28 -18 47 -21 z m 610 1121 l 276 428 l 782 428 l 610 1121 z m 461 1351 l 461 1351 q 417 1366 432 1351 q 401 1413 401 1381 l 401 1413 q 419 1467 401 1446 q 469 1489 436 1489 l 469 1489 q 514 1474 499 1489 q 529 1426 529 1458 l 529 1426 q 512 1372 529 1392 q 461 1351 494 1351 z m 800 1351 l 800 1351 q 757 1366 772 1351 q 742 1413 742 1381 l 742 1413 q 759 1467 742 1446 q 810 1489 776 1489 l 810 1489 q 853 1474 838 1489 q 868 1426 868 1458 l 868 1426 q 852 1372 869 1392 q 800 1351 835 1351 z m 0 -521 l 0 -507 l 1043 -507 l 1043 -521 l 0 -521 z m 0 0 l 0 28 l 1043 28 l 1043 0 l 0 0 z m 0 694 l 0 701 l 1043 701 l 1043 694 l 0 694 z m 0 1215 l 0 1229 l 1043 1229 l 1043 1215 l 0 1215 z "},"Ǽ":{"ha":1339,"x_min":-14,"x_max":1382,"o":"m 1208 0 l 1208 0 l 682 0 q 653 8 663 0 q 646 32 644 15 l 646 32 l 714 574 l 424 574 l 61 1 q 39 -18 51 -15 q 8 -15 26 -21 l 8 -15 q -10 4 -7 -7 q -4 31 -14 15 l -4 31 l 732 1188 q 751 1210 742 1204 q 782 1215 761 1215 l 782 1215 l 1360 1215 q 1377 1207 1372 1215 q 1381 1181 1382 1199 l 1381 1181 q 1371 1154 1378 1163 q 1351 1146 1364 1146 l 1351 1146 l 861 1146 l 799 643 l 1203 643 q 1218 635 1213 643 q 1221 608 1224 626 l 1221 608 q 1211 581 1218 589 q 1194 574 1204 574 l 1194 574 l 790 574 l 728 69 l 1215 69 q 1233 61 1229 69 q 1236 35 1238 53 l 1236 35 q 1226 8 1233 17 q 1208 0 1219 0 z m 786 1146 l 467 643 l 722 643 l 786 1146 z m 971 1304 l 971 1304 q 949 1317 961 1304 q 936 1338 936 1329 l 936 1338 q 937 1346 936 1342 q 943 1356 938 1350 l 943 1356 l 1157 1556 q 1168 1565 1164 1561 q 1178 1568 1172 1568 l 1178 1568 q 1198 1560 1188 1568 q 1216 1542 1208 1553 q 1224 1522 1224 1532 l 1224 1522 q 1222 1513 1224 1517 q 1214 1501 1221 1508 l 1214 1501 l 989 1314 q 979 1307 983 1310 q 971 1304 975 1304 z m 0 -521 l 0 -507 l 1339 -507 l 1339 -521 l 0 -521 z m 0 0 l 0 28 l 1339 28 l 1339 0 l 0 0 z m 0 694 l 0 701 l 1339 701 l 1339 694 l 0 694 z m 0 1215 l 0 1229 l 1339 1229 l 1339 1215 l 0 1215 z "},"À":{"ha":1043,"x_min":-7,"x_max":1043,"o":"m 28 -18 l 28 -18 q -1 -6 6 -17 q 1 25 -7 6 l 1 25 l 572 1204 q 590 1229 579 1222 q 621 1236 600 1236 l 621 1236 q 649 1228 640 1236 q 663 1201 658 1221 l 663 1201 l 958 21 q 955 -6 963 4 q 926 -18 947 -17 l 926 -18 q 899 -14 907 -21 q 885 14 890 -7 l 885 14 l 800 358 l 243 358 l 76 14 q 57 -14 67 -7 q 28 -18 47 -21 z m 610 1121 l 276 428 l 782 428 l 610 1121 z m 699 1304 l 699 1304 q 689 1307 693 1304 q 679 1314 685 1310 l 679 1314 l 467 1501 q 458 1513 460 1508 q 457 1522 457 1517 l 457 1522 q 465 1542 457 1532 q 483 1560 472 1553 q 503 1568 494 1568 l 503 1568 q 514 1565 510 1568 q 524 1556 518 1561 l 524 1556 l 725 1356 q 733 1346 732 1350 q 733 1339 733 1342 l 733 1339 q 721 1317 733 1329 q 699 1304 708 1304 z m 0 -521 l 0 -507 l 1043 -507 l 1043 -521 l 0 -521 z m 0 0 l 0 28 l 1043 28 l 1043 0 l 0 0 z m 0 694 l 0 701 l 1043 701 l 1043 694 l 0 694 z m 0 1215 l 0 1229 l 1043 1229 l 1043 1215 l 0 1215 z "},"Ā":{"ha":1043,"x_min":-7,"x_max":1043,"o":"m 28 -18 l 28 -18 q -1 -6 6 -17 q 1 25 -7 6 l 1 25 l 572 1204 q 590 1229 579 1222 q 621 1236 600 1236 l 621 1236 q 649 1228 640 1236 q 663 1201 658 1221 l 663 1201 l 958 21 q 955 -6 963 4 q 926 -18 947 -17 l 926 -18 q 899 -14 907 -21 q 885 14 890 -7 l 885 14 l 800 358 l 243 358 l 76 14 q 57 -14 67 -7 q 28 -18 47 -21 z m 610 1121 l 276 428 l 782 428 l 610 1121 z m 819 1403 l 449 1403 q 428 1412 433 1403 q 425 1438 424 1421 l 425 1438 q 435 1465 428 1456 q 457 1475 442 1475 l 457 1475 l 828 1475 q 849 1465 844 1475 q 851 1438 853 1456 l 851 1438 q 843 1412 850 1421 q 819 1403 836 1403 l 819 1403 z m 0 -521 l 0 -507 l 1043 -507 l 1043 -521 l 0 -521 z m 0 0 l 0 28 l 1043 28 l 1043 0 l 0 0 z m 0 694 l 0 701 l 1043 701 l 1043 694 l 0 694 z m 0 1215 l 0 1229 l 1043 1229 l 1043 1215 l 0 1215 z "},"Ą":{"ha":1043,"x_min":-7,"x_max":1043,"o":"m 28 -18 l 28 -18 q -1 -6 6 -17 q 1 25 -7 6 l 1 25 l 572 1204 q 590 1229 579 1222 q 621 1236 600 1236 l 621 1236 q 649 1228 640 1236 q 663 1201 658 1221 l 663 1201 l 958 21 q 955 -6 963 4 q 926 -18 947 -17 l 926 -18 q 899 -14 907 -21 q 885 14 890 -7 l 885 14 l 800 358 l 243 358 l 76 14 q 57 -14 67 -7 q 28 -18 47 -21 z m 610 1121 l 276 428 l 782 428 l 610 1121 z m 786 -358 l 786 -358 q 714 -333 742 -358 q 686 -260 686 -307 l 686 -260 q 701 -195 686 -228 q 743 -129 715 -162 q 810 -60 771 -96 q 900 14 849 -25 l 900 14 l 957 11 l 957 4 q 880 -63 915 -31 q 818 -127 844 -96 q 776 -187 792 -158 q 761 -244 761 -217 l 761 -244 q 772 -281 761 -267 q 804 -294 782 -294 l 804 -294 q 861 -275 832 -294 q 921 -221 890 -256 l 921 -221 q 939 -211 929 -212 q 958 -218 949 -210 l 958 -218 q 972 -237 969 -226 q 965 -258 974 -249 l 965 -258 q 915 -312 944 -289 q 851 -347 885 -335 q 786 -358 818 -358 z m 0 -521 l 0 -507 l 1043 -507 l 1043 -521 l 0 -521 z m 0 0 l 0 28 l 1043 28 l 1043 0 l 0 0 z m 0 694 l 0 701 l 1043 701 l 1043 694 l 0 694 z m 0 1215 l 0 1229 l 1043 1229 l 1043 1215 l 0 1215 z "},"Å":{"ha":1043,"x_min":-7,"x_max":1043,"o":"m 28 -18 l 28 -18 q -1 -6 6 -17 q 1 25 -7 6 l 1 25 l 572 1204 q 590 1229 579 1222 q 621 1236 600 1236 l 621 1236 q 649 1228 640 1236 q 663 1201 658 1221 l 663 1201 l 958 21 q 955 -6 963 4 q 926 -18 947 -17 l 926 -18 q 899 -14 907 -21 q 885 14 890 -7 l 885 14 l 800 358 l 243 358 l 76 14 q 57 -14 67 -7 q 28 -18 47 -21 z m 610 1121 l 276 428 l 782 428 l 610 1121 z m 631 1289 l 631 1289 q 545 1308 583 1289 q 485 1361 507 1326 q 464 1443 464 1396 l 464 1443 q 488 1529 464 1492 q 553 1588 511 1567 q 649 1610 594 1610 l 649 1610 q 735 1591 697 1610 q 796 1538 774 1572 q 818 1458 818 1504 l 818 1458 q 794 1371 818 1410 q 728 1310 769 1332 q 631 1289 686 1289 z m 631 1350 l 631 1350 q 716 1381 685 1350 q 747 1458 747 1411 l 747 1458 q 719 1525 747 1501 q 649 1549 692 1549 l 649 1549 q 564 1519 594 1549 q 533 1443 533 1489 l 533 1443 q 561 1375 533 1400 q 631 1350 589 1350 z m 0 -521 l 0 -507 l 1043 -507 l 1043 -521 l 0 -521 z m 0 0 l 0 28 l 1043 28 l 1043 0 l 0 0 z m 0 694 l 0 701 l 1043 701 l 1043 694 l 0 694 z m 0 1215 l 0 1229 l 1043 1229 l 1043 1215 l 0 1215 z "},"Ã":{"ha":1043,"x_min":-7,"x_max":1043,"o":"m 28 -18 l 28 -18 q -1 -6 6 -17 q 1 25 -7 6 l 1 25 l 572 1204 q 590 1229 579 1222 q 621 1236 600 1236 l 621 1236 q 649 1228 640 1236 q 663 1201 658 1221 l 663 1201 l 958 21 q 955 -6 963 4 q 926 -18 947 -17 l 926 -18 q 899 -14 907 -21 q 885 14 890 -7 l 885 14 l 800 358 l 243 358 l 76 14 q 57 -14 67 -7 q 28 -18 47 -21 z m 610 1121 l 276 428 l 782 428 l 610 1121 z m 417 1347 l 417 1347 q 388 1376 386 1347 l 388 1376 q 425 1494 394 1454 q 510 1535 456 1535 l 510 1535 q 584 1517 549 1535 q 651 1478 619 1500 q 710 1438 682 1456 q 765 1421 739 1421 l 765 1421 q 805 1443 792 1421 q 824 1511 818 1465 l 824 1511 q 858 1538 826 1538 l 858 1538 q 884 1531 878 1538 q 889 1508 890 1525 l 889 1508 q 852 1391 882 1432 q 764 1350 822 1350 l 764 1350 q 690 1367 725 1350 q 624 1407 656 1385 q 565 1447 593 1429 q 510 1464 536 1464 l 510 1464 q 472 1442 485 1464 q 451 1374 458 1421 l 451 1374 q 442 1353 450 1360 q 417 1347 433 1347 z m 0 -521 l 0 -507 l 1043 -507 l 1043 -521 l 0 -521 z m 0 0 l 0 28 l 1043 28 l 1043 0 l 0 0 z m 0 694 l 0 701 l 1043 701 l 1043 694 l 0 694 z m 0 1215 l 0 1229 l 1043 1229 l 1043 1215 l 0 1215 z "},"Ắ":{"ha":1043,"x_min":-7,"x_max":1043,"o":"m 28 -18 l 28 -18 q -1 -6 6 -17 q 1 25 -7 6 l 1 25 l 572 1204 q 590 1229 579 1222 q 621 1236 600 1236 l 621 1236 q 649 1228 640 1236 q 663 1201 658 1221 l 663 1201 l 958 21 q 955 -6 963 4 q 926 -18 947 -17 l 926 -18 q 899 -14 907 -21 q 885 14 890 -7 l 885 14 l 800 358 l 243 358 l 76 14 q 57 -14 67 -7 q 28 -18 47 -21 z m 610 1121 l 276 428 l 782 428 l 610 1121 z m 628 1306 l 628 1306 q 472 1365 529 1306 q 417 1540 414 1424 l 417 1540 q 426 1562 418 1554 q 451 1569 435 1569 l 451 1569 q 474 1562 467 1569 q 482 1540 481 1554 l 482 1540 q 523 1422 483 1460 q 631 1383 563 1383 l 631 1383 q 754 1423 706 1383 q 817 1540 803 1463 l 817 1540 q 828 1563 821 1556 q 850 1569 835 1569 l 850 1569 q 876 1561 868 1569 q 883 1540 885 1553 l 883 1540 q 837 1409 872 1461 q 749 1331 801 1357 q 628 1306 696 1306 z m 581 1554 l 581 1554 q 558 1567 571 1554 q 546 1589 546 1579 l 546 1589 q 547 1597 546 1592 q 553 1606 547 1601 l 553 1606 l 767 1807 q 778 1815 774 1811 q 788 1819 782 1819 l 788 1819 q 808 1812 797 1819 q 826 1793 818 1804 q 833 1774 833 1782 l 833 1774 q 832 1763 833 1768 q 822 1753 831 1758 l 822 1753 l 599 1565 q 589 1557 593 1560 q 581 1554 585 1554 z m 0 -521 l 0 -507 l 1043 -507 l 1043 -521 l 0 -521 z m 0 0 l 0 28 l 1043 28 l 1043 0 l 0 0 z m 0 694 l 0 701 l 1043 701 l 1043 694 l 0 694 z m 0 1215 l 0 1229 l 1043 1229 l 1043 1215 l 0 1215 z "},"Ặ":{"ha":1043,"x_min":-7,"x_max":1043,"o":"m 28 -18 l 28 -18 q -1 -6 6 -17 q 1 25 -7 6 l 1 25 l 572 1204 q 590 1229 579 1222 q 621 1236 600 1236 l 621 1236 q 649 1228 640 1236 q 663 1201 658 1221 l 663 1201 l 958 21 q 955 -6 963 4 q 926 -18 947 -17 l 926 -18 q 899 -14 907 -21 q 885 14 890 -7 l 885 14 l 800 358 l 243 358 l 76 14 q 57 -14 67 -7 q 28 -18 47 -21 z m 610 1121 l 276 428 l 782 428 l 610 1121 z m 442 -304 l 442 -304 q 399 -290 414 -304 q 383 -243 383 -275 l 383 -243 q 401 -189 383 -210 q 451 -168 418 -168 l 451 -168 q 494 -183 479 -168 q 510 -229 510 -197 l 510 -229 q 494 -284 511 -264 q 442 -304 476 -304 z m 628 1306 l 628 1306 q 472 1365 529 1306 q 417 1540 414 1424 l 417 1540 q 426 1562 418 1554 q 451 1569 435 1569 l 451 1569 q 474 1562 467 1569 q 482 1540 481 1554 l 482 1540 q 523 1422 483 1460 q 631 1383 563 1383 l 631 1383 q 754 1423 706 1383 q 817 1540 803 1463 l 817 1540 q 828 1563 821 1556 q 850 1569 835 1569 l 850 1569 q 876 1561 868 1569 q 883 1540 885 1553 l 883 1540 q 837 1409 872 1461 q 749 1331 801 1357 q 628 1306 696 1306 z m 0 -521 l 0 -507 l 1043 -507 l 1043 -521 l 0 -521 z m 0 0 l 0 28 l 1043 28 l 1043 0 l 0 0 z m 0 694 l 0 701 l 1043 701 l 1043 694 l 0 694 z m 0 1215 l 0 1229 l 1043 1229 l 1043 1215 l 0 1215 z "},"Ằ":{"ha":1043,"x_min":-7,"x_max":1043,"o":"m 28 -18 l 28 -18 q -1 -6 6 -17 q 1 25 -7 6 l 1 25 l 572 1204 q 590 1229 579 1222 q 621 1236 600 1236 l 621 1236 q 649 1228 640 1236 q 663 1201 658 1221 l 663 1201 l 958 21 q 955 -6 963 4 q 926 -18 947 -17 l 926 -18 q 899 -14 907 -21 q 885 14 890 -7 l 885 14 l 800 358 l 243 358 l 76 14 q 57 -14 67 -7 q 28 -18 47 -21 z m 610 1121 l 276 428 l 782 428 l 610 1121 z m 628 1306 l 628 1306 q 472 1365 529 1306 q 417 1540 414 1424 l 417 1540 q 426 1562 418 1554 q 451 1569 435 1569 l 451 1569 q 474 1562 467 1569 q 482 1540 481 1554 l 482 1540 q 523 1422 483 1460 q 631 1383 563 1383 l 631 1383 q 754 1423 706 1383 q 817 1540 803 1463 l 817 1540 q 828 1563 821 1556 q 850 1569 835 1569 l 850 1569 q 876 1561 868 1569 q 883 1540 885 1553 l 883 1540 q 837 1409 872 1461 q 749 1331 801 1357 q 628 1306 696 1306 z m 728 1554 l 728 1554 q 719 1557 722 1554 q 708 1564 715 1560 l 708 1564 l 496 1751 q 488 1761 490 1757 q 486 1772 486 1765 l 486 1772 q 494 1792 486 1781 q 513 1810 501 1803 q 532 1818 524 1818 l 532 1818 q 543 1815 539 1818 q 553 1806 547 1811 l 553 1806 l 754 1606 q 762 1596 761 1600 q 763 1588 763 1592 l 763 1588 q 750 1567 763 1579 q 728 1554 738 1554 z m 0 -521 l 0 -507 l 1043 -507 l 1043 -521 l 0 -521 z m 0 0 l 0 28 l 1043 28 l 1043 0 l 0 0 z m 0 694 l 0 701 l 1043 701 l 1043 694 l 0 694 z m 0 1215 l 0 1229 l 1043 1229 l 1043 1215 l 0 1215 z "},"Ẳ":{"ha":1043,"x_min":-7,"x_max":1043,"o":"m 28 -18 l 28 -18 q -1 -6 6 -17 q 1 25 -7 6 l 1 25 l 572 1204 q 590 1229 579 1222 q 621 1236 600 1236 l 621 1236 q 649 1228 640 1236 q 663 1201 658 1221 l 663 1201 l 958 21 q 955 -6 963 4 q 926 -18 947 -17 l 926 -18 q 899 -14 907 -21 q 885 14 890 -7 l 885 14 l 800 358 l 243 358 l 76 14 q 57 -14 67 -7 q 28 -18 47 -21 z m 610 1121 l 276 428 l 782 428 l 610 1121 z m 628 1306 l 628 1306 q 472 1365 529 1306 q 417 1540 414 1424 l 417 1540 q 426 1562 418 1554 q 451 1569 435 1569 l 451 1569 q 474 1562 467 1569 q 482 1540 481 1554 l 482 1540 q 523 1422 483 1460 q 631 1383 563 1383 l 631 1383 q 754 1423 706 1383 q 817 1540 803 1463 l 817 1540 q 828 1563 821 1556 q 850 1569 835 1569 l 850 1569 q 876 1561 868 1569 q 883 1540 885 1553 l 883 1540 q 837 1409 872 1461 q 749 1331 801 1357 q 628 1306 696 1306 z m 672 1831 l 672 1831 q 767 1802 732 1831 q 803 1729 803 1774 l 803 1729 q 784 1670 803 1696 q 725 1618 765 1644 l 725 1618 q 690 1588 699 1601 q 688 1553 682 1574 l 688 1553 l 689 1540 q 683 1520 692 1528 q 663 1510 675 1513 q 640 1510 651 1507 q 626 1525 629 1514 l 626 1525 l 619 1553 q 623 1615 610 1589 q 668 1660 636 1640 l 668 1660 q 709 1692 696 1678 q 722 1724 722 1707 l 722 1724 q 705 1754 722 1743 q 660 1765 688 1765 l 660 1765 q 614 1758 636 1765 q 571 1739 592 1751 l 571 1739 q 532 1751 546 1724 l 532 1751 q 542 1793 519 1776 l 542 1793 q 600 1821 567 1811 q 672 1831 633 1831 z m 0 -521 l 0 -507 l 1043 -507 l 1043 -521 l 0 -521 z m 0 0 l 0 28 l 1043 28 l 1043 0 l 0 0 z m 0 694 l 0 701 l 1043 701 l 1043 694 l 0 694 z m 0 1215 l 0 1229 l 1043 1229 l 1043 1215 l 0 1215 z "},"Ẵ":{"ha":1043,"x_min":-7,"x_max":1043,"o":"m 28 -18 l 28 -18 q -1 -6 6 -17 q 1 25 -7 6 l 1 25 l 572 1204 q 590 1229 579 1222 q 621 1236 600 1236 l 621 1236 q 649 1228 640 1236 q 663 1201 658 1221 l 663 1201 l 958 21 q 955 -6 963 4 q 926 -18 947 -17 l 926 -18 q 899 -14 907 -21 q 885 14 890 -7 l 885 14 l 800 358 l 243 358 l 76 14 q 57 -14 67 -7 q 28 -18 47 -21 z m 610 1121 l 276 428 l 782 428 l 610 1121 z m 628 1306 l 628 1306 q 472 1365 529 1306 q 417 1540 414 1424 l 417 1540 q 426 1562 418 1554 q 451 1569 435 1569 l 451 1569 q 474 1562 467 1569 q 482 1540 481 1554 l 482 1540 q 523 1422 483 1460 q 631 1383 563 1383 l 631 1383 q 754 1423 706 1383 q 817 1540 803 1463 l 817 1540 q 828 1563 821 1556 q 850 1569 835 1569 l 850 1569 q 876 1561 868 1569 q 883 1540 885 1553 l 883 1540 q 837 1409 872 1461 q 749 1331 801 1357 q 628 1306 696 1306 z m 442 1628 l 442 1628 q 413 1657 411 1628 l 413 1657 q 449 1776 419 1736 q 535 1817 479 1817 l 535 1817 q 609 1799 574 1817 q 676 1759 644 1782 q 735 1719 707 1736 q 790 1701 764 1701 l 790 1701 q 829 1724 815 1701 q 849 1792 843 1747 l 849 1792 q 883 1819 851 1819 l 883 1819 q 908 1813 901 1819 q 914 1789 915 1806 l 914 1789 q 877 1672 907 1713 q 789 1632 847 1632 l 789 1632 q 715 1649 750 1632 q 649 1688 681 1667 q 589 1727 617 1710 q 533 1744 561 1744 l 533 1744 q 496 1723 510 1744 q 476 1656 482 1701 l 476 1656 q 467 1634 475 1640 q 442 1628 458 1628 z m 0 -521 l 0 -507 l 1043 -507 l 1043 -521 l 0 -521 z m 0 0 l 0 28 l 1043 28 l 1043 0 l 0 0 z m 0 694 l 0 701 l 1043 701 l 1043 694 l 0 694 z m 0 1215 l 0 1229 l 1043 1229 l 1043 1215 l 0 1215 z "},"Ấ":{"ha":1043,"x_min":-7,"x_max":1083,"o":"m 28 -18 l 28 -18 q -1 -6 6 -17 q 1 25 -7 6 l 1 25 l 572 1204 q 590 1229 579 1222 q 621 1236 600 1236 l 621 1236 q 649 1228 640 1236 q 663 1201 658 1221 l 663 1201 l 958 21 q 955 -6 963 4 q 926 -18 947 -17 l 926 -18 q 899 -14 907 -21 q 885 14 890 -7 l 885 14 l 800 358 l 243 358 l 76 14 q 57 -14 67 -7 q 28 -18 47 -21 z m 610 1121 l 276 428 l 782 428 l 610 1121 z m 413 1304 l 413 1304 q 392 1315 403 1304 q 382 1336 382 1325 l 382 1336 q 384 1347 382 1342 q 392 1356 386 1351 l 392 1356 l 614 1550 q 632 1564 624 1560 q 651 1568 640 1568 l 651 1568 q 670 1563 663 1568 q 686 1550 678 1558 l 686 1550 l 871 1354 q 876 1344 875 1349 q 878 1335 878 1339 l 878 1335 q 867 1313 878 1322 q 846 1304 857 1304 l 846 1304 q 833 1308 839 1304 q 821 1317 828 1311 l 821 1317 l 646 1479 l 439 1315 q 426 1307 432 1310 q 413 1304 419 1304 z m 850 1514 l 850 1514 q 827 1526 839 1514 q 815 1549 815 1539 l 815 1549 q 816 1556 815 1553 q 822 1565 817 1560 l 822 1565 l 1017 1751 q 1028 1760 1024 1757 q 1038 1764 1032 1764 l 1038 1764 q 1058 1756 1047 1764 q 1076 1738 1068 1749 q 1083 1718 1083 1728 l 1083 1718 q 1082 1708 1083 1713 q 1072 1697 1081 1704 l 1072 1697 l 868 1525 q 858 1517 863 1521 q 850 1514 853 1514 z m 0 -521 l 0 -507 l 1043 -507 l 1043 -521 l 0 -521 z m 0 0 l 0 28 l 1043 28 l 1043 0 l 0 0 z m 0 694 l 0 701 l 1043 701 l 1043 694 l 0 694 z m 0 1215 l 0 1229 l 1043 1229 l 1043 1215 l 0 1215 z "},"Ậ":{"ha":1043,"x_min":-7,"x_max":1043,"o":"m 28 -18 l 28 -18 q -1 -6 6 -17 q 1 25 -7 6 l 1 25 l 572 1204 q 590 1229 579 1222 q 621 1236 600 1236 l 621 1236 q 649 1228 640 1236 q 663 1201 658 1221 l 663 1201 l 958 21 q 955 -6 963 4 q 926 -18 947 -17 l 926 -18 q 899 -14 907 -21 q 885 14 890 -7 l 885 14 l 800 358 l 243 358 l 76 14 q 57 -14 67 -7 q 28 -18 47 -21 z m 610 1121 l 276 428 l 782 428 l 610 1121 z m 442 -304 l 442 -304 q 399 -290 414 -304 q 383 -243 383 -275 l 383 -243 q 401 -189 383 -210 q 451 -168 418 -168 l 451 -168 q 494 -183 479 -168 q 510 -229 510 -197 l 510 -229 q 494 -284 511 -264 q 442 -304 476 -304 z m 413 1304 l 413 1304 q 392 1315 403 1304 q 382 1336 382 1325 l 382 1336 q 384 1347 382 1342 q 392 1356 386 1351 l 392 1356 l 614 1550 q 632 1564 624 1560 q 651 1568 640 1568 l 651 1568 q 670 1563 663 1568 q 686 1550 678 1558 l 686 1550 l 871 1354 q 876 1344 875 1349 q 878 1335 878 1339 l 878 1335 q 867 1313 878 1322 q 846 1304 857 1304 l 846 1304 q 833 1308 839 1304 q 821 1317 828 1311 l 821 1317 l 646 1479 l 439 1315 q 426 1307 432 1310 q 413 1304 419 1304 z m 0 -521 l 0 -507 l 1043 -507 l 1043 -521 l 0 -521 z m 0 0 l 0 28 l 1043 28 l 1043 0 l 0 0 z m 0 694 l 0 701 l 1043 701 l 1043 694 l 0 694 z m 0 1215 l 0 1229 l 1043 1229 l 1043 1215 l 0 1215 z "},"Ầ":{"ha":1043,"x_min":-7,"x_max":1043,"o":"m 28 -18 l 28 -18 q -1 -6 6 -17 q 1 25 -7 6 l 1 25 l 572 1204 q 590 1229 579 1222 q 621 1236 600 1236 l 621 1236 q 649 1228 640 1236 q 663 1201 658 1221 l 663 1201 l 958 21 q 955 -6 963 4 q 926 -18 947 -17 l 926 -18 q 899 -14 907 -21 q 885 14 890 -7 l 885 14 l 800 358 l 243 358 l 76 14 q 57 -14 67 -7 q 28 -18 47 -21 z m 610 1121 l 276 428 l 782 428 l 610 1121 z m 413 1304 l 413 1304 q 392 1315 403 1304 q 382 1336 382 1325 l 382 1336 q 384 1347 382 1342 q 392 1356 386 1351 l 392 1356 l 614 1550 q 632 1564 624 1560 q 651 1568 640 1568 l 651 1568 q 670 1563 663 1568 q 686 1550 678 1558 l 686 1550 l 871 1354 q 876 1344 875 1349 q 878 1335 878 1339 l 878 1335 q 867 1313 878 1322 q 846 1304 857 1304 l 846 1304 q 833 1308 839 1304 q 821 1317 828 1311 l 821 1317 l 646 1479 l 439 1315 q 426 1307 432 1310 q 413 1304 419 1304 z m 940 1496 l 940 1496 q 931 1498 935 1496 q 921 1506 926 1500 l 921 1506 l 718 1703 q 710 1713 713 1710 q 708 1724 708 1717 l 708 1724 q 716 1744 708 1733 q 735 1762 724 1754 q 756 1769 746 1769 l 756 1769 q 766 1766 761 1769 q 776 1757 771 1763 l 776 1757 l 968 1547 q 974 1538 972 1542 q 975 1529 975 1533 l 975 1529 q 963 1508 975 1519 q 940 1496 950 1496 z m 0 -521 l 0 -507 l 1043 -507 l 1043 -521 l 0 -521 z m 0 0 l 0 28 l 1043 28 l 1043 0 l 0 0 z m 0 694 l 0 701 l 1043 701 l 1043 694 l 0 694 z m 0 1215 l 0 1229 l 1043 1229 l 1043 1215 l 0 1215 z "},"Ẩ":{"ha":1043,"x_min":-7,"x_max":1043,"o":"m 28 -18 l 28 -18 q -1 -6 6 -17 q 1 25 -7 6 l 1 25 l 572 1204 q 590 1229 579 1222 q 621 1236 600 1236 l 621 1236 q 649 1228 640 1236 q 663 1201 658 1221 l 663 1201 l 958 21 q 955 -6 963 4 q 926 -18 947 -17 l 926 -18 q 899 -14 907 -21 q 885 14 890 -7 l 885 14 l 800 358 l 243 358 l 76 14 q 57 -14 67 -7 q 28 -18 47 -21 z m 610 1121 l 276 428 l 782 428 l 610 1121 z m 413 1304 l 413 1304 q 392 1315 403 1304 q 382 1336 382 1325 l 382 1336 q 384 1347 382 1342 q 392 1356 386 1351 l 392 1356 l 614 1550 q 632 1564 624 1560 q 651 1568 640 1568 l 651 1568 q 670 1563 663 1568 q 686 1550 678 1558 l 686 1550 l 871 1354 q 876 1344 875 1349 q 878 1335 878 1339 l 878 1335 q 867 1313 878 1322 q 846 1304 857 1304 l 846 1304 q 833 1308 839 1304 q 821 1317 828 1311 l 821 1317 l 646 1479 l 439 1315 q 426 1307 432 1310 q 413 1304 419 1304 z m 897 1765 l 897 1765 q 992 1737 957 1765 q 1028 1664 1028 1708 l 1028 1664 q 1009 1605 1028 1631 q 950 1553 990 1579 l 950 1553 q 916 1522 925 1536 q 913 1488 907 1508 l 913 1488 l 914 1475 q 909 1455 917 1463 q 889 1444 901 1447 q 865 1445 876 1442 q 851 1460 854 1449 l 851 1460 l 844 1488 q 849 1549 836 1522 q 893 1594 863 1575 l 893 1594 q 934 1626 921 1611 q 947 1658 947 1642 l 947 1658 q 930 1689 947 1678 q 885 1700 913 1700 l 885 1700 q 839 1693 861 1700 q 796 1674 817 1686 l 796 1674 q 757 1686 771 1658 l 757 1686 q 767 1728 744 1711 l 767 1728 q 826 1756 793 1746 q 897 1765 860 1765 z m 0 -521 l 0 -507 l 1043 -507 l 1043 -521 l 0 -521 z m 0 0 l 0 28 l 1043 28 l 1043 0 l 0 0 z m 0 694 l 0 701 l 1043 701 l 1043 694 l 0 694 z m 0 1215 l 0 1229 l 1043 1229 l 1043 1215 l 0 1215 z "},"Ẫ":{"ha":1043,"x_min":-7,"x_max":1043,"o":"m 28 -18 l 28 -18 q -1 -6 6 -17 q 1 25 -7 6 l 1 25 l 572 1204 q 590 1229 579 1222 q 621 1236 600 1236 l 621 1236 q 649 1228 640 1236 q 663 1201 658 1221 l 663 1201 l 958 21 q 955 -6 963 4 q 926 -18 947 -17 l 926 -18 q 899 -14 907 -21 q 885 14 890 -7 l 885 14 l 800 358 l 243 358 l 76 14 q 57 -14 67 -7 q 28 -18 47 -21 z m 610 1121 l 276 428 l 782 428 l 610 1121 z m 413 1304 l 413 1304 q 392 1315 403 1304 q 382 1336 382 1325 l 382 1336 q 384 1347 382 1342 q 392 1356 386 1351 l 392 1356 l 614 1550 q 632 1564 624 1560 q 651 1568 640 1568 l 651 1568 q 670 1563 663 1568 q 686 1550 678 1558 l 686 1550 l 871 1354 q 876 1344 875 1349 q 878 1335 878 1339 l 878 1335 q 867 1313 878 1322 q 846 1304 857 1304 l 846 1304 q 833 1308 839 1304 q 821 1317 828 1311 l 821 1317 l 646 1479 l 439 1315 q 426 1307 432 1310 q 413 1304 419 1304 z m 443 1586 l 443 1586 q 413 1615 413 1586 l 413 1615 q 451 1734 421 1694 q 536 1774 481 1774 l 536 1774 q 610 1756 575 1774 q 676 1717 644 1739 q 736 1677 708 1694 q 792 1660 764 1660 l 792 1660 q 831 1683 817 1660 q 849 1750 844 1706 l 849 1750 q 885 1776 853 1776 l 885 1776 q 910 1770 903 1776 q 915 1747 917 1764 l 915 1747 q 878 1630 908 1671 q 790 1589 849 1589 l 790 1589 q 717 1606 751 1589 q 650 1646 682 1624 q 590 1685 618 1668 q 535 1703 563 1703 l 535 1703 q 497 1681 511 1703 q 478 1613 483 1660 l 478 1613 q 468 1592 476 1599 q 443 1586 460 1586 z m 0 -521 l 0 -507 l 1043 -507 l 1043 -521 l 0 -521 z m 0 0 l 0 28 l 1043 28 l 1043 0 l 0 0 z m 0 694 l 0 701 l 1043 701 l 1043 694 l 0 694 z m 0 1215 l 0 1229 l 1043 1229 l 1043 1215 l 0 1215 z "},"Ạ":{"ha":1043,"x_min":-7,"x_max":1043,"o":"m 28 -18 l 28 -18 q -1 -6 6 -17 q 1 25 -7 6 l 1 25 l 572 1204 q 590 1229 579 1222 q 621 1236 600 1236 l 621 1236 q 649 1228 640 1236 q 663 1201 658 1221 l 663 1201 l 958 21 q 955 -6 963 4 q 926 -18 947 -17 l 926 -18 q 899 -14 907 -21 q 885 14 890 -7 l 885 14 l 800 358 l 243 358 l 76 14 q 57 -14 67 -7 q 28 -18 47 -21 z m 610 1121 l 276 428 l 782 428 l 610 1121 z m 442 -304 l 442 -304 q 399 -290 414 -304 q 383 -243 383 -275 l 383 -243 q 401 -189 383 -210 q 451 -168 418 -168 l 451 -168 q 494 -183 479 -168 q 510 -229 510 -197 l 510 -229 q 494 -284 511 -264 q 442 -304 476 -304 z m 0 -521 l 0 -507 l 1043 -507 l 1043 -521 l 0 -521 z m 0 0 l 0 28 l 1043 28 l 1043 0 l 0 0 z m 0 694 l 0 701 l 1043 701 l 1043 694 l 0 694 z m 0 1215 l 0 1229 l 1043 1229 l 1043 1215 l 0 1215 z "},"Ả":{"ha":1043,"x_min":-7,"x_max":1043,"o":"m 28 -18 l 28 -18 q -1 -6 6 -17 q 1 25 -7 6 l 1 25 l 572 1204 q 590 1229 579 1222 q 621 1236 600 1236 l 621 1236 q 649 1228 640 1236 q 663 1201 658 1221 l 663 1201 l 958 21 q 955 -6 963 4 q 926 -18 947 -17 l 926 -18 q 899 -14 907 -21 q 885 14 890 -7 l 885 14 l 800 358 l 243 358 l 76 14 q 57 -14 67 -7 q 28 -18 47 -21 z m 610 1121 l 276 428 l 782 428 l 610 1121 z m 653 1606 l 653 1606 q 747 1577 713 1606 q 782 1504 782 1549 l 782 1504 q 764 1445 782 1471 q 704 1393 746 1419 l 704 1393 q 670 1363 679 1376 q 668 1328 661 1349 l 668 1328 l 668 1314 q 663 1294 671 1303 q 643 1284 656 1286 q 620 1285 631 1282 q 607 1300 610 1289 l 607 1300 l 599 1328 q 603 1389 590 1363 q 647 1435 617 1415 l 647 1435 q 688 1467 675 1451 q 701 1499 701 1482 l 701 1499 q 684 1529 701 1518 q 639 1540 667 1540 l 639 1540 q 594 1533 617 1540 q 550 1514 571 1526 l 550 1514 q 511 1526 525 1499 l 511 1526 q 521 1568 499 1551 l 521 1568 q 581 1596 547 1586 q 653 1606 614 1606 z m 0 -521 l 0 -507 l 1043 -507 l 1043 -521 l 0 -521 z m 0 0 l 0 28 l 1043 28 l 1043 0 l 0 0 z m 0 694 l 0 701 l 1043 701 l 1043 694 l 0 694 z m 0 1215 l 0 1229 l 1043 1229 l 1043 1215 l 0 1215 z "},"Ć":{"ha":1076,"x_min":0,"x_max":1076,"o":"m 583 -26 l 583 -26 q 406 11 486 -26 q 267 120 325 49 q 178 293 210 192 q 146 521 146 394 l 146 521 q 165 702 146 614 q 219 870 183 790 q 306 1017 254 950 q 424 1133 357 1083 q 569 1209 490 1182 q 740 1236 649 1236 l 740 1236 q 867 1221 807 1236 q 977 1174 926 1206 q 1064 1092 1028 1143 l 1064 1092 q 1072 1069 1075 1079 q 1053 1049 1068 1060 l 1053 1049 q 1031 1041 1040 1040 q 1007 1054 1021 1042 l 1007 1054 q 932 1115 974 1092 q 841 1151 890 1139 q 735 1163 792 1163 l 735 1163 q 592 1139 660 1163 q 469 1072 525 1115 q 367 970 413 1029 q 291 840 322 911 q 244 688 260 768 q 228 524 228 608 l 228 524 q 253 322 228 410 q 327 172 279 233 q 441 80 375 111 q 588 49 507 49 l 588 49 q 699 67 647 49 q 797 117 751 85 q 881 190 842 149 q 956 276 921 231 l 956 276 q 977 290 967 289 q 1001 279 988 290 l 1001 279 q 1017 258 1017 268 q 1008 233 1018 249 l 1008 233 q 886 96 953 154 q 744 6 819 38 q 583 -26 668 -26 z m 669 1304 l 669 1304 q 647 1317 660 1304 q 635 1338 635 1329 l 635 1338 q 636 1346 635 1342 q 643 1356 638 1350 l 643 1356 l 857 1556 q 867 1565 863 1561 q 878 1568 871 1568 l 878 1568 q 897 1560 886 1568 q 916 1542 908 1553 q 924 1522 924 1532 l 924 1522 q 922 1513 924 1517 q 913 1501 921 1508 l 913 1501 l 689 1314 q 678 1307 682 1310 q 669 1304 675 1304 z m 0 -521 l 0 -507 l 1076 -507 l 1076 -521 l 0 -521 z m 0 0 l 0 28 l 1076 28 l 1076 0 l 0 0 z m 0 694 l 0 701 l 1076 701 l 1076 694 l 0 694 z m 0 1215 l 0 1229 l 1076 1229 l 1076 1215 l 0 1215 z "},"Č":{"ha":1076,"x_min":0,"x_max":1076,"o":"m 583 -26 l 583 -26 q 406 11 486 -26 q 267 120 325 49 q 178 293 210 192 q 146 521 146 394 l 146 521 q 165 702 146 614 q 219 870 183 790 q 306 1017 254 950 q 424 1133 357 1083 q 569 1209 490 1182 q 740 1236 649 1236 l 740 1236 q 867 1221 807 1236 q 977 1174 926 1206 q 1064 1092 1028 1143 l 1064 1092 q 1072 1069 1075 1079 q 1053 1049 1068 1060 l 1053 1049 q 1031 1041 1040 1040 q 1007 1054 1021 1042 l 1007 1054 q 932 1115 974 1092 q 841 1151 890 1139 q 735 1163 792 1163 l 735 1163 q 592 1139 660 1163 q 469 1072 525 1115 q 367 970 413 1029 q 291 840 322 911 q 244 688 260 768 q 228 524 228 608 l 228 524 q 253 322 228 410 q 327 172 279 233 q 441 80 375 111 q 588 49 507 49 l 588 49 q 699 67 647 49 q 797 117 751 85 q 881 190 842 149 q 956 276 921 231 l 956 276 q 977 290 967 289 q 1001 279 988 290 l 1001 279 q 1017 258 1017 268 q 1008 233 1018 249 l 1008 233 q 886 96 953 154 q 744 6 819 38 q 583 -26 668 -26 z m 976 1568 l 976 1568 q 997 1558 988 1568 q 1007 1536 1007 1547 l 1007 1536 q 1006 1526 1007 1531 q 999 1517 1004 1522 l 999 1517 l 776 1321 q 758 1309 767 1314 q 738 1304 750 1304 l 738 1304 q 719 1309 726 1304 q 704 1322 713 1314 l 704 1322 l 519 1518 q 513 1529 515 1524 q 511 1538 511 1535 l 511 1538 q 523 1559 511 1550 q 544 1568 535 1568 l 544 1568 q 558 1565 553 1568 q 568 1556 563 1561 l 568 1556 l 743 1394 l 950 1556 q 964 1565 958 1561 q 976 1568 969 1568 z m 0 -521 l 0 -507 l 1076 -507 l 1076 -521 l 0 -521 z m 0 0 l 0 28 l 1076 28 l 1076 0 l 0 0 z m 0 694 l 0 701 l 1076 701 l 1076 694 l 0 694 z m 0 1215 l 0 1229 l 1076 1229 l 1076 1215 l 0 1215 z "},"Ç":{"ha":1076,"x_min":0,"x_max":1076,"o":"m 583 -26 l 583 -26 q 406 11 486 -26 q 267 120 325 49 q 178 293 210 192 q 146 521 146 394 l 146 521 q 165 702 146 614 q 219 870 183 790 q 306 1017 254 950 q 424 1133 357 1083 q 569 1209 490 1182 q 740 1236 649 1236 l 740 1236 q 867 1221 807 1236 q 977 1174 926 1206 q 1064 1092 1028 1143 l 1064 1092 q 1072 1069 1075 1079 q 1053 1049 1068 1060 l 1053 1049 q 1031 1041 1040 1040 q 1007 1054 1021 1042 l 1007 1054 q 932 1115 974 1092 q 841 1151 890 1139 q 735 1163 792 1163 l 735 1163 q 592 1139 660 1163 q 469 1072 525 1115 q 367 970 413 1029 q 291 840 322 911 q 244 688 260 768 q 228 524 228 608 l 228 524 q 253 322 228 410 q 327 172 279 233 q 441 80 375 111 q 588 49 507 49 l 588 49 q 699 67 647 49 q 797 117 751 85 q 881 190 842 149 q 956 276 921 231 l 956 276 q 977 290 967 289 q 1001 279 988 290 l 1001 279 q 1017 258 1017 268 q 1008 233 1018 249 l 1008 233 q 886 96 953 154 q 744 6 819 38 q 583 -26 668 -26 z m 522 -368 l 522 -368 q 459 -361 496 -368 q 392 -333 422 -354 l 392 -333 q 380 -315 381 -326 q 385 -293 379 -304 l 385 -293 q 401 -278 393 -281 q 422 -279 410 -275 l 422 -279 q 468 -297 443 -289 q 524 -304 493 -304 l 524 -304 q 588 -286 565 -304 q 611 -235 611 -268 l 611 -235 q 585 -187 611 -201 q 503 -179 558 -172 l 503 -179 q 485 -178 492 -181 q 475 -168 479 -175 l 475 -168 q 470 -150 469 -158 q 476 -131 471 -142 l 476 -131 l 547 6 l 608 6 l 529 -149 l 507 -131 q 599 -125 558 -117 q 663 -161 639 -133 q 686 -233 686 -189 l 686 -233 q 666 -304 686 -274 q 610 -351 646 -335 q 522 -368 574 -368 z m 0 -521 l 0 -507 l 1076 -507 l 1076 -521 l 0 -521 z m 0 0 l 0 28 l 1076 28 l 1076 0 l 0 0 z m 0 694 l 0 701 l 1076 701 l 1076 694 l 0 694 z m 0 1215 l 0 1229 l 1076 1229 l 1076 1215 l 0 1215 z "},"Ĉ":{"ha":1076,"x_min":0,"x_max":1076,"o":"m 583 -26 l 583 -26 q 406 11 486 -26 q 267 120 325 49 q 178 293 210 192 q 146 521 146 394 l 146 521 q 165 702 146 614 q 219 870 183 790 q 306 1017 254 950 q 424 1133 357 1083 q 569 1209 490 1182 q 740 1236 649 1236 l 740 1236 q 867 1221 807 1236 q 977 1174 926 1206 q 1064 1092 1028 1143 l 1064 1092 q 1072 1069 1075 1079 q 1053 1049 1068 1060 l 1053 1049 q 1031 1041 1040 1040 q 1007 1054 1021 1042 l 1007 1054 q 932 1115 974 1092 q 841 1151 890 1139 q 735 1163 792 1163 l 735 1163 q 592 1139 660 1163 q 469 1072 525 1115 q 367 970 413 1029 q 291 840 322 911 q 244 688 260 768 q 228 524 228 608 l 228 524 q 253 322 228 410 q 327 172 279 233 q 441 80 375 111 q 588 49 507 49 l 588 49 q 699 67 647 49 q 797 117 751 85 q 881 190 842 149 q 956 276 921 231 l 956 276 q 977 290 967 289 q 1001 279 988 290 l 1001 279 q 1017 258 1017 268 q 1008 233 1018 249 l 1008 233 q 886 96 953 154 q 744 6 819 38 q 583 -26 668 -26 z m 529 1304 l 529 1304 q 508 1315 518 1304 q 499 1336 499 1325 l 499 1336 q 501 1347 499 1342 q 508 1356 503 1351 l 508 1356 l 729 1550 q 747 1564 739 1560 q 768 1568 756 1568 l 768 1568 q 787 1563 779 1568 q 801 1550 794 1558 l 801 1550 l 986 1354 q 993 1344 992 1349 q 994 1335 994 1339 l 994 1335 q 983 1313 994 1322 q 963 1304 972 1304 l 963 1304 q 949 1308 954 1304 q 938 1317 943 1311 l 938 1317 l 763 1479 l 556 1315 q 542 1307 547 1310 q 529 1304 536 1304 z m 0 -521 l 0 -507 l 1076 -507 l 1076 -521 l 0 -521 z m 0 0 l 0 28 l 1076 28 l 1076 0 l 0 0 z m 0 694 l 0 701 l 1076 701 l 1076 694 l 0 694 z m 0 1215 l 0 1229 l 1076 1229 l 1076 1215 l 0 1215 z "},"Ċ":{"ha":1076,"x_min":0,"x_max":1076,"o":"m 583 -26 l 583 -26 q 406 11 486 -26 q 267 120 325 49 q 178 293 210 192 q 146 521 146 394 l 146 521 q 165 702 146 614 q 219 870 183 790 q 306 1017 254 950 q 424 1133 357 1083 q 569 1209 490 1182 q 740 1236 649 1236 l 740 1236 q 867 1221 807 1236 q 977 1174 926 1206 q 1064 1092 1028 1143 l 1064 1092 q 1072 1069 1075 1079 q 1053 1049 1068 1060 l 1053 1049 q 1031 1041 1040 1040 q 1007 1054 1021 1042 l 1007 1054 q 932 1115 974 1092 q 841 1151 890 1139 q 735 1163 792 1163 l 735 1163 q 592 1139 660 1163 q 469 1072 525 1115 q 367 970 413 1029 q 291 840 322 911 q 244 688 260 768 q 228 524 228 608 l 228 524 q 253 322 228 410 q 327 172 279 233 q 441 80 375 111 q 588 49 507 49 l 588 49 q 699 67 647 49 q 797 117 751 85 q 881 190 842 149 q 956 276 921 231 l 956 276 q 977 290 967 289 q 1001 279 988 290 l 1001 279 q 1017 258 1017 268 q 1008 233 1018 249 l 1008 233 q 886 96 953 154 q 744 6 819 38 q 583 -26 668 -26 z m 747 1351 l 747 1351 q 703 1366 718 1351 q 689 1413 689 1381 l 689 1413 q 706 1467 689 1446 q 757 1489 722 1489 l 757 1489 q 799 1474 783 1489 q 815 1426 815 1458 l 815 1426 q 798 1372 815 1392 q 747 1351 781 1351 z m 0 -521 l 0 -507 l 1076 -507 l 1076 -521 l 0 -521 z m 0 0 l 0 28 l 1076 28 l 1076 0 l 0 0 z m 0 694 l 0 701 l 1076 701 l 1076 694 l 0 694 z m 0 1215 l 0 1229 l 1076 1229 l 1076 1215 l 0 1215 z "},"Ď":{"ha":1207,"x_min":0,"x_max":1207,"o":"m 403 0 l 192 0 q 157 26 154 0 l 157 26 l 303 1189 q 315 1209 306 1203 q 344 1215 325 1215 l 344 1215 l 594 1215 q 812 1184 714 1215 q 981 1092 910 1153 q 1090 940 1051 1031 q 1128 732 1128 850 l 1128 732 q 1097 497 1128 608 q 1005 295 1065 386 q 856 138 944 204 q 654 36 768 72 q 403 0 540 0 l 403 0 z m 374 1143 l 239 72 l 403 72 q 624 104 524 72 q 803 194 725 136 q 936 335 882 253 q 1018 517 990 417 q 1046 732 1046 618 l 1046 732 q 1012 917 1046 839 q 917 1044 978 994 q 773 1119 856 1094 q 593 1143 690 1143 l 593 1143 l 374 1143 z m 914 1568 l 914 1568 q 935 1558 925 1568 q 946 1536 946 1547 l 946 1536 q 944 1526 946 1531 q 936 1517 942 1522 l 936 1517 l 714 1321 q 696 1309 704 1314 q 676 1304 688 1304 l 676 1304 q 657 1309 664 1304 q 642 1322 650 1314 l 642 1322 l 457 1518 q 451 1529 453 1524 q 450 1538 450 1535 l 450 1538 q 461 1559 450 1550 q 482 1568 472 1568 l 482 1568 q 495 1565 490 1568 q 506 1556 500 1561 l 506 1556 l 681 1394 l 889 1556 q 901 1565 896 1561 q 914 1568 907 1568 z m 0 -521 l 0 -507 l 1207 -507 l 1207 -521 l 0 -521 z m 0 0 l 0 28 l 1207 28 l 1207 0 l 0 0 z m 0 694 l 0 701 l 1207 701 l 1207 694 l 0 694 z m 0 1215 l 0 1229 l 1207 1229 l 1207 1215 l 0 1215 z "},"Đ":{"ha":1207,"x_min":0,"x_max":1207,"o":"m 403 0 l 192 0 q 157 26 154 0 l 157 26 l 303 1189 q 315 1209 306 1203 q 344 1215 325 1215 l 344 1215 l 594 1215 q 812 1184 714 1215 q 981 1092 910 1153 q 1090 940 1051 1031 q 1128 732 1128 850 l 1128 732 q 1097 497 1128 608 q 1005 295 1065 386 q 856 138 944 204 q 654 36 768 72 q 403 0 540 0 l 403 0 z m 374 1143 l 239 72 l 403 72 q 624 104 524 72 q 803 194 725 136 q 936 335 882 253 q 1018 517 990 417 q 1046 732 1046 618 l 1046 732 q 1012 917 1046 839 q 917 1044 978 994 q 773 1119 856 1094 q 593 1143 690 1143 l 593 1143 l 374 1143 z m 603 578 l 103 578 q 82 587 86 578 q 79 610 78 596 l 79 610 q 87 634 81 625 q 110 643 93 643 l 110 643 l 608 643 q 630 633 626 643 q 633 610 633 624 l 633 610 q 624 586 631 594 q 603 578 618 578 l 603 578 z m 0 -521 l 0 -507 l 1207 -507 l 1207 -521 l 0 -521 z m 0 0 l 0 28 l 1207 28 l 1207 0 l 0 0 z m 0 694 l 0 701 l 1207 701 l 1207 694 l 0 694 z m 0 1215 l 0 1229 l 1207 1229 l 1207 1215 l 0 1215 z "},"É":{"ha":921,"x_min":0,"x_max":963,"o":"m 789 0 l 193 0 q 165 8 174 0 q 158 32 156 15 l 158 32 l 303 1189 q 314 1209 304 1203 q 344 1215 324 1215 l 344 1215 l 940 1215 q 958 1207 954 1215 q 961 1181 963 1199 l 961 1181 q 953 1154 960 1163 q 933 1146 946 1146 l 933 1146 l 374 1146 l 314 678 l 786 678 q 803 669 799 678 q 807 643 808 661 l 807 643 q 797 616 804 624 q 778 608 790 608 l 778 608 l 306 608 l 239 69 l 796 69 q 815 61 810 69 q 817 35 819 53 l 817 35 q 808 8 815 17 q 789 0 801 0 l 789 0 z m 576 1304 l 576 1304 q 554 1317 567 1304 q 542 1338 542 1329 l 542 1338 q 543 1346 542 1342 q 550 1356 544 1350 l 550 1356 l 764 1556 q 774 1565 769 1561 q 785 1568 778 1568 l 785 1568 q 804 1560 793 1568 q 823 1542 815 1553 q 831 1522 831 1532 l 831 1522 q 828 1513 831 1517 q 819 1501 826 1508 l 819 1501 l 596 1314 q 585 1307 589 1310 q 576 1304 582 1304 z m 0 -521 l 0 -507 l 921 -507 l 921 -521 l 0 -521 z m 0 0 l 0 28 l 921 28 l 921 0 l 0 0 z m 0 694 l 0 701 l 921 701 l 921 694 l 0 694 z m 0 1215 l 0 1229 l 921 1229 l 921 1215 l 0 1215 z "},"Ĕ":{"ha":921,"x_min":0,"x_max":963,"o":"m 789 0 l 193 0 q 165 8 174 0 q 158 32 156 15 l 158 32 l 303 1189 q 314 1209 304 1203 q 344 1215 324 1215 l 344 1215 l 940 1215 q 958 1207 954 1215 q 961 1181 963 1199 l 961 1181 q 953 1154 960 1163 q 933 1146 946 1146 l 933 1146 l 374 1146 l 314 678 l 786 678 q 803 669 799 678 q 807 643 808 661 l 807 643 q 797 616 804 624 q 778 608 790 608 l 778 608 l 306 608 l 239 69 l 796 69 q 815 61 810 69 q 817 35 819 53 l 817 35 q 808 8 815 17 q 789 0 801 0 l 789 0 z m 651 1306 l 651 1306 q 494 1365 551 1306 q 440 1540 438 1424 l 440 1540 q 449 1562 440 1554 q 474 1569 457 1569 l 474 1569 q 497 1562 490 1569 q 504 1540 504 1554 l 504 1540 q 546 1422 507 1460 q 654 1383 585 1383 l 654 1383 q 777 1423 728 1383 q 840 1540 826 1463 l 840 1540 q 851 1563 843 1556 q 874 1569 858 1569 l 874 1569 q 899 1561 890 1569 q 906 1540 907 1553 l 906 1540 q 860 1409 894 1461 q 772 1331 825 1357 q 651 1306 718 1306 z m 0 -521 l 0 -507 l 921 -507 l 921 -521 l 0 -521 z m 0 0 l 0 28 l 921 28 l 921 0 l 0 0 z m 0 694 l 0 701 l 921 701 l 921 694 l 0 694 z m 0 1215 l 0 1229 l 921 1229 l 921 1215 l 0 1215 z "},"Ě":{"ha":921,"x_min":0,"x_max":963,"o":"m 789 0 l 193 0 q 165 8 174 0 q 158 32 156 15 l 158 32 l 303 1189 q 314 1209 304 1203 q 344 1215 324 1215 l 344 1215 l 940 1215 q 958 1207 954 1215 q 961 1181 963 1199 l 961 1181 q 953 1154 960 1163 q 933 1146 946 1146 l 933 1146 l 374 1146 l 314 678 l 786 678 q 803 669 799 678 q 807 643 808 661 l 807 643 q 797 616 804 624 q 778 608 790 608 l 778 608 l 306 608 l 239 69 l 796 69 q 815 61 810 69 q 817 35 819 53 l 817 35 q 808 8 815 17 q 789 0 801 0 l 789 0 z m 883 1568 l 883 1568 q 904 1558 894 1568 q 914 1536 914 1547 l 914 1536 q 913 1526 914 1531 q 904 1517 911 1522 l 904 1517 l 683 1321 q 665 1309 674 1314 q 644 1304 657 1304 l 644 1304 q 626 1309 633 1304 q 611 1322 618 1314 l 611 1322 l 426 1518 q 420 1529 422 1524 q 418 1538 418 1535 l 418 1538 q 430 1559 418 1550 q 451 1568 442 1568 l 451 1568 q 464 1565 458 1568 q 475 1556 469 1561 l 475 1556 l 650 1394 l 857 1556 q 871 1565 865 1561 q 883 1568 876 1568 z m 0 -521 l 0 -507 l 921 -507 l 921 -521 l 0 -521 z m 0 0 l 0 28 l 921 28 l 921 0 l 0 0 z m 0 694 l 0 701 l 921 701 l 921 694 l 0 694 z m 0 1215 l 0 1229 l 921 1229 l 921 1215 l 0 1215 z "},"Ê":{"ha":921,"x_min":0,"x_max":963,"o":"m 789 0 l 193 0 q 165 8 174 0 q 158 32 156 15 l 158 32 l 303 1189 q 314 1209 304 1203 q 344 1215 324 1215 l 344 1215 l 940 1215 q 958 1207 954 1215 q 961 1181 963 1199 l 961 1181 q 953 1154 960 1163 q 933 1146 946 1146 l 933 1146 l 374 1146 l 314 678 l 786 678 q 803 669 799 678 q 807 643 808 661 l 807 643 q 797 616 804 624 q 778 608 790 608 l 778 608 l 306 608 l 239 69 l 796 69 q 815 61 810 69 q 817 35 819 53 l 817 35 q 808 8 815 17 q 789 0 801 0 l 789 0 z m 436 1304 l 436 1304 q 415 1315 425 1304 q 406 1336 406 1325 l 406 1336 q 408 1347 406 1342 q 414 1356 410 1351 l 414 1356 l 636 1550 q 654 1564 646 1560 q 675 1568 663 1568 l 675 1568 q 694 1563 686 1568 q 708 1550 701 1558 l 708 1550 l 893 1354 q 900 1344 899 1349 q 901 1335 901 1339 l 901 1335 q 890 1313 901 1322 q 869 1304 879 1304 l 869 1304 q 856 1308 861 1304 q 844 1317 850 1311 l 844 1317 l 669 1479 l 463 1315 q 449 1307 454 1310 q 436 1304 443 1304 z m 0 -521 l 0 -507 l 921 -507 l 921 -521 l 0 -521 z m 0 0 l 0 28 l 921 28 l 921 0 l 0 0 z m 0 694 l 0 701 l 921 701 l 921 694 l 0 694 z m 0 1215 l 0 1229 l 921 1229 l 921 1215 l 0 1215 z "},"Ë":{"ha":921,"x_min":0,"x_max":963,"o":"m 789 0 l 193 0 q 165 8 175 0 q 158 32 156 15 l 158 32 l 303 1189 q 314 1209 304 1203 q 344 1215 324 1215 l 344 1215 l 940 1215 q 958 1207 954 1215 q 961 1181 963 1199 l 961 1181 q 953 1154 960 1163 q 933 1146 946 1146 l 933 1146 l 374 1146 l 314 678 l 786 678 q 803 669 799 678 q 807 643 808 661 l 807 643 q 797 616 804 624 q 778 608 790 608 l 778 608 l 306 608 l 239 69 l 796 69 q 815 61 810 69 q 817 35 819 53 l 817 35 q 808 8 815 17 q 789 0 801 0 l 789 0 z m 483 1351 l 483 1351 q 440 1366 456 1351 q 425 1411 425 1381 l 425 1411 q 442 1467 425 1446 q 493 1489 460 1489 l 493 1489 q 536 1473 521 1489 q 551 1426 551 1457 l 551 1426 q 534 1372 551 1392 q 483 1351 517 1351 z m 824 1351 l 824 1351 q 781 1366 796 1351 q 765 1411 765 1381 l 765 1411 q 783 1467 765 1446 q 832 1489 800 1489 l 832 1489 q 876 1473 860 1489 q 892 1426 892 1457 l 892 1426 q 874 1372 892 1392 q 824 1351 857 1351 z m 0 -521 l 0 -507 l 921 -507 l 921 -521 l 0 -521 z m 0 0 l 0 28 l 921 28 l 921 0 l 0 0 z m 0 694 l 0 701 l 921 701 l 921 694 l 0 694 z m 0 1215 l 0 1229 l 921 1229 l 921 1215 l 0 1215 z "},"Ė":{"ha":921,"x_min":0,"x_max":963,"o":"m 789 0 l 193 0 q 165 8 174 0 q 158 32 156 15 l 158 32 l 303 1189 q 314 1209 304 1203 q 344 1215 324 1215 l 344 1215 l 940 1215 q 958 1207 954 1215 q 961 1181 963 1199 l 961 1181 q 953 1154 960 1163 q 933 1146 946 1146 l 933 1146 l 374 1146 l 314 678 l 786 678 q 803 669 799 678 q 807 643 808 661 l 807 643 q 797 616 804 624 q 778 608 790 608 l 778 608 l 306 608 l 239 69 l 796 69 q 815 61 810 69 q 817 35 819 53 l 817 35 q 808 8 815 17 q 789 0 801 0 l 789 0 z m 654 1351 l 654 1351 q 610 1366 625 1351 q 594 1413 594 1381 l 594 1413 q 612 1467 594 1446 q 663 1489 629 1489 l 663 1489 q 706 1474 690 1489 q 722 1426 722 1458 l 722 1426 q 705 1372 722 1392 q 654 1351 688 1351 z m 0 -521 l 0 -507 l 921 -507 l 921 -521 l 0 -521 z m 0 0 l 0 28 l 921 28 l 921 0 l 0 0 z m 0 694 l 0 701 l 921 701 l 921 694 l 0 694 z m 0 1215 l 0 1229 l 921 1229 l 921 1215 l 0 1215 z "},"È":{"ha":921,"x_min":0,"x_max":963,"o":"m 789 0 l 193 0 q 165 8 174 0 q 158 32 156 15 l 158 32 l 303 1189 q 314 1209 304 1203 q 344 1215 324 1215 l 344 1215 l 940 1215 q 958 1207 954 1215 q 961 1181 963 1199 l 961 1181 q 953 1154 960 1163 q 933 1146 946 1146 l 933 1146 l 374 1146 l 314 678 l 786 678 q 803 669 799 678 q 807 643 808 661 l 807 643 q 797 616 804 624 q 778 608 790 608 l 778 608 l 306 608 l 239 69 l 796 69 q 815 61 810 69 q 817 35 819 53 l 817 35 q 808 8 815 17 q 789 0 801 0 l 789 0 z m 721 1304 l 721 1304 q 713 1307 717 1304 q 701 1314 708 1310 l 701 1314 l 490 1501 q 481 1513 483 1508 q 479 1522 479 1517 l 479 1522 q 487 1542 479 1532 q 506 1560 494 1553 q 526 1568 517 1568 l 526 1568 q 536 1565 532 1568 q 546 1556 540 1561 l 546 1556 l 749 1356 q 755 1346 754 1350 q 756 1339 756 1342 l 756 1339 q 743 1317 756 1329 q 721 1304 731 1304 z m 0 -521 l 0 -507 l 921 -507 l 921 -521 l 0 -521 z m 0 0 l 0 28 l 921 28 l 921 0 l 0 0 z m 0 694 l 0 701 l 921 701 l 921 694 l 0 694 z m 0 1215 l 0 1229 l 921 1229 l 921 1215 l 0 1215 z "},"Ē":{"ha":921,"x_min":0,"x_max":963,"o":"m 789 0 l 193 0 q 165 8 174 0 q 158 32 156 15 l 158 32 l 303 1189 q 314 1209 304 1203 q 344 1215 324 1215 l 344 1215 l 940 1215 q 958 1207 954 1215 q 961 1181 963 1199 l 961 1181 q 953 1154 960 1163 q 933 1146 946 1146 l 933 1146 l 374 1146 l 314 678 l 786 678 q 803 669 799 678 q 807 643 808 661 l 807 643 q 797 616 804 624 q 778 608 790 608 l 778 608 l 306 608 l 239 69 l 796 69 q 815 61 810 69 q 817 35 819 53 l 817 35 q 808 8 815 17 q 789 0 801 0 l 789 0 z m 843 1403 l 472 1403 q 451 1412 457 1403 q 449 1438 446 1421 l 449 1438 q 457 1465 450 1456 q 479 1475 464 1475 l 479 1475 l 850 1475 q 872 1465 867 1475 q 874 1438 876 1456 l 874 1438 q 865 1412 872 1421 q 843 1403 858 1403 l 843 1403 z m 0 -521 l 0 -507 l 921 -507 l 921 -521 l 0 -521 z m 0 0 l 0 28 l 921 28 l 921 0 l 0 0 z m 0 694 l 0 701 l 921 701 l 921 694 l 0 694 z m 0 1215 l 0 1229 l 921 1229 l 921 1215 l 0 1215 z "},"Ę":{"ha":921,"x_min":0,"x_max":963,"o":"m 789 0 l 193 0 q 165 8 174 0 q 158 32 156 15 l 158 32 l 303 1189 q 314 1209 304 1203 q 344 1215 324 1215 l 344 1215 l 940 1215 q 958 1207 954 1215 q 961 1181 963 1199 l 961 1181 q 953 1154 960 1163 q 933 1146 946 1146 l 933 1146 l 374 1146 l 314 678 l 786 678 q 803 669 799 678 q 807 643 808 661 l 807 643 q 797 616 804 624 q 778 608 790 608 l 778 608 l 306 608 l 239 69 l 796 69 q 815 61 810 69 q 817 35 819 53 l 817 35 q 808 8 815 17 q 789 0 801 0 l 789 0 z m 638 -347 l 638 -347 q 566 -322 593 -347 q 539 -249 539 -296 l 539 -249 q 553 -183 539 -215 q 594 -117 567 -150 q 662 -49 622 -85 q 751 26 701 -14 l 751 26 l 808 22 l 808 15 q 733 -51 768 -18 q 670 -115 697 -83 q 628 -176 643 -147 q 613 -232 613 -206 l 613 -232 q 624 -269 613 -256 q 656 -282 635 -282 l 656 -282 q 713 -263 683 -282 q 774 -208 743 -244 l 774 -208 q 790 -199 781 -201 q 810 -207 800 -197 l 810 -207 q 823 -226 821 -215 q 818 -247 825 -236 l 818 -247 q 767 -299 797 -276 q 703 -335 736 -322 q 638 -347 669 -347 z m 0 -521 l 0 -507 l 921 -507 l 921 -521 l 0 -521 z m 0 0 l 0 28 l 921 28 l 921 0 l 0 0 z m 0 694 l 0 701 l 921 701 l 921 694 l 0 694 z m 0 1215 l 0 1229 l 921 1229 l 921 1215 l 0 1215 z "},"Ế":{"ha":921,"x_min":0,"x_max":1106,"o":"m 789 0 l 193 0 q 165 8 174 0 q 158 32 156 15 l 158 32 l 303 1189 q 314 1209 304 1203 q 344 1215 324 1215 l 344 1215 l 940 1215 q 958 1207 954 1215 q 961 1181 963 1199 l 961 1181 q 953 1154 960 1163 q 933 1146 946 1146 l 933 1146 l 374 1146 l 314 678 l 786 678 q 803 669 799 678 q 807 643 808 661 l 807 643 q 797 616 804 624 q 778 608 790 608 l 778 608 l 306 608 l 239 69 l 796 69 q 815 61 810 69 q 817 35 819 53 l 817 35 q 808 8 815 17 q 789 0 801 0 l 789 0 z m 436 1304 l 436 1304 q 415 1315 425 1304 q 406 1336 406 1325 l 406 1336 q 408 1347 406 1342 q 414 1356 410 1351 l 414 1356 l 636 1550 q 654 1564 646 1560 q 675 1568 663 1568 l 675 1568 q 694 1563 686 1568 q 708 1550 701 1558 l 708 1550 l 893 1354 q 900 1344 899 1349 q 901 1335 901 1339 l 901 1335 q 890 1313 901 1322 q 869 1304 879 1304 l 869 1304 q 856 1308 861 1304 q 844 1317 850 1311 l 844 1317 l 669 1479 l 463 1315 q 449 1307 454 1310 q 436 1304 443 1304 z m 872 1514 l 872 1514 q 850 1526 863 1514 q 838 1549 838 1539 l 838 1549 q 838 1556 838 1553 q 846 1565 839 1560 l 846 1565 l 1040 1751 q 1050 1760 1046 1757 q 1061 1764 1054 1764 l 1061 1764 q 1081 1756 1069 1764 q 1099 1738 1092 1749 q 1106 1718 1106 1728 l 1106 1718 q 1104 1708 1106 1713 q 1096 1697 1103 1704 l 1096 1697 l 892 1525 q 881 1517 885 1521 q 872 1514 876 1514 z m 0 -521 l 0 -507 l 921 -507 l 921 -521 l 0 -521 z m 0 0 l 0 28 l 921 28 l 921 0 l 0 0 z m 0 694 l 0 701 l 921 701 l 921 694 l 0 694 z m 0 1215 l 0 1229 l 921 1229 l 921 1215 l 0 1215 z "},"Ệ":{"ha":921,"x_min":0,"x_max":963,"o":"m 789 0 l 193 0 q 165 8 174 0 q 158 32 156 15 l 158 32 l 303 1189 q 314 1209 304 1203 q 344 1215 324 1215 l 344 1215 l 940 1215 q 958 1207 954 1215 q 961 1181 963 1199 l 961 1181 q 953 1154 960 1163 q 933 1146 946 1146 l 933 1146 l 374 1146 l 314 678 l 786 678 q 803 669 799 678 q 807 643 808 661 l 807 643 q 797 616 804 624 q 778 608 790 608 l 778 608 l 306 608 l 239 69 l 796 69 q 815 61 810 69 q 817 35 819 53 l 817 35 q 808 8 815 17 q 789 0 801 0 l 789 0 z m 447 -304 l 447 -304 q 404 -290 419 -304 q 389 -243 389 -275 l 389 -243 q 406 -189 389 -210 q 457 -168 424 -168 l 457 -168 q 500 -183 485 -168 q 515 -229 515 -197 l 515 -229 q 499 -284 517 -264 q 447 -304 482 -304 z m 436 1304 l 436 1304 q 415 1315 425 1304 q 406 1336 406 1325 l 406 1336 q 408 1347 406 1342 q 414 1356 410 1351 l 414 1356 l 636 1550 q 654 1564 646 1560 q 675 1568 663 1568 l 675 1568 q 694 1563 686 1568 q 708 1550 701 1558 l 708 1550 l 893 1354 q 900 1344 899 1349 q 901 1335 901 1339 l 901 1335 q 890 1313 901 1322 q 869 1304 879 1304 l 869 1304 q 856 1308 861 1304 q 844 1317 850 1311 l 844 1317 l 669 1479 l 463 1315 q 449 1307 454 1310 q 436 1304 443 1304 z m 0 -521 l 0 -507 l 921 -507 l 921 -521 l 0 -521 z m 0 0 l 0 28 l 921 28 l 921 0 l 0 0 z m 0 694 l 0 701 l 921 701 l 921 694 l 0 694 z m 0 1215 l 0 1229 l 921 1229 l 921 1215 l 0 1215 z "},"Ề":{"ha":921,"x_min":0,"x_max":999,"o":"m 789 0 l 193 0 q 165 8 174 0 q 158 32 156 15 l 158 32 l 303 1189 q 314 1209 304 1203 q 344 1215 324 1215 l 344 1215 l 940 1215 q 958 1207 954 1215 q 961 1181 963 1199 l 961 1181 q 953 1154 960 1163 q 933 1146 946 1146 l 933 1146 l 374 1146 l 314 678 l 786 678 q 803 669 799 678 q 807 643 808 661 l 807 643 q 797 616 804 624 q 778 608 790 608 l 778 608 l 306 608 l 239 69 l 796 69 q 815 61 810 69 q 817 35 819 53 l 817 35 q 808 8 815 17 q 789 0 801 0 l 789 0 z m 436 1304 l 436 1304 q 415 1315 425 1304 q 406 1336 406 1325 l 406 1336 q 408 1347 406 1342 q 414 1356 410 1351 l 414 1356 l 636 1550 q 654 1564 646 1560 q 675 1568 663 1568 l 675 1568 q 694 1563 686 1568 q 708 1550 701 1558 l 708 1550 l 893 1354 q 900 1344 899 1349 q 901 1335 901 1339 l 901 1335 q 890 1313 901 1322 q 869 1304 879 1304 l 869 1304 q 856 1308 861 1304 q 844 1317 850 1311 l 844 1317 l 669 1479 l 463 1315 q 449 1307 454 1310 q 436 1304 443 1304 z m 963 1496 l 963 1496 q 954 1498 958 1496 q 943 1506 950 1500 l 943 1506 l 742 1703 q 733 1713 735 1710 q 732 1724 732 1717 l 732 1724 q 740 1744 732 1733 q 758 1762 747 1754 q 778 1769 768 1769 l 778 1769 q 789 1766 785 1769 q 800 1757 793 1763 l 800 1757 l 990 1547 q 997 1538 996 1542 q 999 1529 999 1533 l 999 1529 q 986 1508 999 1519 q 963 1496 974 1496 z m 0 -521 l 0 -507 l 921 -507 l 921 -521 l 0 -521 z m 0 0 l 0 28 l 921 28 l 921 0 l 0 0 z m 0 694 l 0 701 l 921 701 l 921 694 l 0 694 z m 0 1215 l 0 1229 l 921 1229 l 921 1215 l 0 1215 z "},"Ể":{"ha":921,"x_min":0,"x_max":1050,"o":"m 789 0 l 193 0 q 165 8 174 0 q 158 32 156 15 l 158 32 l 303 1189 q 314 1209 304 1203 q 344 1215 324 1215 l 344 1215 l 940 1215 q 958 1207 954 1215 q 961 1181 963 1199 l 961 1181 q 953 1154 960 1163 q 933 1146 946 1146 l 933 1146 l 374 1146 l 314 678 l 786 678 q 803 669 799 678 q 807 643 808 661 l 807 643 q 797 616 804 624 q 778 608 790 608 l 778 608 l 306 608 l 239 69 l 796 69 q 815 61 810 69 q 817 35 819 53 l 817 35 q 808 8 815 17 q 789 0 801 0 l 789 0 z m 436 1304 l 436 1304 q 415 1315 425 1304 q 406 1336 406 1325 l 406 1336 q 408 1347 406 1342 q 414 1356 410 1351 l 414 1356 l 636 1550 q 654 1564 646 1560 q 675 1568 663 1568 l 675 1568 q 694 1563 686 1568 q 708 1550 701 1558 l 708 1550 l 893 1354 q 900 1344 899 1349 q 901 1335 901 1339 l 901 1335 q 890 1313 901 1322 q 869 1304 879 1304 l 869 1304 q 856 1308 861 1304 q 844 1317 850 1311 l 844 1317 l 669 1479 l 463 1315 q 449 1307 454 1310 q 436 1304 443 1304 z m 921 1765 l 921 1765 q 1015 1737 981 1765 q 1050 1664 1050 1708 l 1050 1664 q 1032 1605 1050 1631 q 974 1553 1014 1579 l 974 1553 q 938 1522 947 1536 q 936 1488 929 1508 l 936 1488 l 938 1475 q 931 1455 939 1463 q 911 1444 924 1447 q 888 1445 899 1442 q 875 1460 878 1449 l 875 1460 l 867 1488 q 872 1549 858 1522 q 915 1594 885 1575 l 915 1594 q 957 1626 944 1611 q 969 1658 969 1642 l 969 1658 q 952 1689 969 1678 q 908 1700 935 1700 l 908 1700 q 863 1693 885 1700 q 819 1674 840 1686 l 819 1674 q 779 1686 794 1658 l 779 1686 q 789 1728 768 1711 l 789 1728 q 849 1756 815 1746 q 921 1765 882 1765 z m 0 -521 l 0 -507 l 921 -507 l 921 -521 l 0 -521 z m 0 0 l 0 28 l 921 28 l 921 0 l 0 0 z m 0 694 l 0 701 l 921 701 l 921 694 l 0 694 z m 0 1215 l 0 1229 l 921 1229 l 921 1215 l 0 1215 z "},"Ễ":{"ha":921,"x_min":0,"x_max":963,"o":"m 789 0 l 193 0 q 165 8 174 0 q 158 32 156 15 l 158 32 l 303 1189 q 314 1209 304 1203 q 344 1215 324 1215 l 344 1215 l 940 1215 q 958 1207 954 1215 q 961 1181 963 1199 l 961 1181 q 953 1154 960 1163 q 933 1146 946 1146 l 933 1146 l 374 1146 l 314 678 l 786 678 q 803 669 799 678 q 807 643 808 661 l 807 643 q 797 616 804 624 q 778 608 790 608 l 778 608 l 306 608 l 239 69 l 796 69 q 815 61 810 69 q 817 35 819 53 l 817 35 q 808 8 815 17 q 789 0 801 0 l 789 0 z m 436 1304 l 436 1304 q 415 1315 425 1304 q 406 1336 406 1325 l 406 1336 q 408 1347 406 1342 q 414 1356 410 1351 l 414 1356 l 636 1550 q 654 1564 646 1560 q 675 1568 663 1568 l 675 1568 q 694 1563 686 1568 q 708 1550 701 1558 l 708 1550 l 893 1354 q 900 1344 899 1349 q 901 1335 901 1339 l 901 1335 q 890 1313 901 1322 q 869 1304 879 1304 l 869 1304 q 856 1308 861 1304 q 844 1317 850 1311 l 844 1317 l 669 1479 l 463 1315 q 449 1307 454 1310 q 436 1304 443 1304 z m 465 1586 l 465 1586 q 436 1615 435 1586 l 436 1615 q 474 1734 443 1694 q 558 1774 504 1774 l 558 1774 q 633 1756 597 1774 q 699 1717 668 1739 q 759 1677 731 1694 q 814 1660 788 1660 l 814 1660 q 853 1683 839 1660 q 872 1750 867 1706 l 872 1750 q 908 1776 875 1776 l 908 1776 q 933 1770 926 1776 q 938 1747 939 1764 l 938 1747 q 901 1630 931 1671 q 813 1589 871 1589 l 813 1589 q 739 1606 774 1589 q 673 1646 704 1624 q 613 1685 642 1668 q 558 1703 585 1703 l 558 1703 q 520 1681 533 1703 q 500 1613 507 1660 l 500 1613 q 491 1592 499 1599 q 465 1586 483 1586 z m 0 -521 l 0 -507 l 921 -507 l 921 -521 l 0 -521 z m 0 0 l 0 28 l 921 28 l 921 0 l 0 0 z m 0 694 l 0 701 l 921 701 l 921 694 l 0 694 z m 0 1215 l 0 1229 l 921 1229 l 921 1215 l 0 1215 z "},"Ẹ":{"ha":921,"x_min":0,"x_max":963,"o":"m 789 0 l 193 0 q 165 8 174 0 q 158 32 156 15 l 158 32 l 303 1189 q 314 1209 304 1203 q 344 1215 324 1215 l 344 1215 l 940 1215 q 958 1207 954 1215 q 961 1181 963 1199 l 961 1181 q 953 1154 960 1163 q 933 1146 946 1146 l 933 1146 l 374 1146 l 314 678 l 786 678 q 803 669 799 678 q 807 643 808 661 l 807 643 q 797 616 804 624 q 778 608 790 608 l 778 608 l 306 608 l 239 69 l 796 69 q 815 61 810 69 q 817 35 819 53 l 817 35 q 808 8 815 17 q 789 0 801 0 l 789 0 z m 447 -304 l 447 -304 q 404 -290 419 -304 q 389 -243 389 -275 l 389 -243 q 406 -189 389 -210 q 457 -168 424 -168 l 457 -168 q 500 -183 485 -168 q 515 -229 515 -197 l 515 -229 q 499 -284 517 -264 q 447 -304 482 -304 z m 0 -521 l 0 -507 l 921 -507 l 921 -521 l 0 -521 z m 0 0 l 0 28 l 921 28 l 921 0 l 0 0 z m 0 694 l 0 701 l 921 701 l 921 694 l 0 694 z m 0 1215 l 0 1229 l 921 1229 l 921 1215 l 0 1215 z "},"Ẻ":{"ha":921,"x_min":0,"x_max":963,"o":"m 789 0 l 193 0 q 165 8 174 0 q 158 32 156 15 l 158 32 l 303 1189 q 314 1209 304 1203 q 344 1215 324 1215 l 344 1215 l 940 1215 q 958 1207 954 1215 q 961 1181 963 1199 l 961 1181 q 953 1154 960 1163 q 933 1146 946 1146 l 933 1146 l 374 1146 l 314 678 l 786 678 q 803 669 799 678 q 807 643 808 661 l 807 643 q 797 616 804 624 q 778 608 790 608 l 778 608 l 306 608 l 239 69 l 796 69 q 815 61 810 69 q 817 35 819 53 l 817 35 q 808 8 815 17 q 789 0 801 0 l 789 0 z m 675 1606 l 675 1606 q 770 1577 735 1606 q 806 1504 806 1549 l 806 1504 q 787 1445 806 1471 q 728 1393 768 1419 l 728 1393 q 693 1363 701 1376 q 690 1328 685 1349 l 690 1328 l 692 1314 q 686 1294 694 1303 q 665 1284 678 1286 q 642 1285 653 1282 q 629 1300 632 1289 l 629 1300 l 622 1328 q 626 1389 613 1363 q 669 1435 639 1415 l 669 1435 q 712 1467 699 1451 q 725 1499 725 1482 l 725 1499 q 707 1529 725 1518 q 663 1540 689 1540 l 663 1540 q 617 1533 639 1540 q 574 1514 594 1526 l 574 1514 q 533 1526 549 1499 l 533 1526 q 544 1568 522 1551 l 544 1568 q 603 1596 569 1586 q 675 1606 636 1606 z m 0 -521 l 0 -507 l 921 -507 l 921 -521 l 0 -521 z m 0 0 l 0 28 l 921 28 l 921 0 l 0 0 z m 0 694 l 0 701 l 921 701 l 921 694 l 0 694 z m 0 1215 l 0 1229 l 921 1229 l 921 1215 l 0 1215 z "},"Ẽ":{"ha":921,"x_min":0,"x_max":963,"o":"m 789 0 l 193 0 q 165 8 174 0 q 158 32 156 15 l 158 32 l 303 1189 q 314 1209 304 1203 q 344 1215 324 1215 l 344 1215 l 940 1215 q 958 1207 954 1215 q 961 1181 963 1199 l 961 1181 q 953 1154 960 1163 q 933 1146 946 1146 l 933 1146 l 374 1146 l 314 678 l 786 678 q 803 669 799 678 q 807 643 808 661 l 807 643 q 797 616 804 624 q 778 608 790 608 l 778 608 l 306 608 l 239 69 l 796 69 q 815 61 810 69 q 817 35 819 53 l 817 35 q 808 8 815 17 q 789 0 801 0 l 789 0 z m 440 1347 l 440 1347 q 410 1376 408 1347 l 410 1376 q 447 1494 417 1454 q 532 1535 478 1535 l 532 1535 q 607 1517 572 1535 q 673 1478 642 1500 q 733 1438 704 1456 q 788 1421 761 1421 l 788 1421 q 828 1443 814 1421 q 846 1511 842 1465 l 846 1511 q 882 1538 850 1538 l 882 1538 q 907 1531 900 1538 q 913 1508 914 1525 l 913 1508 q 875 1391 906 1432 q 786 1350 844 1350 l 786 1350 q 713 1367 747 1350 q 647 1407 679 1385 q 587 1447 615 1429 q 532 1464 558 1464 l 532 1464 q 494 1442 507 1464 q 475 1374 481 1421 l 475 1374 q 465 1353 472 1360 q 440 1347 457 1347 z m 0 -521 l 0 -507 l 921 -507 l 921 -521 l 0 -521 z m 0 0 l 0 28 l 921 28 l 921 0 l 0 0 z m 0 694 l 0 701 l 921 701 l 921 694 l 0 694 z m 0 1215 l 0 1229 l 921 1229 l 921 1215 l 0 1215 z "},"Ğ":{"ha":1214,"x_min":0,"x_max":1214,"o":"m 585 -26 l 585 -26 q 406 13 486 -26 q 267 124 325 53 q 177 296 208 196 q 146 517 146 396 l 146 517 q 164 700 146 611 q 218 869 182 789 q 306 1017 254 950 q 424 1133 358 1083 q 570 1209 490 1182 q 742 1236 650 1236 l 742 1236 q 865 1221 807 1236 q 973 1174 924 1206 q 1060 1092 1022 1143 l 1060 1092 q 1066 1069 1069 1079 q 1049 1049 1063 1060 l 1049 1049 q 1026 1041 1036 1040 q 1001 1054 1015 1042 l 1001 1054 q 928 1115 968 1092 q 840 1151 888 1139 q 738 1163 792 1163 l 738 1163 q 594 1139 661 1163 q 469 1072 526 1115 q 367 969 413 1029 q 291 838 322 910 q 243 686 260 767 q 226 519 226 606 l 226 519 q 252 324 226 411 q 326 176 278 238 q 440 81 374 114 q 588 49 507 49 l 588 49 q 708 67 650 49 q 817 125 767 86 q 908 226 867 164 q 980 372 950 288 q 1026 567 1010 457 l 1026 567 l 689 567 q 669 576 674 567 q 668 601 665 585 l 668 601 q 677 628 671 621 q 699 636 683 636 l 699 636 l 1082 636 q 1106 629 1100 636 q 1108 604 1111 622 l 1108 604 q 1040 319 1089 438 q 920 124 990 200 q 765 10 850 47 q 585 -26 679 -26 z m 742 1306 l 742 1306 q 585 1365 642 1306 q 531 1540 528 1424 l 531 1540 q 539 1562 531 1554 q 564 1569 547 1569 l 564 1569 q 588 1562 581 1569 q 594 1540 594 1554 l 594 1540 q 636 1422 597 1460 q 744 1383 675 1383 l 744 1383 q 867 1423 818 1383 q 931 1540 917 1463 l 931 1540 q 941 1563 933 1556 q 964 1569 949 1569 l 964 1569 q 990 1561 981 1569 q 996 1540 999 1553 l 996 1540 q 950 1409 985 1461 q 862 1331 915 1357 q 742 1306 808 1306 z m 0 -521 l 0 -507 l 1214 -507 l 1214 -521 l 0 -521 z m 0 0 l 0 28 l 1214 28 l 1214 0 l 0 0 z m 0 694 l 0 701 l 1214 701 l 1214 694 l 0 694 z m 0 1215 l 0 1229 l 1214 1229 l 1214 1215 l 0 1215 z "},"Ĝ":{"ha":1214,"x_min":0,"x_max":1214,"o":"m 585 -26 l 585 -26 q 406 13 486 -26 q 267 124 325 53 q 177 296 208 196 q 146 517 146 396 l 146 517 q 164 700 146 611 q 218 869 182 789 q 306 1017 254 950 q 424 1133 358 1083 q 570 1209 490 1182 q 742 1236 650 1236 l 742 1236 q 865 1221 807 1236 q 973 1174 924 1206 q 1060 1092 1022 1143 l 1060 1092 q 1066 1069 1069 1079 q 1049 1049 1063 1060 l 1049 1049 q 1026 1041 1036 1040 q 1001 1054 1015 1042 l 1001 1054 q 928 1115 968 1092 q 840 1151 888 1139 q 738 1163 792 1163 l 738 1163 q 594 1139 661 1163 q 469 1072 526 1115 q 367 969 413 1029 q 291 838 322 910 q 243 686 260 767 q 226 519 226 606 l 226 519 q 252 324 226 411 q 326 176 278 238 q 440 81 374 114 q 588 49 507 49 l 588 49 q 708 67 650 49 q 817 125 767 86 q 908 226 867 164 q 980 372 950 288 q 1026 567 1010 457 l 1026 567 l 689 567 q 669 576 674 567 q 668 601 665 585 l 668 601 q 677 628 671 621 q 699 636 683 636 l 699 636 l 1082 636 q 1106 629 1100 636 q 1108 604 1111 622 l 1108 604 q 1040 319 1089 438 q 920 124 990 200 q 765 10 850 47 q 585 -26 679 -26 z m 526 1304 l 526 1304 q 506 1315 515 1304 q 496 1336 496 1325 l 496 1336 q 498 1347 496 1342 q 506 1356 500 1351 l 506 1356 l 726 1550 q 744 1564 736 1560 q 765 1568 753 1568 l 765 1568 q 784 1563 776 1568 q 799 1550 792 1558 l 799 1550 l 983 1354 q 990 1344 989 1349 q 992 1335 992 1339 l 992 1335 q 981 1313 992 1322 q 960 1304 969 1304 l 960 1304 q 946 1308 951 1304 q 935 1317 940 1311 l 935 1317 l 760 1479 l 553 1315 q 539 1307 544 1310 q 526 1304 533 1304 z m 0 -521 l 0 -507 l 1214 -507 l 1214 -521 l 0 -521 z m 0 0 l 0 28 l 1214 28 l 1214 0 l 0 0 z m 0 694 l 0 701 l 1214 701 l 1214 694 l 0 694 z m 0 1215 l 0 1229 l 1214 1229 l 1214 1215 l 0 1215 z "},"Ģ":{"ha":1214,"x_min":0,"x_max":1214,"o":"m 585 -26 l 585 -26 q 406 13 486 -26 q 267 124 325 53 q 177 296 208 196 q 146 517 146 396 l 146 517 q 164 700 146 611 q 218 869 182 789 q 306 1017 254 950 q 424 1133 358 1083 q 570 1209 490 1182 q 742 1236 650 1236 l 742 1236 q 865 1221 807 1236 q 973 1174 924 1206 q 1060 1092 1022 1143 l 1060 1092 q 1066 1069 1069 1079 q 1049 1049 1063 1060 l 1049 1049 q 1026 1041 1036 1040 q 1001 1054 1015 1042 l 1001 1054 q 928 1115 968 1092 q 840 1151 888 1139 q 738 1163 793 1163 l 738 1163 q 594 1139 661 1163 q 469 1072 526 1115 q 367 969 413 1029 q 291 838 322 910 q 243 686 260 767 q 226 519 226 606 l 226 519 q 252 324 226 411 q 326 176 278 238 q 440 81 374 114 q 588 49 507 49 l 588 49 q 708 67 650 49 q 817 125 767 86 q 908 226 867 164 q 980 372 950 288 q 1026 567 1010 457 l 1026 567 l 689 567 q 669 576 674 567 q 668 601 665 585 l 668 601 q 677 628 671 621 q 699 636 683 636 l 699 636 l 1082 636 q 1106 629 1100 636 q 1108 604 1111 622 l 1108 604 q 1040 319 1089 438 q 920 124 990 200 q 765 10 850 47 q 585 -26 679 -26 z m 468 -385 l 468 -385 q 453 -369 454 -378 q 461 -344 451 -360 l 461 -344 q 495 -280 482 -308 q 515 -219 508 -251 q 524 -140 522 -186 l 524 -140 q 533 -115 524 -124 q 560 -107 542 -107 l 560 -107 q 591 -117 581 -107 q 600 -144 601 -128 l 600 -144 q 590 -215 600 -176 q 561 -294 581 -254 q 514 -371 542 -333 l 514 -371 q 492 -388 503 -383 q 468 -385 482 -393 z m 0 -521 l 0 -507 l 1214 -507 l 1214 -521 l 0 -521 z m 0 0 l 0 28 l 1214 28 l 1214 0 l 0 0 z m 0 694 l 0 701 l 1214 701 l 1214 694 l 0 694 z m 0 1215 l 0 1229 l 1214 1229 l 1214 1215 l 0 1215 z "},"Ġ":{"ha":1214,"x_min":0,"x_max":1214,"o":"m 585 -26 l 585 -26 q 406 13 486 -26 q 267 124 325 53 q 177 296 208 196 q 146 517 146 396 l 146 517 q 164 700 146 611 q 218 869 182 789 q 306 1017 254 950 q 424 1133 358 1083 q 570 1209 490 1182 q 742 1236 650 1236 l 742 1236 q 865 1221 807 1236 q 973 1174 924 1206 q 1060 1092 1022 1143 l 1060 1092 q 1066 1069 1069 1079 q 1049 1049 1063 1060 l 1049 1049 q 1026 1041 1036 1040 q 1001 1054 1015 1042 l 1001 1054 q 928 1115 968 1092 q 840 1151 888 1139 q 738 1163 792 1163 l 738 1163 q 594 1139 661 1163 q 469 1072 526 1115 q 367 969 413 1029 q 291 838 322 910 q 243 686 260 767 q 226 519 226 606 l 226 519 q 252 324 226 411 q 326 176 278 238 q 440 81 374 114 q 588 49 507 49 l 588 49 q 708 67 650 49 q 817 125 767 86 q 908 226 867 164 q 980 372 950 288 q 1026 567 1010 457 l 1026 567 l 689 567 q 669 576 674 567 q 668 601 665 585 l 668 601 q 677 628 671 621 q 699 636 683 636 l 699 636 l 1082 636 q 1106 629 1100 636 q 1108 604 1111 622 l 1108 604 q 1040 319 1089 438 q 920 124 990 200 q 765 10 850 47 q 585 -26 679 -26 z m 744 1351 l 744 1351 q 701 1366 715 1351 q 686 1413 686 1381 l 686 1413 q 703 1467 686 1446 q 753 1489 719 1489 l 753 1489 q 797 1474 781 1489 q 813 1426 813 1458 l 813 1426 q 795 1372 813 1392 q 744 1351 778 1351 z m 0 -521 l 0 -507 l 1214 -507 l 1214 -521 l 0 -521 z m 0 0 l 0 28 l 1214 28 l 1214 0 l 0 0 z m 0 694 l 0 701 l 1214 701 l 1214 694 l 0 694 z m 0 1215 l 0 1229 l 1214 1229 l 1214 1215 l 0 1215 z "},"Ħ":{"ha":1233,"x_min":0,"x_max":1261,"o":"m 189 -19 l 189 -19 q 154 7 151 -19 l 154 7 l 306 1210 q 317 1230 307 1224 q 347 1236 326 1236 l 347 1236 q 382 1210 385 1236 l 382 1210 l 314 672 l 1000 672 l 1068 1210 q 1080 1230 1071 1224 q 1110 1236 1089 1236 l 1110 1236 q 1144 1210 1147 1236 l 1144 1210 l 993 7 q 983 -13 992 -7 q 953 -19 974 -19 l 953 -19 q 918 7 914 -19 l 918 7 l 992 603 l 306 603 l 231 7 q 219 -13 229 -7 q 189 -19 210 -19 z m 1229 904 l 149 904 q 128 913 133 904 q 125 938 124 922 l 125 938 q 133 963 128 954 q 156 972 139 972 l 156 972 l 1235 972 q 1257 963 1253 972 q 1260 938 1261 953 l 1260 938 q 1252 913 1258 922 q 1229 904 1246 904 l 1229 904 z m 0 -521 l 0 -507 l 1233 -507 l 1233 -521 l 0 -521 z m 0 0 l 0 28 l 1233 28 l 1233 0 l 0 0 z m 0 694 l 0 701 l 1233 701 l 1233 694 l 0 694 z m 0 1215 l 0 1229 l 1233 1229 l 1233 1215 l 0 1215 z "},"Ĥ":{"ha":1233,"x_min":0,"x_max":1233,"o":"m 189 -19 l 189 -19 q 154 7 151 -19 l 154 7 l 306 1210 q 317 1230 307 1224 q 347 1236 326 1236 l 347 1236 q 382 1210 385 1236 l 382 1210 l 314 672 l 1000 672 l 1068 1210 q 1080 1230 1071 1224 q 1110 1236 1089 1236 l 1110 1236 q 1144 1210 1147 1236 l 1144 1210 l 993 7 q 983 -13 992 -7 q 953 -19 974 -19 l 953 -19 q 918 7 914 -19 l 918 7 l 992 603 l 306 603 l 231 7 q 219 -13 229 -7 q 189 -19 210 -19 z m 519 1304 l 519 1304 q 500 1315 510 1304 q 490 1336 490 1325 l 490 1336 q 492 1347 490 1342 q 499 1356 493 1351 l 499 1356 l 721 1550 q 739 1564 731 1560 q 758 1568 747 1568 l 758 1568 q 778 1563 771 1568 q 793 1550 785 1558 l 793 1550 l 978 1354 q 983 1344 982 1349 q 985 1335 985 1339 l 985 1335 q 974 1313 985 1322 q 953 1304 964 1304 l 953 1304 q 940 1308 946 1304 q 929 1317 935 1311 l 929 1317 l 754 1479 l 546 1315 q 533 1307 539 1310 q 519 1304 528 1304 z m 0 -521 l 0 -507 l 1233 -507 l 1233 -521 l 0 -521 z m 0 0 l 0 28 l 1233 28 l 1233 0 l 0 0 z m 0 694 l 0 701 l 1233 701 l 1233 694 l 0 694 z m 0 1215 l 0 1229 l 1233 1229 l 1233 1215 l 0 1215 z "},"Í":{"ha":469,"x_min":0,"x_max":538,"o":"m 190 -19 l 190 -19 q 162 -12 171 -19 q 154 8 153 -6 l 154 8 l 304 1210 q 317 1230 307 1224 q 346 1236 326 1236 l 346 1236 q 374 1230 365 1236 q 381 1210 383 1224 l 381 1210 l 231 7 q 220 -12 229 -6 q 190 -19 211 -19 z m 285 1304 l 285 1304 q 263 1317 275 1304 q 250 1338 250 1329 l 250 1338 q 251 1346 250 1342 q 257 1356 251 1350 l 257 1356 l 472 1556 q 482 1565 478 1561 q 492 1568 486 1568 l 492 1568 q 513 1560 501 1568 q 531 1542 524 1553 q 538 1522 538 1532 l 538 1522 q 536 1513 538 1517 q 528 1501 535 1508 l 528 1501 l 304 1314 q 293 1307 297 1310 q 285 1304 289 1304 z m 0 -521 l 0 -507 l 469 -507 l 469 -521 l 0 -521 z m 0 0 l 0 28 l 469 28 l 469 0 l 0 0 z m 0 694 l 0 701 l 469 701 l 469 694 l 0 694 z m 0 1215 l 0 1229 l 469 1229 l 469 1215 l 0 1215 z "},"Ĭ":{"ha":469,"x_min":0,"x_max":615,"o":"m 189 -19 l 189 -19 q 161 -13 169 -19 q 154 8 153 -7 l 154 8 l 304 1210 q 316 1230 307 1224 q 346 1236 325 1236 l 346 1236 q 374 1230 365 1236 q 381 1210 383 1224 l 381 1210 l 231 7 q 220 -13 229 -7 q 189 -19 211 -19 z m 358 1306 l 358 1306 q 202 1365 260 1306 q 147 1540 144 1424 l 147 1540 q 157 1562 149 1554 q 182 1569 165 1569 l 182 1569 q 204 1562 197 1569 q 213 1540 211 1554 l 213 1540 q 253 1422 214 1460 q 361 1383 293 1383 l 361 1383 q 485 1423 436 1383 q 547 1540 533 1463 l 547 1540 q 558 1563 551 1556 q 582 1569 565 1569 l 582 1569 q 607 1561 599 1569 q 614 1540 615 1553 l 614 1540 q 567 1409 603 1461 q 479 1331 532 1357 q 358 1306 426 1306 z m 0 -521 l 0 -507 l 469 -507 l 469 -521 l 0 -521 z m 0 0 l 0 28 l 469 28 l 469 0 l 0 0 z m 0 694 l 0 701 l 469 701 l 469 694 l 0 694 z m 0 1215 l 0 1229 l 469 1229 l 469 1215 l 0 1215 z "},"Ǐ":{"ha":469,"x_min":0,"x_max":622,"o":"m 189 -19 l 189 -19 q 161 -13 169 -19 q 154 8 153 -7 l 154 8 l 304 1210 q 316 1230 307 1224 q 346 1236 325 1236 l 346 1236 q 374 1230 365 1236 q 381 1210 383 1224 l 381 1210 l 231 7 q 220 -13 229 -7 q 189 -19 211 -19 z m 590 1568 l 590 1568 q 613 1558 603 1568 q 622 1536 622 1547 l 622 1536 q 620 1526 622 1531 q 613 1517 618 1522 l 613 1517 l 392 1321 q 373 1309 381 1314 q 353 1304 365 1304 l 353 1304 q 334 1309 342 1304 q 319 1322 326 1314 l 319 1322 l 133 1518 q 128 1529 129 1524 q 126 1538 126 1535 l 126 1538 q 138 1559 126 1550 q 158 1568 149 1568 l 158 1568 q 172 1565 167 1568 q 183 1556 176 1561 l 183 1556 l 358 1394 l 565 1556 q 578 1565 574 1561 q 590 1568 583 1568 z m 0 -521 l 0 -507 l 469 -507 l 469 -521 l 0 -521 z m 0 0 l 0 28 l 469 28 l 469 0 l 0 0 z m 0 694 l 0 701 l 469 701 l 469 694 l 0 694 z m 0 1215 l 0 1229 l 469 1229 l 469 1215 l 0 1215 z "},"Î":{"ha":469,"x_min":0,"x_max":608,"o":"m 189 -19 l 189 -19 q 161 -13 169 -19 q 154 8 153 -7 l 154 8 l 304 1210 q 316 1230 307 1224 q 346 1236 325 1236 l 346 1236 q 374 1230 365 1236 q 381 1210 383 1224 l 381 1210 l 231 7 q 220 -13 229 -7 q 189 -19 211 -19 z m 143 1304 l 143 1304 q 124 1315 133 1304 q 114 1336 114 1325 l 114 1336 q 115 1347 114 1342 q 122 1356 117 1351 l 122 1356 l 344 1550 q 363 1564 354 1560 q 382 1568 371 1568 l 382 1568 q 401 1563 393 1568 q 417 1550 408 1558 l 417 1550 l 601 1354 q 607 1344 606 1349 q 608 1335 608 1339 l 608 1335 q 598 1313 608 1322 q 576 1304 588 1304 l 576 1304 q 564 1308 569 1304 q 551 1317 558 1311 l 551 1317 l 376 1479 l 169 1315 q 156 1307 163 1310 q 143 1304 150 1304 z m 0 -521 l 0 -507 l 469 -507 l 469 -521 l 0 -521 z m 0 0 l 0 28 l 469 28 l 469 0 l 0 0 z m 0 694 l 0 701 l 469 701 l 469 694 l 0 694 z m 0 1215 l 0 1229 l 469 1229 l 469 1215 l 0 1215 z "},"Ï":{"ha":469,"x_min":0,"x_max":600,"o":"m 190 -19 l 190 -19 q 161 -12 169 -19 q 154 8 153 -6 l 154 8 l 304 1210 q 317 1230 307 1224 q 346 1236 326 1236 l 346 1236 q 374 1230 365 1236 q 381 1210 383 1224 l 381 1210 l 231 7 q 220 -12 229 -6 q 190 -19 211 -19 z m 192 1351 l 192 1351 q 148 1366 163 1351 q 133 1411 133 1381 l 133 1411 q 151 1467 133 1446 q 200 1489 168 1489 l 200 1489 q 244 1473 229 1489 q 260 1426 260 1457 l 260 1426 q 242 1372 260 1392 q 192 1351 225 1351 z m 532 1351 l 532 1351 q 488 1366 503 1351 q 472 1411 472 1381 l 472 1411 q 490 1467 472 1446 q 540 1489 507 1489 l 540 1489 q 583 1473 568 1489 q 599 1426 599 1457 l 599 1426 q 583 1372 600 1392 q 532 1351 565 1351 z m 0 -521 l 0 -507 l 469 -507 l 469 -521 l 0 -521 z m 0 0 l 0 28 l 469 28 l 469 0 l 0 0 z m 0 694 l 0 701 l 469 701 l 469 694 l 0 694 z m 0 1215 l 0 1229 l 469 1229 l 469 1215 l 0 1215 z "},"İ":{"ha":469,"x_min":0,"x_max":469,"o":"m 190 -19 l 190 -19 q 161 -12 169 -19 q 154 8 153 -6 l 154 8 l 304 1210 q 317 1230 307 1224 q 346 1236 326 1236 l 346 1236 q 374 1230 365 1236 q 381 1210 383 1224 l 381 1210 l 231 7 q 220 -12 229 -6 q 190 -19 211 -19 z m 361 1351 l 361 1351 q 318 1366 333 1351 q 303 1411 303 1381 l 303 1411 q 320 1467 303 1446 q 371 1489 338 1489 l 371 1489 q 414 1473 399 1489 q 429 1426 429 1457 l 429 1426 q 413 1372 429 1392 q 361 1351 396 1351 z m 0 -521 l 0 -507 l 469 -507 l 469 -521 l 0 -521 z m 0 0 l 0 28 l 469 28 l 469 0 l 0 0 z m 0 694 l 0 701 l 469 701 l 469 694 l 0 694 z m 0 1215 l 0 1229 l 469 1229 l 469 1215 l 0 1215 z "},"Ì":{"ha":469,"x_min":0,"x_max":469,"o":"m 190 -19 l 190 -19 q 161 -12 169 -19 q 154 8 153 -6 l 154 8 l 304 1210 q 317 1230 307 1224 q 346 1236 326 1236 l 346 1236 q 374 1230 365 1236 q 381 1210 383 1224 l 381 1210 l 231 7 q 220 -12 229 -6 q 190 -19 211 -19 z m 429 1304 l 429 1304 q 419 1307 424 1304 q 410 1314 415 1310 l 410 1314 l 197 1501 q 190 1513 192 1508 q 188 1522 188 1517 l 188 1522 q 195 1542 188 1532 q 214 1560 203 1553 q 233 1568 225 1568 l 233 1568 q 244 1565 240 1568 q 254 1556 249 1561 l 254 1556 l 456 1356 q 463 1346 463 1350 q 464 1339 464 1342 l 464 1339 q 451 1317 464 1329 q 429 1304 439 1304 z m 0 -521 l 0 -507 l 469 -507 l 469 -521 l 0 -521 z m 0 0 l 0 28 l 469 28 l 469 0 l 0 0 z m 0 694 l 0 701 l 469 701 l 469 694 l 0 694 z m 0 1215 l 0 1229 l 469 1229 l 469 1215 l 0 1215 z "},"Ī":{"ha":469,"x_min":0,"x_max":583,"o":"m 189 -19 l 189 -19 q 161 -13 169 -19 q 154 8 153 -7 l 154 8 l 304 1210 q 316 1230 307 1224 q 346 1236 325 1236 l 346 1236 q 374 1230 365 1236 q 381 1210 383 1224 l 381 1210 l 231 7 q 220 -13 229 -7 q 189 -19 211 -19 z m 550 1403 l 179 1403 q 159 1412 164 1403 q 156 1438 154 1421 l 156 1438 q 165 1465 158 1456 q 188 1475 172 1475 l 188 1475 l 558 1475 q 579 1465 575 1475 q 582 1438 583 1456 l 582 1438 q 574 1412 581 1421 q 550 1403 567 1403 l 550 1403 z m 0 -521 l 0 -507 l 469 -507 l 469 -521 l 0 -521 z m 0 0 l 0 28 l 469 28 l 469 0 l 0 0 z m 0 694 l 0 701 l 469 701 l 469 694 l 0 694 z m 0 1215 l 0 1229 l 469 1229 l 469 1215 l 0 1215 z "},"Į":{"ha":469,"x_min":-47,"x_max":469,"o":"m 189 -19 l 189 -19 q 161 -13 169 -19 q 154 8 153 -7 l 154 8 l 304 1210 q 316 1230 307 1224 q 346 1236 325 1236 l 346 1236 q 374 1230 365 1236 q 381 1210 383 1224 l 381 1210 l 231 7 q 220 -13 229 -7 q 189 -19 211 -19 z m 53 -364 l 53 -364 q -19 -339 8 -364 q -47 -265 -47 -314 l -47 -265 q -33 -201 -47 -233 q 9 -135 -18 -168 q 76 -66 36 -101 q 165 8 115 -31 l 165 8 l 222 4 l 222 -1 q 147 -69 182 -36 q 84 -133 111 -101 q 42 -193 57 -164 q 28 -250 28 -222 l 28 -250 q 38 -286 28 -272 q 71 -300 49 -300 l 71 -300 q 128 -281 99 -300 q 188 -226 157 -262 l 188 -226 q 205 -217 194 -218 q 225 -224 215 -215 l 225 -224 q 237 -244 235 -233 q 232 -264 239 -254 l 232 -264 q 181 -317 211 -294 q 118 -352 151 -340 q 53 -364 85 -364 z m 0 -521 l 0 -507 l 469 -507 l 469 -521 l 0 -521 z m 0 0 l 0 28 l 469 28 l 469 0 l 0 0 z m 0 694 l 0 701 l 469 701 l 469 694 l 0 694 z m 0 1215 l 0 1229 l 469 1229 l 469 1215 l 0 1215 z "},"Ĩ":{"ha":469,"x_min":0,"x_max":621,"o":"m 189 -19 l 189 -19 q 161 -13 169 -19 q 154 8 153 -7 l 154 8 l 304 1210 q 316 1230 307 1224 q 346 1236 325 1236 l 346 1236 q 374 1230 365 1236 q 381 1210 383 1224 l 381 1210 l 231 7 q 220 -13 229 -7 q 189 -19 211 -19 z m 147 1347 l 147 1347 q 118 1376 117 1347 l 118 1376 q 156 1494 125 1454 q 240 1535 186 1535 l 240 1535 q 315 1517 279 1535 q 381 1478 350 1500 q 441 1438 413 1456 q 496 1421 469 1421 l 496 1421 q 535 1443 522 1421 q 554 1511 549 1465 l 554 1511 q 589 1538 557 1538 l 589 1538 q 615 1531 608 1538 q 619 1508 621 1525 l 619 1508 q 583 1391 613 1432 q 494 1350 553 1350 l 494 1350 q 421 1367 456 1350 q 355 1407 386 1385 q 295 1447 324 1429 q 240 1464 267 1464 l 240 1464 q 202 1442 215 1464 q 182 1374 189 1421 l 182 1374 q 173 1353 181 1360 q 147 1347 165 1347 z m 0 -521 l 0 -507 l 469 -507 l 469 -521 l 0 -521 z m 0 0 l 0 28 l 469 28 l 469 0 l 0 0 z m 0 694 l 0 701 l 469 701 l 469 694 l 0 694 z m 0 1215 l 0 1229 l 469 1229 l 469 1215 l 0 1215 z "},"Ị":{"ha":469,"x_min":0,"x_max":469,"o":"m 190 -19 l 190 -19 q 161 -12 169 -19 q 154 8 153 -6 l 154 8 l 304 1210 q 317 1230 307 1224 q 346 1236 326 1236 l 346 1236 q 374 1230 365 1236 q 381 1210 383 1224 l 381 1210 l 231 7 q 220 -12 229 -6 q 190 -19 211 -19 z m 157 -304 l 157 -304 q 113 -290 128 -304 q 97 -244 97 -275 l 97 -244 q 115 -189 97 -210 q 165 -168 132 -168 l 165 -168 q 208 -183 193 -168 q 224 -229 224 -199 l 224 -229 q 208 -284 225 -264 q 157 -304 190 -304 z m 0 -521 l 0 -507 l 469 -507 l 469 -521 l 0 -521 z m 0 0 l 0 28 l 469 28 l 469 0 l 0 0 z m 0 694 l 0 701 l 469 701 l 469 694 l 0 694 z m 0 1215 l 0 1229 l 469 1229 l 469 1215 l 0 1215 z "},"Ỉ":{"ha":469,"x_min":0,"x_max":513,"o":"m 189 -19 l 189 -19 q 161 -13 169 -19 q 154 8 153 -7 l 154 8 l 304 1210 q 316 1230 307 1224 q 346 1236 325 1236 l 346 1236 q 374 1230 365 1236 q 381 1210 383 1224 l 381 1210 l 231 7 q 220 -13 229 -7 q 189 -19 211 -19 z m 383 1606 l 383 1606 q 478 1577 443 1606 q 513 1504 513 1549 l 513 1504 q 494 1445 513 1471 q 435 1393 476 1419 l 435 1393 q 401 1363 410 1376 q 399 1328 392 1349 l 399 1328 l 399 1314 q 394 1294 401 1303 q 374 1284 386 1286 q 351 1285 361 1282 q 338 1300 340 1289 l 338 1300 l 329 1328 q 334 1389 321 1363 q 378 1435 347 1415 l 378 1435 q 419 1467 407 1451 q 432 1499 432 1482 l 432 1499 q 415 1529 432 1518 q 369 1540 397 1540 l 369 1540 q 324 1533 347 1540 q 281 1514 301 1526 l 281 1514 q 242 1526 256 1499 l 242 1526 q 251 1568 229 1551 l 251 1568 q 311 1596 278 1586 q 383 1606 344 1606 z m 0 -521 l 0 -507 l 469 -507 l 469 -521 l 0 -521 z m 0 0 l 0 28 l 469 28 l 469 0 l 0 0 z m 0 694 l 0 701 l 469 701 l 469 694 l 0 694 z m 0 1215 l 0 1229 l 469 1229 l 469 1215 l 0 1215 z "},"Ĵ":{"ha":903,"x_min":0,"x_max":1068,"o":"m 389 -26 l 389 -26 q 247 2 313 -26 q 134 85 182 31 q 65 215 86 139 l 65 215 q 67 242 60 233 q 88 254 74 250 l 88 254 q 116 255 106 260 q 133 232 126 250 l 133 232 q 188 133 154 174 q 272 70 222 92 q 390 49 322 49 l 390 49 q 474 60 436 49 q 542 95 511 71 q 594 158 572 119 q 633 250 617 196 q 658 375 649 304 l 658 375 l 764 1210 q 776 1230 765 1224 q 806 1236 786 1236 l 806 1236 q 834 1230 826 1236 q 840 1210 842 1224 l 840 1210 l 736 378 q 704 227 725 293 q 653 113 683 161 q 585 34 624 65 q 497 -12 546 3 q 389 -26 447 -26 z m 603 1304 l 603 1304 q 582 1315 592 1304 q 572 1336 572 1325 l 572 1336 q 574 1347 572 1342 q 582 1356 576 1351 l 582 1356 l 803 1550 q 821 1564 813 1560 q 842 1568 829 1568 l 842 1568 q 860 1563 853 1568 q 875 1550 868 1558 l 875 1550 l 1060 1354 q 1067 1344 1065 1349 q 1068 1335 1068 1339 l 1068 1335 q 1058 1313 1068 1322 q 1036 1304 1047 1304 l 1036 1304 q 1023 1308 1029 1304 q 1011 1317 1017 1311 l 1011 1317 l 836 1479 l 629 1315 q 616 1307 622 1310 q 603 1304 610 1304 z m 0 -521 l 0 -507 l 903 -507 l 903 -521 l 0 -521 z m 0 0 l 0 28 l 903 28 l 903 0 l 0 0 z m 0 694 l 0 701 l 903 701 l 903 694 l 0 694 z m 0 1215 l 0 1229 l 903 1229 l 903 1215 l 0 1215 z "},"Ķ":{"ha":956,"x_min":0,"x_max":1006,"o":"m 189 -19 l 189 -19 q 160 -13 169 -19 q 154 7 151 -7 l 154 7 l 306 1210 q 347 1236 308 1236 l 347 1236 q 382 1210 385 1236 l 382 1210 l 314 671 l 944 1222 q 969 1235 958 1236 q 993 1221 981 1235 l 993 1221 q 1006 1196 1006 1206 q 993 1175 1006 1186 l 993 1175 l 378 639 q 537 421 454 526 q 708 219 619 315 q 886 38 796 124 l 886 38 q 898 14 899 25 q 881 -12 897 3 l 881 -12 q 855 -22 867 -24 q 831 -8 843 -19 l 831 -8 q 688 135 758 60 q 551 290 618 210 q 423 453 485 371 q 307 618 361 536 l 307 618 l 231 7 q 218 -13 228 -7 q 189 -19 208 -19 z m 381 -386 l 381 -386 q 367 -369 368 -378 q 374 -344 365 -360 l 374 -344 q 408 -280 394 -308 q 428 -219 421 -251 q 436 -140 435 -186 l 436 -140 q 447 -115 438 -124 q 474 -107 456 -107 l 474 -107 q 504 -117 494 -107 q 514 -144 514 -128 l 514 -144 q 503 -215 513 -176 q 474 -294 493 -254 q 426 -371 456 -333 l 426 -371 q 406 -388 417 -383 q 381 -386 396 -393 z m 0 -521 l 0 -507 l 956 -507 l 956 -521 l 0 -521 z m 0 0 l 0 28 l 956 28 l 956 0 l 0 0 z m 0 694 l 0 701 l 956 701 l 956 694 l 0 694 z m 0 1215 l 0 1229 l 956 1229 l 956 1215 l 0 1215 z "},"Ĺ":{"ha":868,"x_min":0,"x_max":868,"o":"m 765 0 l 192 0 q 157 32 153 0 l 157 32 l 306 1210 q 316 1230 307 1224 q 346 1236 325 1236 l 346 1236 q 374 1230 365 1236 q 382 1210 383 1224 l 382 1210 l 238 69 l 772 69 q 790 61 786 69 q 793 35 794 53 l 793 35 q 785 8 792 17 q 765 0 778 0 l 765 0 z m 288 1304 l 288 1304 q 265 1317 278 1304 q 253 1338 253 1329 l 253 1338 q 254 1346 253 1342 q 261 1356 256 1350 l 261 1356 l 475 1556 q 485 1565 481 1561 q 494 1568 489 1568 l 494 1568 q 515 1560 504 1568 q 534 1542 526 1553 q 542 1522 542 1532 l 542 1522 q 540 1513 542 1517 q 531 1501 538 1508 l 531 1501 l 307 1314 q 297 1307 300 1310 q 288 1304 293 1304 z m 0 -521 l 0 -507 l 868 -507 l 868 -521 l 0 -521 z m 0 0 l 0 28 l 868 28 l 868 0 l 0 0 z m 0 694 l 0 701 l 868 701 l 868 694 l 0 694 z m 0 1215 l 0 1229 l 868 1229 l 868 1215 l 0 1215 z "},"Ľ":{"ha":868,"x_min":0,"x_max":868,"o":"m 765 0 l 192 0 q 157 32 153 0 l 157 32 l 306 1210 q 316 1230 307 1224 q 346 1236 325 1236 l 346 1236 q 374 1230 365 1236 q 382 1210 383 1224 l 382 1210 l 238 69 l 772 69 q 790 61 786 69 q 793 35 794 53 l 793 35 q 785 8 792 17 q 765 0 778 0 l 765 0 z m 525 918 l 525 918 q 508 933 511 924 q 510 957 504 942 l 510 957 q 535 1033 522 989 q 559 1125 549 1078 q 574 1210 569 1172 l 574 1210 q 582 1233 574 1224 q 611 1243 590 1243 l 611 1243 q 644 1233 635 1243 q 651 1210 654 1224 l 651 1210 q 633 1118 647 1169 q 601 1018 619 1067 q 565 935 583 969 l 565 935 q 553 918 561 924 q 525 918 544 913 z m 0 -521 l 0 -507 l 868 -507 l 868 -521 l 0 -521 z m 0 0 l 0 28 l 868 28 l 868 0 l 0 0 z m 0 694 l 0 701 l 868 701 l 868 694 l 0 694 z m 0 1215 l 0 1229 l 868 1229 l 868 1215 l 0 1215 z "},"Ļ":{"ha":868,"x_min":0,"x_max":868,"o":"m 765 0 l 192 0 q 157 32 153 0 l 157 32 l 306 1210 q 316 1230 307 1224 q 346 1236 325 1236 l 346 1236 q 374 1230 365 1236 q 382 1210 383 1224 l 382 1210 l 238 69 l 772 69 q 790 61 786 69 q 793 35 794 53 l 793 35 q 785 8 792 17 q 765 0 778 0 l 765 0 z m 372 -386 l 372 -386 q 358 -369 360 -378 q 365 -344 357 -360 l 365 -344 q 399 -280 386 -308 q 419 -219 413 -251 q 428 -140 426 -186 l 428 -140 q 438 -115 429 -124 q 465 -107 447 -107 l 465 -107 q 495 -117 485 -107 q 506 -144 506 -128 l 506 -144 q 494 -215 504 -176 q 466 -294 485 -254 q 418 -371 447 -333 l 418 -371 q 397 -388 408 -383 q 372 -386 386 -393 z m 0 -521 l 0 -507 l 868 -507 l 868 -521 l 0 -521 z m 0 0 l 0 28 l 868 28 l 868 0 l 0 0 z m 0 694 l 0 701 l 868 701 l 868 694 l 0 694 z m 0 1215 l 0 1229 l 868 1229 l 868 1215 l 0 1215 z "},"Ŀ":{"ha":868,"x_min":0,"x_max":868,"o":"m 765 0 l 192 0 q 157 32 153 0 l 157 32 l 306 1210 q 317 1230 307 1224 q 346 1236 326 1236 l 346 1236 q 374 1230 365 1236 q 382 1210 383 1224 l 382 1210 l 238 69 l 772 69 q 790 61 786 69 q 793 35 794 53 l 793 35 q 785 8 792 17 q 765 0 778 0 l 765 0 z m 678 568 l 678 568 q 634 583 650 568 q 618 629 618 599 l 618 629 q 636 685 618 664 q 688 706 654 706 l 688 706 q 731 690 715 706 q 746 643 746 675 l 746 643 q 728 589 746 610 q 678 568 711 568 z m 0 -521 l 0 -507 l 868 -507 l 868 -521 l 0 -521 z m 0 0 l 0 28 l 868 28 l 868 0 l 0 0 z m 0 694 l 0 701 l 868 701 l 868 694 l 0 694 z m 0 1215 l 0 1229 l 868 1229 l 868 1215 l 0 1215 z "},"Ł":{"ha":868,"x_min":0,"x_max":868,"o":"m 765 0 l 192 0 q 157 32 153 0 l 157 32 l 306 1210 q 316 1230 307 1224 q 346 1236 325 1236 l 346 1236 q 374 1230 365 1236 q 382 1210 383 1224 l 382 1210 l 238 69 l 772 69 q 790 61 786 69 q 793 35 794 53 l 793 35 q 785 8 792 17 q 765 0 778 0 l 765 0 z m 557 728 l 110 508 q 88 506 96 501 q 71 525 79 510 l 71 525 q 68 550 67 539 q 83 568 69 561 l 83 568 l 529 786 q 551 789 543 793 q 567 771 560 785 l 567 771 q 557 728 581 739 l 557 728 z m 0 -521 l 0 -507 l 868 -507 l 868 -521 l 0 -521 z m 0 0 l 0 28 l 868 28 l 868 0 l 0 0 z m 0 694 l 0 701 l 868 701 l 868 694 l 0 694 z m 0 1215 l 0 1229 l 868 1229 l 868 1215 l 0 1215 z "},"Ń":{"ha":1233,"x_min":0,"x_max":1233,"o":"m 189 -19 l 189 -19 q 154 7 151 -19 l 154 7 l 306 1210 q 317 1230 307 1224 q 344 1236 326 1236 l 344 1236 q 370 1231 361 1236 q 386 1214 379 1226 l 386 1214 l 932 133 l 1068 1210 q 1081 1230 1071 1224 q 1110 1236 1090 1236 l 1110 1236 q 1144 1210 1147 1236 l 1144 1210 l 993 7 q 982 -13 992 -7 q 954 -19 972 -19 l 954 -19 q 931 -15 939 -19 q 917 3 924 -10 l 917 3 l 368 1089 l 231 7 q 219 -13 229 -7 q 189 -19 210 -19 z m 671 1304 l 671 1304 q 649 1317 661 1304 q 636 1338 636 1329 l 636 1338 q 637 1346 636 1342 q 644 1356 638 1350 l 644 1356 l 858 1556 q 868 1565 864 1561 q 878 1568 872 1568 l 878 1568 q 899 1560 888 1568 q 917 1542 910 1553 q 924 1522 924 1532 l 924 1522 q 922 1513 924 1517 q 914 1501 921 1508 l 914 1501 l 690 1314 q 679 1307 683 1310 q 671 1304 675 1304 z m 0 -521 l 0 -507 l 1233 -507 l 1233 -521 l 0 -521 z m 0 0 l 0 28 l 1233 28 l 1233 0 l 0 0 z m 0 694 l 0 701 l 1233 701 l 1233 694 l 0 694 z m 0 1215 l 0 1229 l 1233 1229 l 1233 1215 l 0 1215 z "},"Ň":{"ha":1233,"x_min":0,"x_max":1233,"o":"m 189 -19 l 189 -19 q 154 7 151 -19 l 154 7 l 306 1210 q 317 1230 307 1224 q 344 1236 326 1236 l 344 1236 q 370 1231 361 1236 q 386 1214 379 1226 l 386 1214 l 932 133 l 1068 1210 q 1081 1230 1071 1224 q 1110 1236 1090 1236 l 1110 1236 q 1144 1210 1147 1236 l 1144 1210 l 993 7 q 982 -13 992 -7 q 954 -19 972 -19 l 954 -19 q 931 -15 939 -19 q 917 3 924 -10 l 917 3 l 368 1089 l 231 7 q 219 -13 229 -7 q 189 -19 210 -19 z m 978 1568 l 978 1568 q 999 1558 989 1568 q 1008 1536 1008 1547 l 1008 1536 q 1006 1526 1008 1531 q 999 1517 1004 1522 l 999 1517 l 778 1321 q 759 1309 767 1314 q 739 1304 751 1304 l 739 1304 q 720 1309 728 1304 q 706 1322 713 1314 l 706 1322 l 519 1518 q 514 1529 515 1524 q 513 1538 513 1535 l 513 1538 q 524 1559 513 1550 q 544 1568 535 1568 l 544 1568 q 558 1565 553 1568 q 569 1556 564 1561 l 569 1556 l 744 1394 l 951 1556 q 965 1565 960 1561 q 978 1568 969 1568 z m 0 -521 l 0 -507 l 1233 -507 l 1233 -521 l 0 -521 z m 0 0 l 0 28 l 1233 28 l 1233 0 l 0 0 z m 0 694 l 0 701 l 1233 701 l 1233 694 l 0 694 z m 0 1215 l 0 1229 l 1233 1229 l 1233 1215 l 0 1215 z "},"Ņ":{"ha":1233,"x_min":0,"x_max":1233,"o":"m 189 -19 l 189 -19 q 154 7 151 -19 l 154 7 l 306 1210 q 317 1230 307 1224 q 344 1236 326 1236 l 344 1236 q 370 1231 361 1236 q 386 1214 379 1226 l 386 1214 l 932 133 l 1068 1210 q 1081 1230 1071 1224 q 1110 1236 1090 1236 l 1110 1236 q 1144 1210 1147 1236 l 1144 1210 l 993 7 q 982 -13 992 -7 q 954 -19 972 -19 l 954 -19 q 931 -15 939 -19 q 917 3 924 -10 l 917 3 l 368 1089 l 231 7 q 219 -13 229 -7 q 189 -19 210 -19 z m 468 -386 l 468 -386 q 454 -369 456 -378 q 461 -344 453 -360 l 461 -344 q 495 -280 482 -308 q 515 -219 508 -251 q 524 -140 522 -186 l 524 -140 q 534 -115 525 -124 q 561 -107 543 -107 l 561 -107 q 591 -117 581 -107 q 601 -144 601 -128 l 601 -144 q 590 -215 600 -176 q 562 -294 581 -254 q 514 -371 543 -333 l 514 -371 q 493 -388 504 -383 q 468 -386 482 -393 z m 0 -521 l 0 -507 l 1233 -507 l 1233 -521 l 0 -521 z m 0 0 l 0 28 l 1233 28 l 1233 0 l 0 0 z m 0 694 l 0 701 l 1233 701 l 1233 694 l 0 694 z m 0 1215 l 0 1229 l 1233 1229 l 1233 1215 l 0 1215 z "},"Ñ":{"ha":1233,"x_min":0,"x_max":1233,"o":"m 189 -19 l 189 -19 q 154 7 151 -19 l 154 7 l 306 1210 q 317 1230 307 1224 q 344 1236 326 1236 l 344 1236 q 370 1231 361 1236 q 386 1214 379 1226 l 386 1214 l 932 133 l 1068 1210 q 1081 1230 1071 1224 q 1110 1236 1090 1236 l 1110 1236 q 1144 1210 1147 1236 l 1144 1210 l 993 7 q 982 -13 992 -7 q 954 -19 972 -19 l 954 -19 q 931 -15 939 -19 q 917 3 924 -10 l 917 3 l 368 1089 l 231 7 q 219 -13 229 -7 q 189 -19 210 -19 z m 533 1347 l 533 1347 q 504 1376 503 1347 l 504 1376 q 542 1494 511 1454 q 626 1535 572 1535 l 626 1535 q 701 1517 667 1535 q 767 1478 736 1500 q 827 1438 799 1456 q 882 1421 856 1421 l 882 1421 q 922 1443 908 1421 q 940 1511 935 1465 l 940 1511 q 975 1538 944 1538 l 975 1538 q 1001 1531 994 1538 q 1007 1508 1007 1525 l 1007 1508 q 969 1391 999 1432 q 881 1350 939 1350 l 881 1350 q 807 1367 842 1350 q 741 1407 772 1385 q 681 1447 710 1429 q 626 1464 653 1464 l 626 1464 q 588 1442 601 1464 q 568 1374 575 1421 l 568 1374 q 559 1353 567 1360 q 533 1347 551 1347 z m 0 -521 l 0 -507 l 1233 -507 l 1233 -521 l 0 -521 z m 0 0 l 0 28 l 1233 28 l 1233 0 l 0 0 z m 0 694 l 0 701 l 1233 701 l 1233 694 l 0 694 z m 0 1215 l 0 1229 l 1233 1229 l 1233 1215 l 0 1215 z "},"Ó":{"ha":1285,"x_min":0,"x_max":1285,"o":"m 621 -26 l 621 -26 q 428 13 515 -26 q 278 126 340 53 q 181 301 215 199 q 147 532 147 404 l 147 532 q 165 711 147 624 q 219 877 183 799 q 305 1021 254 956 q 421 1135 356 1086 q 565 1210 486 1183 q 735 1236 644 1236 l 735 1236 q 926 1197 840 1236 q 1075 1086 1013 1158 q 1171 913 1138 1014 q 1204 686 1204 811 l 1204 686 q 1186 505 1204 593 q 1133 337 1168 417 q 1047 191 1097 257 q 931 76 996 125 q 788 1 865 28 q 621 -26 710 -26 z m 625 49 l 625 49 q 766 72 700 49 q 888 139 832 96 q 988 241 944 182 q 1061 371 1031 300 q 1108 521 1092 442 q 1124 683 1124 600 l 1124 683 q 1096 885 1124 796 q 1015 1035 1068 974 q 890 1130 963 1097 q 731 1163 818 1163 l 731 1163 q 589 1140 656 1163 q 466 1074 522 1117 q 366 974 410 1032 q 291 845 322 915 q 244 697 260 775 q 228 535 228 618 l 228 535 q 257 331 228 421 q 338 177 286 240 q 463 81 390 114 q 625 49 536 49 z m 683 1304 l 683 1304 q 661 1317 674 1304 q 649 1338 649 1329 l 649 1338 q 650 1346 649 1342 q 657 1356 651 1350 l 657 1356 l 871 1556 q 881 1565 876 1561 q 892 1568 885 1568 l 892 1568 q 911 1560 900 1568 q 930 1542 922 1553 q 938 1522 938 1532 l 938 1522 q 935 1513 938 1517 q 926 1501 933 1508 l 926 1501 l 703 1314 q 692 1307 696 1310 q 683 1304 689 1304 z m 0 -521 l 0 -507 l 1285 -507 l 1285 -521 l 0 -521 z m 0 0 l 0 28 l 1285 28 l 1285 0 l 0 0 z m 0 694 l 0 701 l 1285 701 l 1285 694 l 0 694 z m 0 1215 l 0 1229 l 1285 1229 l 1285 1215 l 0 1215 z "},"Ŏ":{"ha":1285,"x_min":0,"x_max":1285,"o":"m 621 -26 l 621 -26 q 428 13 515 -26 q 278 126 340 53 q 181 301 215 199 q 147 532 147 404 l 147 532 q 165 711 147 624 q 219 877 183 799 q 305 1021 254 956 q 421 1135 356 1086 q 565 1210 486 1183 q 735 1236 644 1236 l 735 1236 q 926 1197 840 1236 q 1075 1086 1013 1158 q 1171 913 1138 1014 q 1204 686 1204 811 l 1204 686 q 1186 505 1204 593 q 1133 337 1168 417 q 1047 191 1097 257 q 931 76 996 125 q 788 1 865 28 q 621 -26 710 -26 z m 625 49 l 625 49 q 766 72 700 49 q 888 139 832 96 q 988 241 944 182 q 1061 371 1031 300 q 1108 521 1092 442 q 1124 683 1124 600 l 1124 683 q 1096 885 1124 796 q 1015 1035 1068 974 q 890 1130 963 1097 q 731 1163 818 1163 l 731 1163 q 589 1140 656 1163 q 466 1074 522 1117 q 366 974 410 1032 q 291 845 322 915 q 244 697 260 775 q 228 535 228 618 l 228 535 q 257 331 228 421 q 338 177 286 240 q 463 81 390 114 q 625 49 536 49 z m 758 1306 l 758 1306 q 601 1365 658 1306 q 547 1540 544 1424 l 547 1540 q 556 1562 547 1554 q 581 1569 564 1569 l 581 1569 q 604 1562 597 1569 q 611 1540 611 1554 l 611 1540 q 653 1422 614 1460 q 761 1383 692 1383 l 761 1383 q 884 1423 835 1383 q 947 1540 933 1463 l 947 1540 q 958 1563 950 1556 q 981 1569 965 1569 l 981 1569 q 1006 1561 997 1569 q 1013 1540 1014 1553 l 1013 1540 q 967 1409 1001 1461 q 878 1331 932 1357 q 758 1306 825 1306 z m 0 -521 l 0 -507 l 1285 -507 l 1285 -521 l 0 -521 z m 0 0 l 0 28 l 1285 28 l 1285 0 l 0 0 z m 0 694 l 0 701 l 1285 701 l 1285 694 l 0 694 z m 0 1215 l 0 1229 l 1285 1229 l 1285 1215 l 0 1215 z "},"Ǒ":{"ha":1285,"x_min":0,"x_max":1285,"o":"m 621 -26 l 621 -26 q 428 13 515 -26 q 278 126 340 53 q 181 301 215 199 q 147 532 147 404 l 147 532 q 165 711 147 624 q 219 877 183 799 q 305 1021 254 956 q 421 1135 356 1086 q 565 1210 486 1183 q 735 1236 644 1236 l 735 1236 q 926 1197 840 1236 q 1075 1086 1013 1158 q 1171 913 1138 1014 q 1204 686 1204 811 l 1204 686 q 1186 505 1204 593 q 1133 337 1168 417 q 1047 191 1097 257 q 931 76 996 125 q 788 1 865 28 q 621 -26 710 -26 z m 625 49 l 625 49 q 766 72 700 49 q 888 139 832 96 q 988 241 944 182 q 1061 371 1031 300 q 1108 521 1092 442 q 1124 683 1124 600 l 1124 683 q 1096 885 1124 796 q 1015 1035 1068 974 q 890 1130 963 1097 q 731 1163 818 1163 l 731 1163 q 589 1140 656 1163 q 466 1074 522 1117 q 366 974 410 1032 q 291 845 322 915 q 244 697 260 775 q 228 535 228 618 l 228 535 q 257 331 228 421 q 338 177 286 240 q 463 81 390 114 q 625 49 536 49 z m 990 1568 l 990 1568 q 1011 1558 1001 1568 q 1021 1536 1021 1547 l 1021 1536 q 1019 1526 1021 1531 q 1011 1517 1018 1522 l 1011 1517 l 790 1321 q 772 1309 781 1314 q 751 1304 764 1304 l 751 1304 q 733 1309 740 1304 q 718 1322 725 1314 l 718 1322 l 533 1518 q 527 1529 529 1524 q 525 1538 525 1535 l 525 1538 q 537 1559 525 1550 q 558 1568 549 1568 l 558 1568 q 571 1565 565 1568 q 582 1556 576 1561 l 582 1556 l 757 1394 l 964 1556 q 978 1565 972 1561 q 990 1568 983 1568 z m 0 -521 l 0 -507 l 1285 -507 l 1285 -521 l 0 -521 z m 0 0 l 0 28 l 1285 28 l 1285 0 l 0 0 z m 0 694 l 0 701 l 1285 701 l 1285 694 l 0 694 z m 0 1215 l 0 1229 l 1285 1229 l 1285 1215 l 0 1215 z "},"Ô":{"ha":1285,"x_min":0,"x_max":1285,"o":"m 621 -26 l 621 -26 q 428 13 515 -26 q 278 126 340 53 q 181 301 215 199 q 147 532 147 404 l 147 532 q 165 711 147 624 q 219 877 183 799 q 305 1021 254 956 q 421 1135 356 1086 q 565 1210 486 1183 q 735 1236 644 1236 l 735 1236 q 926 1197 840 1236 q 1075 1086 1013 1158 q 1171 913 1138 1014 q 1204 686 1204 811 l 1204 686 q 1186 505 1204 593 q 1133 337 1168 417 q 1047 191 1097 257 q 931 76 996 125 q 788 1 865 28 q 621 -26 710 -26 z m 625 49 l 625 49 q 766 72 700 49 q 888 139 832 96 q 988 241 944 182 q 1061 371 1031 300 q 1108 521 1092 442 q 1124 683 1124 600 l 1124 683 q 1096 885 1124 796 q 1015 1035 1068 974 q 890 1130 963 1097 q 731 1163 818 1163 l 731 1163 q 589 1140 656 1163 q 466 1074 522 1117 q 366 974 410 1032 q 291 845 322 915 q 244 697 260 775 q 228 535 228 618 l 228 535 q 257 331 228 421 q 338 177 286 240 q 463 81 390 114 q 625 49 536 49 z m 543 1304 l 543 1304 q 522 1315 532 1304 q 513 1336 513 1325 l 513 1336 q 515 1347 513 1342 q 521 1356 517 1351 l 521 1356 l 743 1550 q 761 1564 753 1560 q 782 1568 769 1568 l 782 1568 q 801 1563 793 1568 q 815 1550 808 1558 l 815 1550 l 1000 1354 q 1007 1344 1006 1349 q 1008 1335 1008 1339 l 1008 1335 q 997 1313 1008 1322 q 976 1304 986 1304 l 976 1304 q 963 1308 968 1304 q 951 1317 957 1311 l 951 1317 l 776 1479 l 569 1315 q 556 1307 561 1310 q 543 1304 550 1304 z m 0 -521 l 0 -507 l 1285 -507 l 1285 -521 l 0 -521 z m 0 0 l 0 28 l 1285 28 l 1285 0 l 0 0 z m 0 694 l 0 701 l 1285 701 l 1285 694 l 0 694 z m 0 1215 l 0 1229 l 1285 1229 l 1285 1215 l 0 1215 z "},"Ö":{"ha":1285,"x_min":0,"x_max":1285,"o":"m 621 -26 l 621 -26 q 428 13 515 -26 q 278 126 340 53 q 181 301 215 199 q 147 532 147 404 l 147 532 q 165 711 147 624 q 219 877 183 799 q 305 1021 254 956 q 421 1135 356 1086 q 565 1210 486 1183 q 735 1236 644 1236 l 735 1236 q 926 1197 840 1236 q 1075 1086 1013 1158 q 1171 913 1138 1014 q 1204 686 1204 811 l 1204 686 q 1186 505 1204 593 q 1133 337 1168 417 q 1047 191 1097 257 q 931 76 996 125 q 788 1 865 28 q 621 -26 710 -26 z m 625 49 l 625 49 q 766 72 700 49 q 888 139 832 96 q 988 241 944 182 q 1061 371 1031 300 q 1108 521 1092 442 q 1124 683 1124 600 l 1124 683 q 1096 885 1124 796 q 1015 1035 1068 974 q 890 1130 963 1097 q 731 1163 818 1163 l 731 1163 q 589 1140 656 1163 q 466 1074 522 1117 q 366 974 410 1032 q 291 845 322 915 q 244 697 260 775 q 228 535 228 618 l 228 535 q 257 331 228 421 q 338 177 286 240 q 463 81 390 114 q 625 49 536 49 z m 590 1351 l 590 1351 q 547 1366 563 1351 q 532 1413 532 1381 l 532 1413 q 549 1467 532 1446 q 600 1489 567 1489 l 600 1489 q 643 1474 628 1489 q 658 1426 658 1458 l 658 1426 q 642 1372 658 1392 q 590 1351 625 1351 z m 931 1351 l 931 1351 q 888 1366 903 1351 q 872 1413 872 1381 l 872 1413 q 889 1467 872 1446 q 939 1489 906 1489 l 939 1489 q 983 1474 967 1489 q 999 1426 999 1458 l 999 1426 q 981 1372 999 1392 q 931 1351 964 1351 z m 0 -521 l 0 -507 l 1285 -507 l 1285 -521 l 0 -521 z m 0 0 l 0 28 l 1285 28 l 1285 0 l 0 0 z m 0 694 l 0 701 l 1285 701 l 1285 694 l 0 694 z m 0 1215 l 0 1229 l 1285 1229 l 1285 1215 l 0 1215 z "},"Ò":{"ha":1285,"x_min":0,"x_max":1285,"o":"m 621 -26 l 621 -26 q 428 13 515 -26 q 278 126 340 53 q 181 301 215 199 q 147 532 147 404 l 147 532 q 165 711 147 624 q 219 877 183 799 q 305 1021 254 956 q 421 1135 356 1086 q 565 1210 486 1183 q 735 1236 644 1236 l 735 1236 q 926 1197 840 1236 q 1075 1086 1013 1158 q 1171 913 1138 1014 q 1204 686 1204 811 l 1204 686 q 1186 505 1204 593 q 1133 337 1168 417 q 1047 191 1097 257 q 931 76 996 125 q 788 1 865 28 q 621 -26 710 -26 z m 625 49 l 625 49 q 766 72 700 49 q 888 139 832 96 q 988 241 944 182 q 1061 371 1031 300 q 1108 521 1092 442 q 1124 683 1124 600 l 1124 683 q 1096 885 1124 796 q 1015 1035 1068 974 q 890 1130 963 1097 q 731 1163 818 1163 l 731 1163 q 589 1140 656 1163 q 466 1074 522 1117 q 366 974 410 1032 q 291 845 322 915 q 244 697 260 775 q 228 535 228 618 l 228 535 q 257 331 228 421 q 338 177 286 240 q 463 81 390 114 q 625 49 536 49 z m 828 1304 l 828 1304 q 819 1307 824 1304 q 808 1314 815 1310 l 808 1314 l 597 1501 q 588 1513 590 1508 q 586 1522 586 1517 l 586 1522 q 594 1542 586 1532 q 613 1560 601 1553 q 633 1568 624 1568 l 633 1568 q 643 1565 639 1568 q 653 1556 647 1561 l 653 1556 l 856 1356 q 862 1346 861 1350 q 863 1339 863 1342 l 863 1339 q 850 1317 863 1329 q 828 1304 838 1304 z m 0 -521 l 0 -507 l 1285 -507 l 1285 -521 l 0 -521 z m 0 0 l 0 28 l 1285 28 l 1285 0 l 0 0 z m 0 694 l 0 701 l 1285 701 l 1285 694 l 0 694 z m 0 1215 l 0 1229 l 1285 1229 l 1285 1215 l 0 1215 z "},"Ő":{"ha":1285,"x_min":0,"x_max":1285,"o":"m 621 -26 l 621 -26 q 428 13 515 -26 q 278 126 340 53 q 181 301 215 199 q 147 532 147 404 l 147 532 q 165 711 147 624 q 218 877 183 799 q 304 1021 253 956 q 421 1135 356 1086 q 565 1210 486 1183 q 735 1236 644 1236 l 735 1236 q 926 1197 840 1236 q 1075 1086 1013 1158 q 1171 913 1138 1014 q 1204 686 1204 811 l 1204 686 q 1186 505 1204 593 q 1133 337 1168 417 q 1047 191 1097 257 q 931 76 996 125 q 788 1 865 28 q 621 -26 710 -26 z m 625 49 l 625 49 q 766 72 700 49 q 888 139 832 96 q 988 241 944 182 q 1061 371 1031 300 q 1108 521 1092 442 q 1124 683 1124 600 l 1124 683 q 1096 885 1124 796 q 1015 1035 1068 974 q 890 1130 963 1097 q 731 1163 818 1163 l 731 1163 q 589 1140 656 1163 q 466 1074 522 1117 q 366 974 410 1032 q 291 846 322 917 q 244 697 260 775 q 228 535 228 618 l 228 535 q 257 331 228 421 q 338 177 286 240 q 463 81 390 114 q 625 49 536 49 z m 608 1304 l 608 1304 q 586 1317 599 1304 q 574 1338 574 1329 l 574 1338 q 575 1346 574 1342 q 582 1356 576 1350 l 582 1356 l 790 1556 q 801 1565 797 1561 q 811 1568 806 1568 l 811 1568 q 831 1560 821 1568 q 849 1542 842 1553 q 856 1524 856 1532 l 856 1524 q 854 1513 856 1518 q 846 1501 853 1508 l 846 1501 l 628 1314 q 617 1307 621 1310 q 608 1304 613 1304 z m 846 1304 l 846 1304 q 822 1317 835 1304 q 810 1338 810 1329 l 810 1338 q 811 1346 810 1342 q 818 1356 813 1350 l 818 1356 l 1028 1556 q 1038 1565 1033 1561 q 1049 1568 1043 1568 l 1049 1568 q 1069 1560 1058 1568 q 1086 1542 1079 1553 q 1093 1524 1093 1532 l 1093 1524 q 1091 1513 1093 1518 q 1083 1501 1089 1508 l 1083 1501 l 864 1314 q 853 1307 857 1310 q 846 1304 850 1304 z m 0 -521 l 0 -507 l 1285 -507 l 1285 -521 l 0 -521 z m 0 0 l 0 28 l 1285 28 l 1285 0 l 0 0 z m 0 694 l 0 701 l 1285 701 l 1285 694 l 0 694 z m 0 1215 l 0 1229 l 1285 1229 l 1285 1215 l 0 1215 z "},"Ō":{"ha":1285,"x_min":0,"x_max":1285,"o":"m 621 -26 l 621 -26 q 428 13 515 -26 q 278 126 340 53 q 181 301 215 199 q 147 532 147 404 l 147 532 q 165 711 147 624 q 219 877 183 799 q 305 1021 254 956 q 421 1135 356 1086 q 565 1210 486 1183 q 735 1236 644 1236 l 735 1236 q 926 1197 840 1236 q 1075 1086 1013 1158 q 1171 913 1138 1014 q 1204 686 1204 811 l 1204 686 q 1186 505 1204 593 q 1133 337 1168 417 q 1047 191 1097 257 q 931 76 996 125 q 788 1 865 28 q 621 -26 710 -26 z m 625 49 l 625 49 q 766 72 700 49 q 888 139 832 96 q 988 241 944 182 q 1061 371 1031 300 q 1108 521 1092 442 q 1124 683 1124 600 l 1124 683 q 1096 885 1124 796 q 1015 1035 1068 974 q 890 1130 963 1097 q 731 1163 818 1163 l 731 1163 q 589 1140 656 1163 q 466 1074 522 1117 q 366 974 410 1032 q 291 845 322 915 q 244 697 260 775 q 228 535 228 618 l 228 535 q 257 331 228 421 q 338 177 286 240 q 463 81 390 114 q 625 49 536 49 z m 950 1403 l 579 1403 q 558 1412 564 1403 q 556 1438 553 1421 l 556 1438 q 564 1465 557 1456 q 586 1475 571 1475 l 586 1475 l 957 1475 q 978 1465 974 1475 q 981 1438 983 1456 l 981 1438 q 972 1412 979 1421 q 950 1403 965 1403 l 950 1403 z m 0 -521 l 0 -507 l 1285 -507 l 1285 -521 l 0 -521 z m 0 0 l 0 28 l 1285 28 l 1285 0 l 0 0 z m 0 694 l 0 701 l 1285 701 l 1285 694 l 0 694 z m 0 1215 l 0 1229 l 1285 1229 l 1285 1215 l 0 1215 z "},"Ø":{"ha":1285,"x_min":0,"x_max":1285,"o":"m 621 -26 l 621 -26 q 428 13 515 -26 q 278 126 340 53 q 181 301 215 199 q 147 532 147 404 l 147 532 q 165 711 147 624 q 219 877 183 799 q 305 1021 254 956 q 421 1135 356 1086 q 565 1210 486 1183 q 735 1236 644 1236 l 735 1236 q 926 1197 840 1236 q 1075 1086 1013 1158 q 1171 913 1138 1014 q 1204 686 1204 811 l 1204 686 q 1186 505 1204 593 q 1133 337 1168 417 q 1047 191 1097 257 q 931 76 996 125 q 788 1 865 28 q 621 -26 710 -26 z m 625 49 l 625 49 q 766 72 700 49 q 888 139 832 96 q 988 241 944 182 q 1061 371 1031 300 q 1108 521 1092 442 q 1124 683 1124 600 l 1124 683 q 1096 885 1124 796 q 1015 1035 1068 974 q 890 1130 963 1097 q 731 1163 818 1163 l 731 1163 q 589 1140 656 1163 q 466 1074 522 1117 q 366 974 410 1032 q 291 845 322 915 q 244 697 260 775 q 228 535 228 618 l 228 535 q 257 331 228 421 q 338 177 286 240 q 463 81 390 114 q 625 49 536 49 z m 1147 1225 l 268 -58 q 249 -73 260 -71 q 221 -65 238 -75 l 221 -65 q 207 -21 190 -44 l 207 -21 l 1088 1264 q 1109 1278 1096 1276 q 1136 1268 1122 1279 l 1136 1268 q 1153 1250 1150 1261 q 1147 1225 1156 1239 l 1147 1225 z m 0 -521 l 0 -507 l 1285 -507 l 1285 -521 l 0 -521 z m 0 0 l 0 28 l 1285 28 l 1285 0 l 0 0 z m 0 694 l 0 701 l 1285 701 l 1285 694 l 0 694 z m 0 1215 l 0 1229 l 1285 1229 l 1285 1215 l 0 1215 z "},"Õ":{"ha":1285,"x_min":0,"x_max":1285,"o":"m 621 -26 l 621 -26 q 428 13 515 -26 q 278 126 340 53 q 181 301 215 199 q 147 532 147 404 l 147 532 q 165 711 147 624 q 219 877 183 799 q 305 1021 254 956 q 421 1135 356 1086 q 565 1210 486 1183 q 735 1236 644 1236 l 735 1236 q 926 1197 840 1236 q 1075 1086 1013 1158 q 1171 913 1138 1014 q 1204 686 1204 811 l 1204 686 q 1186 505 1204 593 q 1133 337 1168 417 q 1047 191 1097 257 q 931 76 996 125 q 788 1 865 28 q 621 -26 710 -26 z m 625 49 l 625 49 q 766 72 700 49 q 888 139 832 96 q 988 241 944 182 q 1061 371 1031 300 q 1108 521 1092 442 q 1124 683 1124 600 l 1124 683 q 1096 885 1124 796 q 1015 1035 1068 974 q 890 1130 963 1097 q 731 1163 818 1163 l 731 1163 q 589 1140 656 1163 q 466 1074 522 1117 q 366 974 410 1032 q 291 845 322 915 q 244 697 260 775 q 228 535 228 618 l 228 535 q 257 331 228 421 q 338 177 286 240 q 463 81 390 114 q 625 49 536 49 z m 547 1347 l 547 1347 q 517 1376 515 1347 l 517 1376 q 554 1494 524 1454 q 639 1535 585 1535 l 639 1535 q 714 1517 679 1535 q 780 1478 749 1500 q 840 1438 811 1456 q 894 1421 868 1421 l 894 1421 q 935 1443 921 1421 q 953 1511 949 1465 l 953 1511 q 989 1538 957 1538 l 989 1538 q 1014 1531 1007 1538 q 1019 1508 1021 1525 l 1019 1508 q 982 1391 1013 1432 q 893 1350 951 1350 l 893 1350 q 820 1367 854 1350 q 754 1407 786 1385 q 694 1447 722 1429 q 639 1464 665 1464 l 639 1464 q 601 1442 614 1464 q 582 1374 588 1421 l 582 1374 q 572 1353 579 1360 q 547 1347 564 1347 z m 0 -521 l 0 -507 l 1285 -507 l 1285 -521 l 0 -521 z m 0 0 l 0 28 l 1285 28 l 1285 0 l 0 0 z m 0 694 l 0 701 l 1285 701 l 1285 694 l 0 694 z m 0 1215 l 0 1229 l 1285 1229 l 1285 1215 l 0 1215 z "},"Ố":{"ha":1285,"x_min":0,"x_max":1285,"o":"m 621 -26 l 621 -26 q 428 13 515 -26 q 278 126 340 53 q 181 301 215 199 q 147 532 147 404 l 147 532 q 165 711 147 624 q 219 877 183 799 q 305 1021 254 956 q 421 1135 356 1086 q 565 1210 486 1183 q 735 1236 644 1236 l 735 1236 q 926 1197 840 1236 q 1075 1086 1013 1158 q 1171 913 1138 1014 q 1204 686 1204 811 l 1204 686 q 1186 505 1204 593 q 1133 337 1168 417 q 1047 191 1097 257 q 931 76 996 125 q 788 1 865 28 q 621 -26 710 -26 z m 625 49 l 625 49 q 766 72 700 49 q 888 139 832 96 q 988 241 944 182 q 1061 371 1031 300 q 1108 521 1092 442 q 1124 683 1124 600 l 1124 683 q 1096 885 1124 796 q 1015 1035 1068 974 q 890 1130 963 1097 q 731 1163 818 1163 l 731 1163 q 589 1140 656 1163 q 466 1074 522 1117 q 366 974 410 1032 q 291 845 322 915 q 244 697 260 775 q 228 535 228 618 l 228 535 q 257 331 228 421 q 338 177 286 240 q 463 81 390 114 q 625 49 536 49 z m 543 1304 l 543 1304 q 522 1315 532 1304 q 513 1336 513 1325 l 513 1336 q 515 1347 513 1342 q 521 1356 517 1351 l 521 1356 l 743 1550 q 761 1564 753 1560 q 782 1568 769 1568 l 782 1568 q 801 1563 793 1568 q 815 1550 808 1558 l 815 1550 l 1000 1354 q 1007 1344 1006 1349 q 1008 1335 1008 1339 l 1008 1335 q 997 1313 1008 1322 q 976 1304 986 1304 l 976 1304 q 963 1308 968 1304 q 951 1317 957 1311 l 951 1317 l 776 1479 l 569 1315 q 556 1307 561 1310 q 543 1304 550 1304 z m 979 1514 l 979 1514 q 957 1526 969 1514 q 944 1549 944 1539 l 944 1549 q 945 1556 944 1553 q 953 1565 946 1560 l 953 1565 l 1147 1751 q 1157 1760 1153 1757 q 1168 1764 1161 1764 l 1168 1764 q 1188 1756 1176 1764 q 1206 1738 1199 1749 q 1213 1718 1213 1728 l 1213 1718 q 1211 1708 1213 1713 q 1203 1697 1210 1704 l 1203 1697 l 999 1525 q 988 1517 992 1521 q 979 1514 983 1514 z m 0 -521 l 0 -507 l 1285 -507 l 1285 -521 l 0 -521 z m 0 0 l 0 28 l 1285 28 l 1285 0 l 0 0 z m 0 694 l 0 701 l 1285 701 l 1285 694 l 0 694 z m 0 1215 l 0 1229 l 1285 1229 l 1285 1215 l 0 1215 z "},"Ộ":{"ha":1285,"x_min":0,"x_max":1285,"o":"m 621 -26 l 621 -26 q 428 13 515 -26 q 278 126 340 53 q 181 301 215 199 q 147 532 147 404 l 147 532 q 165 711 147 624 q 219 877 183 799 q 305 1021 254 956 q 421 1135 356 1086 q 565 1210 486 1183 q 735 1236 644 1236 l 735 1236 q 926 1197 840 1236 q 1075 1086 1013 1158 q 1171 913 1138 1014 q 1204 686 1204 811 l 1204 686 q 1186 505 1204 593 q 1133 337 1168 417 q 1047 191 1097 257 q 931 76 996 125 q 788 1 865 28 q 621 -26 710 -26 z m 625 49 l 625 49 q 766 72 700 49 q 888 139 832 96 q 988 241 944 182 q 1061 371 1031 300 q 1108 521 1092 442 q 1124 683 1124 600 l 1124 683 q 1096 885 1124 796 q 1015 1035 1068 974 q 890 1130 963 1097 q 731 1163 818 1163 l 731 1163 q 589 1140 656 1163 q 466 1074 522 1117 q 366 974 410 1032 q 291 845 322 915 q 244 697 260 775 q 228 535 228 618 l 228 535 q 257 331 228 421 q 338 177 286 240 q 463 81 390 114 q 625 49 536 49 z m 564 -304 l 564 -304 q 521 -290 536 -304 q 506 -243 506 -275 l 506 -243 q 522 -189 506 -210 q 574 -168 539 -168 l 574 -168 q 617 -183 601 -168 q 632 -229 632 -197 l 632 -229 q 615 -284 632 -264 q 564 -304 597 -304 z m 543 1304 l 543 1304 q 522 1315 532 1304 q 513 1336 513 1325 l 513 1336 q 515 1347 513 1342 q 521 1356 517 1351 l 521 1356 l 743 1550 q 761 1564 753 1560 q 782 1568 769 1568 l 782 1568 q 801 1563 793 1568 q 815 1550 808 1558 l 815 1550 l 1000 1354 q 1007 1344 1006 1349 q 1008 1335 1008 1339 l 1008 1335 q 997 1313 1008 1322 q 976 1304 986 1304 l 976 1304 q 963 1308 968 1304 q 951 1317 957 1311 l 951 1317 l 776 1479 l 569 1315 q 556 1307 561 1310 q 543 1304 550 1304 z m 0 -521 l 0 -507 l 1285 -507 l 1285 -521 l 0 -521 z m 0 0 l 0 28 l 1285 28 l 1285 0 l 0 0 z m 0 694 l 0 701 l 1285 701 l 1285 694 l 0 694 z m 0 1215 l 0 1229 l 1285 1229 l 1285 1215 l 0 1215 z "},"Ồ":{"ha":1285,"x_min":0,"x_max":1285,"o":"m 621 -26 l 621 -26 q 428 13 515 -26 q 278 126 340 53 q 181 301 215 199 q 147 532 147 404 l 147 532 q 165 711 147 624 q 219 877 183 799 q 305 1021 254 956 q 421 1135 356 1086 q 565 1210 486 1183 q 735 1236 644 1236 l 735 1236 q 926 1197 840 1236 q 1075 1086 1013 1158 q 1171 913 1138 1014 q 1204 686 1204 811 l 1204 686 q 1186 505 1204 593 q 1133 337 1168 417 q 1047 191 1097 257 q 931 76 996 125 q 788 1 865 28 q 621 -26 710 -26 z m 625 49 l 625 49 q 766 72 700 49 q 888 139 832 96 q 988 241 944 182 q 1061 371 1031 300 q 1108 521 1092 442 q 1124 683 1124 600 l 1124 683 q 1096 885 1124 796 q 1015 1035 1068 974 q 890 1130 963 1097 q 731 1163 818 1163 l 731 1163 q 589 1140 656 1163 q 466 1074 522 1117 q 366 974 410 1032 q 291 845 322 915 q 244 697 260 775 q 228 535 228 618 l 228 535 q 257 331 228 421 q 338 177 286 240 q 463 81 390 114 q 625 49 536 49 z m 543 1304 l 543 1304 q 522 1315 532 1304 q 513 1336 513 1325 l 513 1336 q 515 1347 513 1342 q 521 1356 517 1351 l 521 1356 l 743 1550 q 761 1564 753 1560 q 782 1568 769 1568 l 782 1568 q 801 1563 793 1568 q 815 1550 808 1558 l 815 1550 l 1000 1354 q 1007 1344 1006 1349 q 1008 1335 1008 1339 l 1008 1335 q 997 1313 1008 1322 q 976 1304 986 1304 l 976 1304 q 963 1308 968 1304 q 951 1317 957 1311 l 951 1317 l 776 1479 l 569 1315 q 556 1307 561 1310 q 543 1304 550 1304 z m 1069 1496 l 1069 1496 q 1061 1498 1065 1496 q 1050 1506 1057 1500 l 1050 1506 l 849 1703 q 840 1713 842 1710 q 839 1724 839 1717 l 839 1724 q 847 1744 839 1733 q 865 1762 854 1754 q 885 1769 875 1769 l 885 1769 q 896 1766 892 1769 q 907 1757 900 1763 l 907 1757 l 1097 1547 q 1104 1538 1103 1542 q 1106 1529 1106 1533 l 1106 1529 q 1093 1508 1106 1519 q 1069 1496 1081 1496 z m 0 -521 l 0 -507 l 1285 -507 l 1285 -521 l 0 -521 z m 0 0 l 0 28 l 1285 28 l 1285 0 l 0 0 z m 0 694 l 0 701 l 1285 701 l 1285 694 l 0 694 z m 0 1215 l 0 1229 l 1285 1229 l 1285 1215 l 0 1215 z "},"Ổ":{"ha":1285,"x_min":0,"x_max":1285,"o":"m 621 -26 l 621 -26 q 428 13 515 -26 q 278 126 340 53 q 181 301 215 199 q 147 532 147 404 l 147 532 q 165 711 147 624 q 219 877 183 799 q 305 1021 254 956 q 421 1135 356 1086 q 565 1210 486 1183 q 735 1236 644 1236 l 735 1236 q 926 1197 840 1236 q 1075 1086 1013 1158 q 1171 913 1138 1014 q 1204 686 1204 811 l 1204 686 q 1186 505 1204 593 q 1133 337 1168 417 q 1047 191 1097 257 q 931 76 996 125 q 788 1 865 28 q 621 -26 710 -26 z m 625 49 l 625 49 q 766 72 700 49 q 888 139 832 96 q 988 241 944 182 q 1061 371 1031 300 q 1108 521 1092 442 q 1124 683 1124 600 l 1124 683 q 1096 885 1124 796 q 1015 1035 1068 974 q 890 1130 963 1097 q 731 1163 818 1163 l 731 1163 q 589 1140 656 1163 q 466 1074 522 1117 q 366 974 410 1032 q 291 845 322 915 q 244 697 260 775 q 228 535 228 618 l 228 535 q 257 331 228 421 q 338 177 286 240 q 463 81 390 114 q 625 49 536 49 z m 543 1304 l 543 1304 q 522 1315 532 1304 q 513 1336 513 1325 l 513 1336 q 515 1347 513 1342 q 521 1356 517 1351 l 521 1356 l 743 1550 q 761 1564 753 1560 q 782 1568 769 1568 l 782 1568 q 801 1563 793 1568 q 815 1550 808 1558 l 815 1550 l 1000 1354 q 1007 1344 1006 1349 q 1008 1335 1008 1339 l 1008 1335 q 997 1313 1008 1322 q 976 1304 986 1304 l 976 1304 q 963 1308 968 1304 q 951 1317 957 1311 l 951 1317 l 776 1479 l 569 1315 q 556 1307 561 1310 q 543 1304 550 1304 z m 1028 1765 l 1028 1765 q 1122 1737 1088 1765 q 1157 1664 1157 1708 l 1157 1664 q 1139 1605 1157 1631 q 1081 1553 1121 1579 l 1081 1553 q 1045 1522 1054 1536 q 1043 1488 1036 1508 l 1043 1488 l 1044 1475 q 1038 1455 1046 1463 q 1018 1444 1031 1447 q 995 1445 1006 1442 q 982 1460 985 1449 l 982 1460 l 974 1488 q 978 1549 965 1522 q 1022 1594 992 1575 l 1022 1594 q 1064 1626 1051 1611 q 1076 1658 1076 1642 l 1076 1658 q 1059 1689 1076 1678 q 1015 1700 1042 1700 l 1015 1700 q 969 1693 992 1700 q 926 1674 947 1686 l 926 1674 q 886 1686 901 1658 l 886 1686 q 896 1728 875 1711 l 896 1728 q 956 1756 922 1746 q 1028 1765 989 1765 z m 0 -521 l 0 -507 l 1285 -507 l 1285 -521 l 0 -521 z m 0 0 l 0 28 l 1285 28 l 1285 0 l 0 0 z m 0 694 l 0 701 l 1285 701 l 1285 694 l 0 694 z m 0 1215 l 0 1229 l 1285 1229 l 1285 1215 l 0 1215 z "},"Ỗ":{"ha":1285,"x_min":0,"x_max":1285,"o":"m 621 -26 l 621 -26 q 428 13 515 -26 q 278 126 340 53 q 181 301 215 199 q 147 532 147 404 l 147 532 q 165 711 147 624 q 219 877 183 799 q 305 1021 254 956 q 421 1135 356 1086 q 565 1210 486 1183 q 735 1236 644 1236 l 735 1236 q 926 1197 840 1236 q 1075 1086 1013 1158 q 1171 913 1138 1014 q 1204 686 1204 811 l 1204 686 q 1186 505 1204 593 q 1133 337 1168 417 q 1047 191 1097 257 q 931 76 996 125 q 788 1 865 28 q 621 -26 710 -26 z m 625 49 l 625 49 q 766 72 700 49 q 888 139 832 96 q 988 241 944 182 q 1061 371 1031 300 q 1108 521 1092 442 q 1124 683 1124 600 l 1124 683 q 1096 885 1124 796 q 1015 1035 1068 974 q 890 1130 963 1097 q 731 1163 818 1163 l 731 1163 q 589 1140 656 1163 q 466 1074 522 1117 q 366 974 410 1032 q 291 845 322 915 q 244 697 260 775 q 228 535 228 618 l 228 535 q 257 331 228 421 q 338 177 286 240 q 463 81 390 114 q 625 49 536 49 z m 543 1304 l 543 1304 q 522 1315 532 1304 q 513 1336 513 1325 l 513 1336 q 515 1347 513 1342 q 521 1356 517 1351 l 521 1356 l 743 1550 q 761 1564 753 1560 q 782 1568 769 1568 l 782 1568 q 801 1563 793 1568 q 815 1550 808 1558 l 815 1550 l 1000 1354 q 1007 1344 1006 1349 q 1008 1335 1008 1339 l 1008 1335 q 997 1313 1008 1322 q 976 1304 986 1304 l 976 1304 q 963 1308 968 1304 q 951 1317 957 1311 l 951 1317 l 776 1479 l 569 1315 q 556 1307 561 1310 q 543 1304 550 1304 z m 572 1586 l 572 1586 q 543 1615 542 1586 l 543 1615 q 581 1734 550 1694 q 665 1774 611 1774 l 665 1774 q 740 1756 704 1774 q 806 1717 775 1739 q 866 1677 838 1694 q 921 1660 894 1660 l 921 1660 q 960 1683 946 1660 q 979 1750 974 1706 l 979 1750 q 1015 1776 982 1776 l 1015 1776 q 1040 1770 1033 1776 q 1044 1747 1046 1764 l 1044 1747 q 1008 1630 1038 1671 q 919 1589 978 1589 l 919 1589 q 846 1606 881 1589 q 780 1646 811 1624 q 720 1685 749 1668 q 665 1703 692 1703 l 665 1703 q 627 1681 640 1703 q 607 1613 614 1660 l 607 1613 q 598 1592 606 1599 q 572 1586 590 1586 z m 0 -521 l 0 -507 l 1285 -507 l 1285 -521 l 0 -521 z m 0 0 l 0 28 l 1285 28 l 1285 0 l 0 0 z m 0 694 l 0 701 l 1285 701 l 1285 694 l 0 694 z m 0 1215 l 0 1229 l 1285 1229 l 1285 1215 l 0 1215 z "},"Ọ":{"ha":1285,"x_min":0,"x_max":1285,"o":"m 621 -26 l 621 -26 q 428 13 515 -26 q 278 126 340 53 q 181 301 215 199 q 147 532 147 404 l 147 532 q 165 711 147 624 q 219 877 183 799 q 305 1021 254 956 q 421 1135 356 1086 q 565 1210 486 1183 q 735 1236 644 1236 l 735 1236 q 926 1197 840 1236 q 1075 1086 1013 1158 q 1171 913 1138 1014 q 1204 686 1204 811 l 1204 686 q 1186 505 1204 593 q 1133 337 1168 417 q 1047 191 1097 257 q 931 76 996 125 q 788 1 865 28 q 621 -26 710 -26 z m 625 49 l 625 49 q 766 72 700 49 q 888 139 832 96 q 988 241 944 182 q 1061 371 1031 300 q 1108 521 1092 442 q 1124 683 1124 600 l 1124 683 q 1096 885 1124 796 q 1015 1035 1068 974 q 890 1130 963 1097 q 731 1163 818 1163 l 731 1163 q 589 1140 656 1163 q 466 1074 522 1117 q 366 974 410 1032 q 291 845 322 915 q 244 697 260 775 q 228 535 228 618 l 228 535 q 257 331 228 421 q 338 177 286 240 q 463 81 390 114 q 625 49 536 49 z m 564 -304 l 564 -304 q 521 -290 536 -304 q 506 -243 506 -275 l 506 -243 q 522 -189 506 -210 q 574 -168 539 -168 l 574 -168 q 617 -183 601 -168 q 632 -229 632 -197 l 632 -229 q 615 -284 632 -264 q 564 -304 597 -304 z m 0 -521 l 0 -507 l 1285 -507 l 1285 -521 l 0 -521 z m 0 0 l 0 28 l 1285 28 l 1285 0 l 0 0 z m 0 694 l 0 701 l 1285 701 l 1285 694 l 0 694 z m 0 1215 l 0 1229 l 1285 1229 l 1285 1215 l 0 1215 z "},"Ỏ":{"ha":1285,"x_min":0,"x_max":1285,"o":"m 621 -26 l 621 -26 q 428 13 515 -26 q 278 126 340 53 q 181 301 215 199 q 147 532 147 404 l 147 532 q 165 711 147 624 q 219 877 183 799 q 305 1021 254 956 q 421 1135 356 1086 q 565 1210 486 1183 q 735 1236 644 1236 l 735 1236 q 926 1197 840 1236 q 1075 1086 1013 1158 q 1171 913 1138 1014 q 1204 686 1204 811 l 1204 686 q 1186 505 1204 593 q 1133 337 1168 417 q 1047 191 1097 257 q 931 76 996 125 q 788 1 865 28 q 621 -26 710 -26 z m 625 49 l 625 49 q 766 72 700 49 q 888 139 832 96 q 988 241 944 182 q 1061 371 1031 300 q 1108 521 1092 442 q 1124 683 1124 600 l 1124 683 q 1096 885 1124 796 q 1015 1035 1068 974 q 890 1130 963 1097 q 731 1163 818 1163 l 731 1163 q 589 1140 656 1163 q 466 1074 522 1117 q 366 974 410 1032 q 291 845 322 915 q 244 697 260 775 q 228 535 228 618 l 228 535 q 257 331 228 421 q 338 177 286 240 q 463 81 390 114 q 625 49 536 49 z m 782 1606 l 782 1606 q 877 1577 842 1606 q 913 1504 913 1549 l 913 1504 q 894 1445 913 1471 q 835 1393 875 1419 l 835 1393 q 800 1363 808 1376 q 797 1328 792 1349 l 797 1328 l 799 1314 q 793 1294 801 1303 q 772 1284 785 1286 q 749 1285 760 1282 q 736 1300 739 1289 l 736 1300 l 729 1328 q 733 1389 719 1363 q 776 1435 746 1415 l 776 1435 q 819 1467 806 1451 q 832 1499 832 1482 l 832 1499 q 814 1529 832 1518 q 769 1540 796 1540 l 769 1540 q 724 1533 746 1540 q 681 1514 701 1526 l 681 1514 q 640 1526 656 1499 l 640 1526 q 651 1568 629 1551 l 651 1568 q 710 1596 676 1586 q 782 1606 743 1606 z m 0 -521 l 0 -507 l 1285 -507 l 1285 -521 l 0 -521 z m 0 0 l 0 28 l 1285 28 l 1285 0 l 0 0 z m 0 694 l 0 701 l 1285 701 l 1285 694 l 0 694 z m 0 1215 l 0 1229 l 1285 1229 l 1285 1215 l 0 1215 z "},"Ơ":{"ha":1285,"x_min":0,"x_max":1285,"o":"m 621 -26 l 621 -26 q 428 13 515 -26 q 278 126 340 53 q 181 301 215 199 q 147 532 147 404 l 147 532 q 165 711 147 624 q 219 877 183 799 q 305 1021 254 956 q 421 1135 356 1086 q 565 1210 486 1183 q 735 1236 644 1236 l 735 1236 q 809 1231 774 1236 q 878 1215 844 1226 l 878 1215 q 1005 1238 958 1219 q 1072 1286 1051 1256 q 1093 1360 1092 1317 q 1083 1454 1094 1403 l 1083 1454 q 1089 1480 1079 1469 q 1113 1493 1099 1490 q 1142 1490 1128 1496 q 1158 1469 1156 1485 l 1158 1469 q 1172 1367 1172 1417 q 1151 1278 1171 1318 q 1088 1210 1131 1238 q 972 1172 1044 1183 l 972 1172 q 1142 981 1081 1107 q 1204 686 1204 856 l 1204 686 q 1186 505 1204 593 q 1133 337 1168 417 q 1047 191 1097 257 q 931 76 996 125 q 788 1 865 28 q 621 -26 710 -26 z m 625 49 l 625 49 q 766 72 700 49 q 888 139 832 96 q 988 241 944 182 q 1061 371 1031 300 q 1108 521 1092 442 q 1124 683 1124 600 l 1124 683 q 1096 885 1124 796 q 1015 1035 1068 974 q 890 1130 963 1097 q 731 1163 818 1163 l 731 1163 q 589 1140 656 1163 q 466 1074 522 1117 q 366 974 410 1032 q 291 845 322 915 q 244 697 260 775 q 228 535 228 618 l 228 535 q 257 331 228 421 q 338 177 286 240 q 463 81 390 114 q 625 49 536 49 z m 0 -521 l 0 -507 l 1285 -507 l 1285 -521 l 0 -521 z m 0 0 l 0 28 l 1285 28 l 1285 0 l 0 0 z m 0 694 l 0 701 l 1285 701 l 1285 694 l 0 694 z m 0 1215 l 0 1229 l 1285 1229 l 1285 1215 l 0 1215 z "},"Ớ":{"ha":1285,"x_min":0,"x_max":1285,"o":"m 621 -26 l 621 -26 q 428 13 515 -26 q 278 126 340 53 q 181 301 215 199 q 147 532 147 404 l 147 532 q 165 711 147 624 q 219 877 183 799 q 305 1021 254 956 q 421 1135 356 1086 q 565 1210 486 1183 q 735 1236 644 1236 l 735 1236 q 809 1231 774 1236 q 878 1215 844 1226 l 878 1215 q 1005 1238 958 1219 q 1072 1286 1051 1256 q 1093 1360 1092 1317 q 1083 1454 1094 1403 l 1083 1454 q 1089 1480 1079 1469 q 1113 1493 1099 1490 q 1142 1490 1128 1496 q 1158 1469 1156 1485 l 1158 1469 q 1172 1367 1172 1417 q 1151 1278 1171 1318 q 1088 1210 1131 1238 q 972 1172 1044 1183 l 972 1172 q 1142 981 1081 1107 q 1204 686 1204 856 l 1204 686 q 1186 505 1204 593 q 1133 337 1168 417 q 1047 191 1097 257 q 931 76 996 125 q 788 1 865 28 q 621 -26 710 -26 z m 625 49 l 625 49 q 766 72 700 49 q 888 139 832 96 q 988 241 944 182 q 1061 371 1031 300 q 1108 521 1092 442 q 1124 683 1124 600 l 1124 683 q 1096 885 1124 796 q 1015 1035 1068 974 q 890 1130 963 1097 q 731 1163 818 1163 l 731 1163 q 589 1140 656 1163 q 466 1074 522 1117 q 366 974 410 1032 q 291 845 322 915 q 244 697 260 775 q 228 535 228 618 l 228 535 q 257 331 228 421 q 338 177 286 240 q 463 81 390 114 q 625 49 536 49 z m 683 1304 l 683 1304 q 661 1317 674 1304 q 649 1338 649 1329 l 649 1338 q 650 1346 649 1342 q 657 1356 651 1350 l 657 1356 l 871 1556 q 881 1565 876 1561 q 892 1568 885 1568 l 892 1568 q 911 1560 900 1568 q 930 1542 922 1553 q 938 1522 938 1532 l 938 1522 q 935 1513 938 1517 q 926 1501 933 1508 l 926 1501 l 703 1314 q 692 1307 696 1310 q 683 1304 689 1304 z m 0 -521 l 0 -507 l 1285 -507 l 1285 -521 l 0 -521 z m 0 0 l 0 28 l 1285 28 l 1285 0 l 0 0 z m 0 694 l 0 701 l 1285 701 l 1285 694 l 0 694 z m 0 1215 l 0 1229 l 1285 1229 l 1285 1215 l 0 1215 z "},"Ợ":{"ha":1285,"x_min":0,"x_max":1285,"o":"m 621 -26 l 621 -26 q 428 13 515 -26 q 278 126 340 53 q 181 301 215 199 q 147 532 147 404 l 147 532 q 165 711 147 624 q 219 877 183 799 q 305 1021 254 956 q 421 1135 356 1086 q 565 1210 486 1183 q 735 1236 644 1236 l 735 1236 q 809 1231 774 1236 q 878 1215 844 1226 l 878 1215 q 1005 1238 958 1219 q 1072 1286 1051 1256 q 1093 1360 1092 1317 q 1083 1454 1094 1403 l 1083 1454 q 1089 1480 1079 1469 q 1113 1493 1099 1490 q 1142 1490 1128 1496 q 1158 1469 1156 1485 l 1158 1469 q 1172 1367 1172 1417 q 1151 1278 1171 1318 q 1088 1210 1131 1238 q 972 1172 1044 1183 l 972 1172 q 1142 981 1081 1107 q 1204 686 1204 856 l 1204 686 q 1186 505 1204 593 q 1133 337 1168 417 q 1047 191 1097 257 q 931 76 996 125 q 788 1 865 28 q 621 -26 710 -26 z m 625 49 l 625 49 q 766 72 700 49 q 888 139 832 96 q 988 241 944 182 q 1061 371 1031 300 q 1108 521 1092 442 q 1124 683 1124 600 l 1124 683 q 1096 885 1124 796 q 1015 1035 1068 974 q 890 1130 963 1097 q 731 1163 818 1163 l 731 1163 q 589 1140 656 1163 q 466 1074 522 1117 q 366 974 410 1032 q 291 845 322 915 q 244 697 260 775 q 228 535 228 618 l 228 535 q 257 331 228 421 q 338 177 286 240 q 463 81 390 114 q 625 49 536 49 z m 564 -304 l 564 -304 q 521 -290 536 -304 q 506 -243 506 -275 l 506 -243 q 522 -189 506 -210 q 574 -168 539 -168 l 574 -168 q 617 -183 601 -168 q 632 -229 632 -197 l 632 -229 q 615 -284 632 -264 q 564 -304 597 -304 z m 0 -521 l 0 -507 l 1285 -507 l 1285 -521 l 0 -521 z m 0 0 l 0 28 l 1285 28 l 1285 0 l 0 0 z m 0 694 l 0 701 l 1285 701 l 1285 694 l 0 694 z m 0 1215 l 0 1229 l 1285 1229 l 1285 1215 l 0 1215 z "},"Ờ":{"ha":1285,"x_min":0,"x_max":1285,"o":"m 621 -26 l 621 -26 q 428 13 515 -26 q 278 126 340 53 q 181 301 215 199 q 147 532 147 404 l 147 532 q 165 711 147 624 q 219 877 183 799 q 305 1021 254 956 q 421 1135 356 1086 q 565 1210 486 1183 q 735 1236 644 1236 l 735 1236 q 809 1231 774 1236 q 878 1215 844 1226 l 878 1215 q 1005 1238 958 1219 q 1072 1286 1051 1256 q 1093 1360 1092 1317 q 1083 1454 1094 1403 l 1083 1454 q 1089 1480 1079 1469 q 1113 1493 1099 1490 q 1142 1490 1128 1496 q 1158 1469 1156 1485 l 1158 1469 q 1172 1367 1172 1417 q 1151 1278 1171 1318 q 1088 1210 1131 1238 q 972 1172 1044 1183 l 972 1172 q 1142 981 1081 1107 q 1204 686 1204 856 l 1204 686 q 1186 505 1204 593 q 1133 337 1168 417 q 1047 191 1097 257 q 931 76 996 125 q 788 1 865 28 q 621 -26 710 -26 z m 625 49 l 625 49 q 766 72 700 49 q 888 139 832 96 q 988 241 944 182 q 1061 371 1031 300 q 1108 521 1092 442 q 1124 683 1124 600 l 1124 683 q 1096 885 1124 796 q 1015 1035 1068 974 q 890 1130 963 1097 q 731 1163 818 1163 l 731 1163 q 589 1140 656 1163 q 466 1074 522 1117 q 366 974 410 1032 q 291 845 322 915 q 244 697 260 775 q 228 535 228 618 l 228 535 q 257 331 228 421 q 338 177 286 240 q 463 81 390 114 q 625 49 536 49 z m 828 1304 l 828 1304 q 819 1307 824 1304 q 808 1314 815 1310 l 808 1314 l 597 1501 q 588 1513 590 1508 q 586 1522 586 1517 l 586 1522 q 594 1542 586 1532 q 613 1560 601 1553 q 633 1568 624 1568 l 633 1568 q 643 1565 639 1568 q 653 1556 647 1561 l 653 1556 l 856 1356 q 862 1346 861 1350 q 863 1339 863 1342 l 863 1339 q 850 1317 863 1329 q 828 1304 838 1304 z m 0 -521 l 0 -507 l 1285 -507 l 1285 -521 l 0 -521 z m 0 0 l 0 28 l 1285 28 l 1285 0 l 0 0 z m 0 694 l 0 701 l 1285 701 l 1285 694 l 0 694 z m 0 1215 l 0 1229 l 1285 1229 l 1285 1215 l 0 1215 z "},"Ở":{"ha":1285,"x_min":0,"x_max":1285,"o":"m 621 -26 l 621 -26 q 428 13 515 -26 q 278 126 340 53 q 181 301 215 199 q 147 532 147 404 l 147 532 q 165 711 147 624 q 219 877 183 799 q 305 1021 254 956 q 421 1135 356 1086 q 565 1210 486 1183 q 735 1236 644 1236 l 735 1236 q 809 1231 774 1236 q 878 1215 844 1226 l 878 1215 q 1005 1238 958 1219 q 1072 1286 1051 1256 q 1093 1360 1092 1317 q 1083 1454 1094 1403 l 1083 1454 q 1089 1480 1079 1469 q 1113 1493 1099 1490 q 1142 1490 1128 1496 q 1158 1469 1156 1485 l 1158 1469 q 1172 1367 1172 1417 q 1151 1278 1171 1318 q 1088 1210 1131 1238 q 972 1172 1044 1183 l 972 1172 q 1142 981 1081 1107 q 1204 686 1204 856 l 1204 686 q 1186 505 1204 593 q 1133 337 1168 417 q 1047 191 1097 257 q 931 76 996 125 q 788 1 865 28 q 621 -26 710 -26 z m 625 49 l 625 49 q 766 72 700 49 q 888 139 832 96 q 988 241 944 182 q 1061 371 1031 300 q 1108 521 1092 442 q 1124 683 1124 600 l 1124 683 q 1096 885 1124 796 q 1015 1035 1068 974 q 890 1130 963 1097 q 731 1163 818 1163 l 731 1163 q 589 1140 656 1163 q 466 1074 522 1117 q 366 974 410 1032 q 291 845 322 915 q 244 697 260 775 q 228 535 228 618 l 228 535 q 257 331 228 421 q 338 177 286 240 q 463 81 390 114 q 625 49 536 49 z m 782 1606 l 782 1606 q 877 1577 842 1606 q 913 1504 913 1549 l 913 1504 q 894 1445 913 1471 q 835 1393 875 1419 l 835 1393 q 800 1363 808 1376 q 797 1328 792 1349 l 797 1328 l 799 1314 q 793 1294 801 1303 q 772 1284 785 1286 q 749 1285 760 1282 q 736 1300 739 1289 l 736 1300 l 729 1328 q 733 1389 719 1363 q 776 1435 746 1415 l 776 1435 q 819 1467 806 1451 q 832 1499 832 1482 l 832 1499 q 814 1529 832 1518 q 769 1540 796 1540 l 769 1540 q 724 1533 746 1540 q 681 1514 701 1526 l 681 1514 q 640 1526 656 1499 l 640 1526 q 651 1568 629 1551 l 651 1568 q 710 1596 676 1586 q 782 1606 743 1606 z m 0 -521 l 0 -507 l 1285 -507 l 1285 -521 l 0 -521 z m 0 0 l 0 28 l 1285 28 l 1285 0 l 0 0 z m 0 694 l 0 701 l 1285 701 l 1285 694 l 0 694 z m 0 1215 l 0 1229 l 1285 1229 l 1285 1215 l 0 1215 z "},"Ỡ":{"ha":1285,"x_min":0,"x_max":1285,"o":"m 621 -26 l 621 -26 q 428 13 515 -26 q 278 126 340 53 q 181 301 215 199 q 147 532 147 404 l 147 532 q 165 711 147 624 q 219 877 183 799 q 305 1021 254 956 q 421 1135 356 1086 q 565 1210 486 1183 q 735 1236 644 1236 l 735 1236 q 809 1231 774 1236 q 878 1215 844 1226 l 878 1215 q 1005 1238 958 1219 q 1072 1286 1051 1256 q 1093 1360 1092 1317 q 1083 1454 1094 1403 l 1083 1454 q 1089 1480 1079 1469 q 1113 1493 1099 1490 q 1142 1490 1128 1496 q 1158 1469 1156 1485 l 1158 1469 q 1172 1367 1172 1417 q 1151 1278 1171 1318 q 1088 1210 1131 1238 q 972 1172 1044 1183 l 972 1172 q 1142 981 1081 1107 q 1204 686 1204 856 l 1204 686 q 1186 505 1204 593 q 1133 337 1168 417 q 1047 191 1097 257 q 931 76 996 125 q 788 1 865 28 q 621 -26 710 -26 z m 625 49 l 625 49 q 766 72 700 49 q 888 139 832 96 q 988 241 944 182 q 1061 371 1031 300 q 1108 521 1092 442 q 1124 683 1124 600 l 1124 683 q 1096 885 1124 796 q 1015 1035 1068 974 q 890 1130 963 1097 q 731 1163 818 1163 l 731 1163 q 589 1140 656 1163 q 466 1074 522 1117 q 366 974 410 1032 q 291 845 322 915 q 244 697 260 775 q 228 535 228 618 l 228 535 q 257 331 228 421 q 338 177 286 240 q 463 81 390 114 q 625 49 536 49 z m 532 1347 l 532 1347 q 503 1376 501 1347 l 503 1376 q 540 1494 510 1454 q 625 1535 571 1535 l 625 1535 q 699 1517 664 1535 q 766 1478 735 1500 q 826 1438 797 1456 q 881 1421 854 1421 l 881 1421 q 920 1443 907 1421 q 939 1511 933 1465 l 939 1511 q 974 1538 942 1538 l 974 1538 q 999 1531 993 1538 q 1004 1508 1006 1525 l 1004 1508 q 967 1391 997 1432 q 879 1350 938 1350 l 879 1350 q 806 1367 840 1350 q 740 1407 771 1385 q 680 1447 708 1429 q 625 1464 651 1464 l 625 1464 q 587 1442 600 1464 q 567 1374 574 1421 l 567 1374 q 558 1353 565 1360 q 532 1347 550 1347 z m 0 -521 l 0 -507 l 1285 -507 l 1285 -521 l 0 -521 z m 0 0 l 0 28 l 1285 28 l 1285 0 l 0 0 z m 0 694 l 0 701 l 1285 701 l 1285 694 l 0 694 z m 0 1215 l 0 1229 l 1285 1229 l 1285 1215 l 0 1215 z "},"Ŕ":{"ha":964,"x_min":0,"x_max":964,"o":"m 190 -19 l 190 -19 q 162 -13 171 -19 q 154 8 153 -7 l 154 8 l 303 1189 q 315 1209 306 1203 q 344 1215 325 1215 l 344 1215 l 563 1215 q 776 1189 692 1215 q 903 1105 861 1163 q 944 951 944 1047 l 944 951 q 924 831 944 885 q 863 735 903 778 q 772 662 824 693 q 657 610 719 631 q 525 577 594 589 q 383 560 456 565 l 383 560 q 528 382 451 471 q 688 207 604 293 q 861 38 772 121 l 861 38 q 873 16 872 28 q 857 -11 874 4 l 857 -11 q 831 -22 843 -24 q 806 -7 818 -19 l 806 -7 q 622 172 711 79 q 452 362 533 265 q 299 553 371 458 l 299 553 l 231 7 q 219 -13 228 -7 q 190 -19 211 -19 z m 374 1146 l 308 621 q 420 627 364 622 q 531 643 476 632 q 635 672 586 654 q 727 715 685 690 q 801 774 769 740 q 849 852 832 808 q 867 950 867 896 l 867 950 q 834 1065 867 1022 q 735 1127 801 1108 q 564 1146 668 1146 l 564 1146 l 374 1146 z m 536 1304 l 536 1304 q 514 1317 526 1304 q 501 1338 501 1329 l 501 1338 q 502 1346 501 1342 q 510 1356 503 1350 l 510 1356 l 724 1556 q 733 1565 729 1561 q 743 1568 738 1568 l 743 1568 q 764 1560 753 1568 q 782 1542 775 1553 q 789 1522 789 1532 l 789 1522 q 788 1513 789 1517 q 779 1501 786 1508 l 779 1501 l 556 1314 q 544 1307 549 1310 q 536 1304 540 1304 z m 0 -521 l 0 -507 l 964 -507 l 964 -521 l 0 -521 z m 0 0 l 0 28 l 964 28 l 964 0 l 0 0 z m 0 694 l 0 701 l 964 701 l 964 694 l 0 694 z m 0 1215 l 0 1229 l 964 1229 l 964 1215 l 0 1215 z "},"Ř":{"ha":964,"x_min":0,"x_max":964,"o":"m 190 -19 l 190 -19 q 162 -13 171 -19 q 154 8 153 -7 l 154 8 l 303 1189 q 315 1209 306 1203 q 344 1215 325 1215 l 344 1215 l 563 1215 q 776 1189 692 1215 q 903 1105 861 1163 q 944 951 944 1047 l 944 951 q 924 831 944 885 q 863 735 903 778 q 772 662 824 693 q 657 610 719 631 q 525 577 594 589 q 383 560 456 565 l 383 560 q 528 382 451 471 q 688 207 604 293 q 861 38 772 121 l 861 38 q 873 16 872 28 q 857 -11 874 4 l 857 -11 q 831 -22 843 -24 q 806 -7 818 -19 l 806 -7 q 622 172 711 79 q 452 362 533 265 q 299 553 371 458 l 299 553 l 231 7 q 219 -13 228 -7 q 190 -19 211 -19 z m 374 1146 l 308 621 q 420 627 364 622 q 531 643 476 632 q 635 672 586 654 q 727 715 685 690 q 801 774 769 740 q 849 852 832 808 q 867 950 867 896 l 867 950 q 834 1065 867 1022 q 735 1127 801 1108 q 564 1146 668 1146 l 564 1146 l 374 1146 z m 843 1568 l 843 1568 q 864 1558 854 1568 q 874 1536 874 1547 l 874 1536 q 872 1526 874 1531 q 864 1517 869 1522 l 864 1517 l 643 1321 q 624 1309 632 1314 q 604 1304 617 1304 l 604 1304 q 585 1309 593 1304 q 571 1322 578 1314 l 571 1322 l 385 1518 q 379 1529 381 1524 q 378 1538 378 1535 l 378 1538 q 389 1559 378 1550 q 410 1568 400 1568 l 410 1568 q 424 1565 418 1568 q 435 1556 429 1561 l 435 1556 l 610 1394 l 817 1556 q 830 1565 825 1561 q 843 1568 835 1568 z m 0 -521 l 0 -507 l 964 -507 l 964 -521 l 0 -521 z m 0 0 l 0 28 l 964 28 l 964 0 l 0 0 z m 0 694 l 0 701 l 964 701 l 964 694 l 0 694 z m 0 1215 l 0 1229 l 964 1229 l 964 1215 l 0 1215 z "},"Ŗ":{"ha":964,"x_min":0,"x_max":964,"o":"m 190 -19 l 190 -19 q 162 -13 171 -19 q 154 8 153 -7 l 154 8 l 303 1189 q 315 1209 306 1203 q 344 1215 325 1215 l 344 1215 l 563 1215 q 776 1189 692 1215 q 903 1105 861 1163 q 944 951 944 1047 l 944 951 q 924 831 944 885 q 863 735 903 778 q 772 662 824 693 q 657 610 719 631 q 525 577 594 589 q 383 560 456 565 l 383 560 q 528 382 451 471 q 688 207 604 293 q 861 38 772 121 l 861 38 q 873 16 872 28 q 857 -11 874 4 l 857 -11 q 831 -22 843 -24 q 806 -7 818 -19 l 806 -7 q 622 172 711 79 q 452 362 533 265 q 299 553 371 458 l 299 553 l 231 7 q 219 -13 228 -7 q 190 -19 211 -19 z m 374 1146 l 308 621 q 420 627 364 622 q 531 643 476 632 q 635 672 586 654 q 727 715 685 690 q 801 774 769 740 q 849 852 832 808 q 867 950 867 896 l 867 950 q 834 1065 867 1022 q 735 1127 801 1108 q 564 1146 668 1146 l 564 1146 l 374 1146 z m 386 -386 l 386 -386 q 372 -369 374 -378 q 379 -344 369 -360 l 379 -344 q 413 -280 400 -308 q 433 -219 426 -251 q 442 -140 440 -186 l 442 -140 q 451 -115 442 -124 q 478 -107 460 -107 l 478 -107 q 509 -117 499 -107 q 518 -144 519 -128 l 518 -144 q 508 -215 518 -176 q 479 -294 499 -254 q 432 -371 460 -333 l 432 -371 q 410 -388 421 -383 q 386 -386 400 -393 z m 0 -521 l 0 -507 l 964 -507 l 964 -521 l 0 -521 z m 0 0 l 0 28 l 964 28 l 964 0 l 0 0 z m 0 694 l 0 701 l 964 701 l 964 694 l 0 694 z m 0 1215 l 0 1229 l 964 1229 l 964 1215 l 0 1215 z "},"Ś":{"ha":956,"x_min":0,"x_max":956,"o":"m 456 -26 l 456 -26 q 340 -13 394 -26 q 239 22 285 0 q 156 74 193 44 q 94 136 119 103 l 94 136 q 85 160 83 150 q 100 182 86 169 l 100 182 q 124 193 114 194 q 147 178 133 192 l 147 178 q 225 113 179 143 q 328 66 271 83 q 456 49 386 49 l 456 49 q 585 67 528 49 q 685 120 643 85 q 749 206 726 156 q 771 319 771 256 l 771 319 q 751 417 771 376 q 694 488 731 457 q 610 542 658 518 q 507 592 563 567 l 507 592 q 418 634 461 613 q 338 683 375 656 q 272 745 300 710 q 227 826 243 781 q 211 932 211 872 l 211 932 q 238 1059 211 1003 q 312 1155 264 1115 q 424 1215 360 1194 q 563 1236 488 1236 l 563 1236 q 694 1217 635 1236 q 803 1166 754 1199 q 888 1092 851 1133 l 888 1092 q 898 1070 899 1081 q 885 1047 897 1060 l 885 1047 q 861 1037 872 1038 q 838 1046 850 1036 l 838 1046 q 763 1107 803 1081 q 674 1148 722 1133 q 563 1163 625 1163 l 563 1163 q 450 1147 500 1163 q 365 1100 400 1131 q 310 1027 329 1069 q 290 932 290 985 l 290 932 q 309 835 290 875 q 361 765 328 794 q 440 710 394 735 q 539 663 486 686 l 539 663 q 653 608 597 636 q 753 542 708 579 q 825 451 799 504 q 851 321 851 397 l 851 321 q 823 180 851 243 q 742 70 794 117 q 616 -1 689 24 q 456 -26 543 -26 z m 518 1304 l 518 1304 q 496 1317 508 1304 q 483 1338 483 1329 l 483 1338 q 484 1346 483 1342 q 490 1356 485 1350 l 490 1356 l 704 1556 q 715 1565 711 1561 q 725 1568 719 1568 l 725 1568 q 745 1560 735 1568 q 763 1542 756 1553 q 771 1522 771 1532 l 771 1522 q 769 1513 771 1517 q 761 1501 768 1508 l 761 1501 l 536 1314 q 526 1307 531 1310 q 518 1304 522 1304 z m 0 -521 l 0 -507 l 956 -507 l 956 -521 l 0 -521 z m 0 0 l 0 28 l 956 28 l 956 0 l 0 0 z m 0 694 l 0 701 l 956 701 l 956 694 l 0 694 z m 0 1215 l 0 1229 l 956 1229 l 956 1215 l 0 1215 z "},"Š":{"ha":956,"x_min":0,"x_max":956,"o":"m 456 -26 l 456 -26 q 340 -13 394 -26 q 239 22 285 0 q 156 74 193 44 q 94 136 119 103 l 94 136 q 85 160 83 150 q 100 182 86 169 l 100 182 q 124 193 114 194 q 147 178 133 192 l 147 178 q 225 113 179 143 q 328 66 271 83 q 456 49 386 49 l 456 49 q 585 67 528 49 q 685 120 643 85 q 749 206 726 156 q 771 319 771 256 l 771 319 q 751 417 771 376 q 694 488 731 457 q 610 542 658 518 q 507 592 563 567 l 507 592 q 418 634 461 613 q 338 683 375 656 q 272 745 300 710 q 227 826 243 781 q 211 932 211 872 l 211 932 q 238 1059 211 1003 q 312 1155 264 1115 q 424 1215 360 1194 q 563 1236 488 1236 l 563 1236 q 694 1217 635 1236 q 803 1166 754 1199 q 888 1092 851 1133 l 888 1092 q 898 1070 899 1081 q 885 1047 897 1060 l 885 1047 q 861 1037 872 1038 q 838 1046 850 1036 l 838 1046 q 763 1107 803 1081 q 674 1148 722 1133 q 563 1163 625 1163 l 563 1163 q 450 1147 500 1163 q 365 1100 400 1131 q 310 1027 329 1069 q 290 932 290 985 l 290 932 q 309 835 290 875 q 361 765 328 794 q 440 710 394 735 q 539 663 486 686 l 539 663 q 653 608 597 636 q 753 542 708 579 q 825 451 799 504 q 851 321 851 397 l 851 321 q 823 180 851 243 q 742 70 794 117 q 616 -1 689 24 q 456 -26 543 -26 z m 824 1568 l 824 1568 q 846 1558 836 1568 q 856 1536 856 1547 l 856 1536 q 853 1526 856 1531 q 846 1517 851 1522 l 846 1517 l 625 1321 q 606 1309 614 1314 q 586 1304 599 1304 l 586 1304 q 567 1309 575 1304 q 551 1322 560 1314 l 551 1322 l 367 1518 q 361 1529 363 1524 q 360 1538 360 1535 l 360 1538 q 371 1559 360 1550 q 392 1568 382 1568 l 392 1568 q 405 1565 400 1568 q 417 1556 410 1561 l 417 1556 l 592 1394 l 799 1556 q 812 1565 807 1561 q 824 1568 817 1568 z m 0 -521 l 0 -507 l 956 -507 l 956 -521 l 0 -521 z m 0 0 l 0 28 l 956 28 l 956 0 l 0 0 z m 0 694 l 0 701 l 956 701 l 956 694 l 0 694 z m 0 1215 l 0 1229 l 956 1229 l 956 1215 l 0 1215 z "},"Ş":{"ha":956,"x_min":0,"x_max":956,"o":"m 456 -26 l 456 -26 q 340 -13 394 -26 q 239 22 285 0 q 156 74 193 44 q 94 136 119 103 l 94 136 q 85 160 83 150 q 100 182 86 169 l 100 182 q 124 193 114 194 q 147 178 133 192 l 147 178 q 225 113 179 143 q 328 66 271 83 q 456 49 386 49 l 456 49 q 585 67 528 49 q 685 120 643 85 q 749 206 726 156 q 771 319 771 256 l 771 319 q 751 417 771 376 q 694 488 731 457 q 610 542 658 518 q 507 592 563 567 l 507 592 q 418 634 461 613 q 338 683 375 656 q 272 745 300 710 q 227 826 243 781 q 211 932 211 872 l 211 932 q 238 1059 211 1003 q 312 1155 264 1115 q 424 1215 360 1194 q 563 1236 488 1236 l 563 1236 q 694 1217 635 1236 q 803 1166 754 1199 q 888 1092 851 1133 l 888 1092 q 898 1070 899 1081 q 885 1047 897 1060 l 885 1047 q 861 1037 872 1038 q 838 1046 850 1036 l 838 1046 q 763 1107 803 1081 q 674 1148 722 1133 q 563 1163 625 1163 l 563 1163 q 450 1147 500 1163 q 365 1100 400 1131 q 310 1027 329 1069 q 290 932 290 985 l 290 932 q 309 835 290 875 q 361 765 328 794 q 440 710 394 735 q 539 663 486 686 l 539 663 q 653 608 597 636 q 753 542 708 579 q 825 451 799 504 q 851 321 851 397 l 851 321 q 823 180 851 243 q 742 70 794 117 q 616 -1 689 24 q 456 -26 543 -26 z m 401 -368 l 401 -368 q 338 -361 375 -368 q 269 -333 300 -354 l 269 -333 q 258 -315 258 -326 q 264 -293 257 -304 l 264 -293 q 280 -278 271 -281 q 300 -279 289 -275 l 300 -279 q 347 -297 321 -289 q 401 -304 372 -304 l 401 -304 q 467 -286 444 -304 q 489 -235 489 -268 l 489 -235 q 463 -187 489 -201 q 382 -179 436 -172 l 382 -179 q 365 -178 371 -181 q 353 -168 358 -175 l 353 -168 q 348 -150 347 -158 q 356 -131 349 -142 l 356 -131 l 425 6 l 486 6 l 407 -149 l 385 -131 q 478 -125 438 -117 q 541 -161 518 -133 q 564 -233 564 -189 l 564 -233 q 544 -304 564 -274 q 488 -351 524 -335 q 401 -368 451 -368 z m 0 -521 l 0 -507 l 956 -507 l 956 -521 l 0 -521 z m 0 0 l 0 28 l 956 28 l 956 0 l 0 0 z m 0 694 l 0 701 l 956 701 l 956 694 l 0 694 z m 0 1215 l 0 1229 l 956 1229 l 956 1215 l 0 1215 z "}}}
